<?xml version="1.0" encoding="utf-8"?>
<!-- Generator: Adobe Illustrator 19.0.0, SVG Export Plug-In . SVG Version: 6.00 Build 0)  -->
<svg version="1.0" id="Layer_1" xmlns="http://www.w3.org/2000/svg" xmlns:xlink="http://www.w3.org/1999/xlink" x="0px" y="0px"
	 viewBox="0 0 108 29.5" style="enable-background:new 0 0 108 29.5;" xml:space="preserve">
<style type="text/css">
	.st0{fill:#006EB7;}
	.st1{fill:#252C6D;}
	.st2{fill:#6DACDE;}
	.st3{fill:#5087C7;}
</style>
<g id="XMLID_209_">
	<g id="XMLID_354_">
		<path id="XMLID_364_" class="st0" d="M29.5,0c-1.8,0-3.4,1.2-4,2.8c2,1.4,3.6,3.3,4.6,5.6c2-0.3,3.5-2.1,3.5-4.2
			C33.7,1.9,31.8,0,29.5,0z"/>
		<path id="XMLID_362_" class="st0" d="M16.9,29.5c8.1,0,14.7-6.6,14.7-14.7h-8.4c0,3.5-2.8,6.3-6.3,6.3V29.5z"/>
		<path id="XMLID_361_" class="st0" d="M8.2,2.8C7.6,1.2,6.1,0,4.2,0C1.9,0,0,1.9,0,4.2c0,2.1,1.5,3.8,3.6,4.2
			C4.6,6.2,6.2,4.2,8.2,2.8z"/>
		<path id="XMLID_359_" class="st1" d="M16.9,21.1c-3.5,0-6.3-2.8-6.3-6.3H2.1c0,8.1,6.6,14.7,14.7,14.7V21.1z"/>
		<path id="XMLID_357_" class="st2" d="M10.5,14.7c0-3.5,2.8-6.3,6.3-6.3V0C8.7,0,2.1,6.6,2.1,14.7H10.5z"/>
		<path id="XMLID_355_" class="st3" d="M31.6,14.7C31.6,6.6,25,0,16.9,0v8.4c3.5,0,6.3,2.8,6.3,6.3H31.6z"/>
	</g>
	<g id="XMLID_210_">
		<path id="XMLID_351_" class="st0" d="M104.4,9c-0.8-0.4-1.7-0.6-2.7-0.6c-3.5,0-6.3,2.8-6.3,6.3c0,3.5,2.8,6.3,6.3,6.3
			c1,0,1.9-0.2,2.7-0.6h3.6V9H104.4z M101.7,16.7c-1.1,0-2-0.9-2-2c0-1.1,0.9-2,2-2c1.1,0,2,0.9,2,2
			C103.7,15.8,102.8,16.7,101.7,16.7z"/>
		<path id="XMLID_348_" class="st0" d="M62.5,9c-0.8-0.4-1.7-0.6-2.7-0.6c-3.5,0-6.3,2.8-6.3,6.3c0,3.5,2.8,6.3,6.3,6.3
			c1,0,1.9-0.2,2.7-0.6h3.6V9H62.5z M59.9,16.7c-1.1,0-2-0.9-2-2c0-1.1,0.9-2,2-2c1.1,0,2,0.9,2,2C61.8,15.8,60.9,16.7,59.9,16.7z"
			/>
		<path id="XMLID_345_" class="st0" d="M90,3.1v5.6c-0.6-0.2-1.2-0.3-1.9-0.3c-3.5,0-6.3,2.8-6.3,6.3c0,3.5,2.8,6.3,6.3,6.3
			c1,0,1.9-0.2,2.7-0.6h3.6V3.1H90z M88.1,16.7c-1.1,0-2-0.9-2-2c0-1.1,0.9-2,2-2c1.1,0,2,0.9,2,2C90.1,15.8,89.2,16.7,88.1,16.7z"
			/>
		<path id="XMLID_212_" class="st0" d="M44.4,26.4v-5.6c0.6,0.2,1.2,0.3,1.9,0.3c3.5,0,6.3-2.8,6.3-6.3c0-3.5-2.8-6.3-6.3-6.3
			c-1,0-1.9,0.2-2.7,0.6h-3.6v17.4H44.4z M46.2,12.8c1.1,0,2,0.9,2,2c0,1.1-0.9,2-2,2c-1.1,0-2-0.9-2-2
			C44.3,13.7,45.2,12.8,46.2,12.8z"/>
		<path id="XMLID_211_" class="st0" d="M74.5,8.4c-1,0-1.9,0.2-2.7,0.6h-3.6v11.4h4.4c0,0,0-5.8,0-5.8c0-1,0.9-1.9,1.9-1.9
			c1,0,1.9,0.8,1.9,1.9c0,0,0,5.8,0,5.8h4.4v-5.7C80.8,11.3,78,8.4,74.5,8.4z"/>
	</g>
</g>
<g id="XMLID_391_">
</g>
<g id="XMLID_392_">
</g>
<g id="XMLID_393_">
</g>
<g id="XMLID_394_">
</g>
<g id="XMLID_395_">
</g>
<g id="XMLID_396_">
</g>
</svg>
