<?xml version="1.0" encoding="utf-8"?>
<!-- Generator: Adobe Illustrator 19.0.0, SVG Export Plug-In . SVG Version: 6.00 Build 0)  -->
<svg version="1.1" id="Layer_1" xmlns="http://www.w3.org/2000/svg" xmlns:xlink="http://www.w3.org/1999/xlink" x="0px" y="0px"
	 viewBox="148.2 58.6 316.1 106.8" style="enable-background:new 148.2 58.6 316.1 106.8;" xml:space="preserve">
<style type="text/css">
	.st0{fill:#333333;}
	.st1{fill:#1072BA;}
	.st2{fill:#F79421;}
	.st3{display:none;}
	.st4{display:inline;fill:#231F20;}
</style>
<g id="XMLID_73_">
	<path id="XMLID_115_" class="st0" d="M151.9,72.9h2v18.7h2.3v1.8h-2.7c-1.3,0-1.6-0.4-1.6-1.6V72.9z"/>
	<path id="XMLID_113_" class="st0" d="M162.7,72.9v14.7c0,3,2.7,4.3,5.5,4.3c2.7,0,5.5-1.3,5.5-4.3V64.7h2.1v22.9
		c0,4.3-3.8,6.2-7.6,6.2s-7.6-1.9-7.6-6.2V72.9H162.7z"/>
	<path id="XMLID_111_" class="st0" d="M158.7,67.7h13l-0.8,1.8h-12.2V67.7z"/>
	<path id="XMLID_109_" class="st0" d="M190.6,72.4c4.6,0,7.7,2.2,7.7,8.8v12.1h-2v-12c0-5.5-2.5-7-5.6-7c-4.9,0-7,3.9-7,9.5
		c0,5.1,1.8,8.1,5.3,8.1c1.4,0,2.4-0.3,3.9-1.1l0.6,1.7c-1.6,0.9-2.9,1.2-4.5,1.2c-4.8,0-7.3-3.8-7.3-10
		C181.6,75.9,185.2,72.4,190.6,72.4z"/>
	<path id="XMLID_107_" class="st0" d="M206.9,72.9v14.7c0,3,2.7,4.3,5.5,4.3c2.7,0,5.5-1.3,5.5-4.3V72.9h2.1v14.7
		c0,4.3-3.8,6.2-7.6,6.2s-7.6-1.9-7.6-6.2V72.9H206.9z"/>
	<path id="XMLID_105_" class="st0" d="M213.4,67.7h8.7l-0.8,1.8h-9.9V66h-2.5v-1.8h2.7c1.5,0,1.8,0.4,1.8,1.7V67.7z"/>
	<path id="XMLID_103_" class="st0" d="M234.5,93.4h-2V79c0-3.2-1.4-4.7-3.7-4.7c-1.1,0-2.3,0.3-3.6,0.8l-0.5-1.8
		c1.5-0.6,3-0.9,4.3-0.9c3.3,0,5.7,2,5.7,6.5v14.5H234.5z"/>
	<path id="XMLID_101_" class="st0" d="M243.1,72.9v13.6c0,3.9,2,5.5,4.8,5.5c3.4,0,6.3-2.8,6.3-8.1v-11h2.1v14.2
		c0,2.9,0.1,4.4,0.4,6.3h-2.1c-0.2-1.3-0.4-2.3-0.4-3.4c-1.3,2.2-3.6,3.8-6.6,3.8c-3.3,0-6.5-1.8-6.5-7.3V72.9H243.1z"/>
	<path id="XMLID_99_" class="st0" d="M263.2,70.5c0-5.2,0.7-7.7,2.5-10.1h-7.2l0.8-1.8h9.2v1.1c-2.5,3.3-3.3,6-3.3,10.9v21h2.3v1.8
		h-2.7c-1.3,0-1.6-0.4-1.6-1.6L263.2,70.5L263.2,70.5z"/>
	<path id="XMLID_97_" class="st0" d="M280,82.2V84h-5.9v1.2c0,4.3,2.4,6.7,5.9,6.7c4.3,0,6.8-2.4,6.8-9c0-6.7-3.1-8.6-6.3-8.6
		c-3,0-5,1.4-5.8,4.1l-2-0.7c0.9-3.2,3.9-5.2,7.8-5.2c5,0,8.4,2.9,8.4,10.5c0,7.4-3,10.9-8.9,10.9c-4.5,0-8-2.8-8-8.9v-1
		c0-1.3,0.3-1.7,1.7-1.7h6.3V82.2z"/>
	<path id="XMLID_95_" class="st0" d="M295,79.1c0-2.9-0.1-4.4-0.4-6.3h2c0.2,1.3,0.4,2.3,0.4,3.4c1.3-2.2,3.5-3.8,6.5-3.8
		c3.3,0,6.4,1.7,6.4,7.3v13.7h-2V79.7c0-3.9-1.9-5.4-4.8-5.4c-3.2,0-6.1,2.8-6.1,8.1v10.9h-2V79.1z"/>
	<path id="XMLID_93_" class="st0" d="M295.7,69.6l0.8-1.8h11.4v-3.5h2v5.3H295.7z"/>
	<path id="XMLID_91_" class="st0" d="M331.2,93.4h-2v-9c-2.2-0.4-4-0.6-5.5-0.6c-4.6,0-6.1,1.8-6.1,4.2c0,2.9,1.8,3.9,3.9,3.9
		c1.1,0,2.3-0.3,3.3-0.8l0.6,1.7c-1.2,0.6-2.6,0.9-3.9,0.9c-3,0-5.9-1.7-5.9-5.8c0-3.5,2.4-6.1,8.2-6.1c1.6,0,3.3,0.2,5.4,0.6v-2.8
		c0-3.3-1.9-5.4-5.1-5.4c-2.9,0-4.8,1.3-5.6,3.9l-2-0.7c0.9-3.2,3.6-5,7.6-5c4.1,0,7.1,2.3,7.1,7.3V93.4z"/>
	<path id="XMLID_89_" class="st0" d="M345.6,93.4h-2V79c0-3.2-1.4-4.7-3.7-4.7c-1.1,0-2.3,0.3-3.6,0.8l-0.5-1.8
		c1.5-0.6,3-0.9,4.3-0.9c3.3,0,5.7,2,5.7,6.5v14.5H345.6z"/>
	<path id="XMLID_87_" class="st0" d="M360.4,72.4c4.6,0,7.7,2.2,7.7,8.8v12.1H366v-12c0-5.5-2.5-7-5.6-7c-4.9,0-7,3.9-7,9.5
		c0,5.1,1.8,8.1,5.3,8.1c1.4,0,2.4-0.3,3.9-1.1l0.6,1.7c-1.6,0.9-2.9,1.2-4.5,1.2c-4.8,0-7.3-3.8-7.3-10
		C351.4,75.9,355,72.4,360.4,72.4z"/>
	<path id="XMLID_85_" class="st0" d="M387.8,80.4c0-4.1-1.3-6.1-6-6.1c-1.3,0-2.8,0.2-4.6,0.6l2.2,4.2c-2.3,1.3-2.7,2.6-2.7,5.7v8.5
		h-2v-9c0-3,0.2-4.3,2.2-5.7l-2.6-5c3-0.8,5.5-1.1,7.5-1.1c6.1,0,8,2.7,8,8v12.9h-2V80.4z"/>
	<path id="XMLID_83_" class="st0" d="M408.4,75.7c-1.7-0.9-3.9-1.4-5.8-1.4c-2.5,0-4.6,1-4.6,3.6c0,5.3,11.5,1.9,11.5,10
		c0,4.3-3.4,5.9-7.1,5.9c-2.5,0-5.1-0.7-7-1.6l0.7-1.8c1.6,0.8,4.2,1.6,6.5,1.6c2.6,0,4.9-1,4.9-4c0-5.9-11.5-2.5-11.5-10
		c0-4,3.2-5.5,6.7-5.5c2.2,0,4.6,0.6,6.5,1.5L408.4,75.7z"/>
	<path id="XMLID_80_" class="st0" d="M416.2,77h6v1.8h-6.3c-1.3,0-1.8-0.4-1.8-1.6v-2.5h2L416.2,77L416.2,77z M416.2,88.3h6v1.8
		h-6.3c-1.3,0-1.8-0.4-1.8-1.6V86h2L416.2,88.3L416.2,88.3z"/>
	<path id="XMLID_78_" class="st0" d="M429.2,72.9v14.7c0,3,2.7,4.3,5.5,4.3c2.7,0,5.5-1.3,5.5-4.3V72.9h2v14.7
		c0,4.3-3.8,6.2-7.6,6.2c-3.8,0-7.6-1.9-7.6-6.2V72.9H429.2z"/>
	<path id="XMLID_76_" class="st0" d="M435.5,67.7h9.8l-0.8,1.8H435c-1.3,0-1.6-0.2-1.6-1.5v-3.4h2v3.1H435.5z"/>
	<path id="XMLID_74_" class="st0" d="M452.7,93.4c-0.7,0-1-0.2-1.2-0.8l-4.2-9.8h2.3l3.7,8.8h0.4c4,0,6.5-2.9,6.5-8.7
		c0-5.3-1.5-8.1-5.9-8.1h-1.5V73h1.5c5.7,0,7.9,3.6,7.9,10c0,6.9-3,10.5-8.5,10.5L452.7,93.4L452.7,93.4z"/>
</g>
<g id="IT_Openhouse_1_">
	<g id="XMLID_68_">
		<path id="XMLID_71_" class="st1" d="M148.2,105.2v60.2H159v-60.2H148.2z"/>
		<path id="XMLID_69_" class="st1" d="M164.9,105.2V116h21.5v49.4h10.8V116h21.4v-10.8H164.9z"/>
	</g>
	<g id="XMLID_34_">
		<path id="XMLID_66_" class="st1" d="M228.6,124.5V105h-4.3v23.8H241v-4.3H228.6z"/>
		<path id="XMLID_62_" class="st1" d="M258.5,105h-4.6l-9.5,23.8h4.6l2-5h10.4l2,5h4.6L258.5,105z M252.7,119.5l3.5-8.7l3.5,8.7
			H252.7z"/>
		<path id="XMLID_58_" class="st1" d="M289.5,110.8c-1-1.8-2.5-3.2-4.2-4.3c-1.8-1-3.8-1.5-6-1.5h-8.7v23.8h8.7c2.2,0,4.2-0.5,6-1.6
			c1.8-1,3.2-2.5,4.2-4.3s1.5-3.8,1.5-6.1C291,114.7,290.5,112.6,289.5,110.8z M285.8,120.8c-0.6,1.2-1.5,2.1-2.7,2.7
			c-1.1,0.7-2.4,1-3.8,1h-4.4v-15.2h4.4c1.4,0,2.7,0.3,3.8,1c1.1,0.7,2,1.6,2.7,2.7c0.6,1.2,1,2.5,1,3.9
			C286.8,118.3,286.4,119.7,285.8,120.8z"/>
		<path id="XMLID_56_" class="st1" d="M316,105h-6.3l-10.6,9.8V105h-4.3v23.8h4.3v-8.2l2.3-2.2l8.8,10.3h5.6l-11.3-13.3L316,105z"/>
		<path id="XMLID_52_" class="st1" d="M333,118.8c1.5-0.4,2.7-1.2,3.7-2.5c0.9-1.2,1.4-2.7,1.4-4.3c0-1.3-0.3-2.5-0.9-3.6
			c-0.6-1.1-1.4-1.9-2.5-2.5c-1.1-0.6-2.2-0.9-3.6-0.9h-11.2v23.8h4.3V119h3.8l7.1,9.8h5.3L333,118.8z M324.1,114.8v-5.5h7
			c0.8,0,1.5,0.2,2,0.7s0.8,1.2,0.8,2s-0.2,1.5-0.8,2c-0.5,0.5-1.2,0.8-2,0.8H324.1z"/>
		<path id="XMLID_48_" class="st1" d="M356.1,105h-4.6l-9.5,23.8h4.6l2-5H359l2,5h4.6L356.1,105z M350.3,119.5l3.5-8.7l3.5,8.7
			H350.3z"/>
		<path id="XMLID_43_" class="st1" d="M386.9,118.7c-0.5-1-1.1-1.7-1.9-2.4c0.9-1.2,1.4-2.7,1.4-4.3c0-1.3-0.3-2.5-0.9-3.6
			c-0.6-1.1-1.5-1.9-2.5-2.5c-1.1-0.6-2.2-0.9-3.5-0.9h-11.2v23.8h12.4c1.3,0,2.5-0.3,3.5-0.9c1.1-0.6,1.9-1.4,2.5-2.5
			c0.6-1.1,0.9-2.3,0.9-3.6C387.6,120.6,387.3,119.6,386.9,118.7z M372.5,109.3h6.9c0.8,0,1.4,0.2,1.9,0.8c0.5,0.5,0.8,1.2,0.8,2
			s-0.2,1.5-0.8,2c-0.5,0.5-1.1,0.8-1.9,0.8h-6.9V109.3z M382.5,123.7c-0.5,0.5-1.1,0.8-1.9,0.8h-8.1V119h8.1c0.8,0,1.4,0.2,1.9,0.8
			s0.8,1.2,0.8,1.9C383.3,122.6,383,123.2,382.5,123.7z"/>
		<path id="XMLID_39_" class="st1" d="M403.9,105h-4.6l-9.5,23.8h4.6l2-5h10.4l2,5h4.6L403.9,105z M398.1,119.5l3.5-8.7l3.5,8.7
			H398.1z"/>
		<path id="XMLID_37_" class="st1" d="M432.7,105v17l-11.9-17H416v23.8h4.3v-17l11.9,17h4.8V105H432.7z"/>
		<path id="XMLID_35_" class="st1" d="M452.5,115.9v4.3h6.3c-0.2,0.8-0.5,1.5-1,2.2s-1.2,1.3-2.1,1.9c-0.9,0.6-1.9,0.9-3.2,0.9
			c-1.4,0-2.7-0.3-3.8-1.1c-1.2-0.7-2.1-1.7-2.7-2.9c-0.6-1.3-1-2.7-1-4.2s0.3-2.9,1-4.2c0.7-1.3,1.6-2.2,2.7-3
			c1.1-0.7,2.4-1.1,3.8-1.1c1.1,0,2.2,0.2,3.2,0.7s1.8,1.2,2.5,2.1l3.4-2.7c-1.1-1.4-2.5-2.5-4-3.3c-1.6-0.8-3.3-1.2-5.1-1.2
			c-2.2,0-4.2,0.5-6,1.7c-1.8,1.1-3.2,2.6-4.3,4.5c-1.1,1.9-1.6,4-1.6,6.3s0.5,4.4,1.6,6.3c1,1.9,2.5,3.4,4.3,4.5
			c1.8,1.1,3.8,1.7,6,1.7c2.3,0,4.4-0.7,6.3-2.1v1.5h4.3v-12.8C463.1,115.9,452.5,115.9,452.5,115.9z"/>
	</g>
	<path id="XMLID_32_" class="st2" d="M247.3,144.5c-1.2-2.2-2.8-3.9-4.9-5.2c-2.1-1.3-4.4-1.9-6.9-1.9v4.9c1.6,0,3.1,0.4,4.4,1.2
		c1.3,0.8,2.4,1.9,3.1,3.4c0.8,1.4,1.1,3,1.1,4.8s-0.4,3.4-1.1,4.8s-1.8,2.6-3.1,3.4c-1.3,0.8-2.8,1.2-4.4,1.2
		c-1.6,0-3.1-0.4-4.4-1.2c-1.3-0.8-2.4-1.9-3.1-3.4c-0.7-1.3-1.1-2.8-1.1-4.4H222c0.1,2.5,0.7,4.8,1.8,6.9c1.2,2.2,2.8,3.9,4.9,5.2
		c2.1,1.3,4.4,1.9,6.9,1.9s4.8-0.6,6.9-1.9c2.1-1.3,3.7-3,4.9-5.2s1.8-4.6,1.8-7.3C249.1,149.1,248.5,146.7,247.3,144.5z"/>
	<path id="XMLID_30_" class="st2" d="M273.5,142.1c-0.7-1.2-1.7-2.2-2.9-2.9c-1.2-0.7-2.6-1.1-4.1-1.1h-13.1v27.3h4.9V143h8.2
		c1,0,1.7,0.3,2.3,0.9c0.6,0.6,0.9,1.3,0.9,2.3s-0.3,1.7-0.9,2.3s-1.4,0.9-2.3,0.9H262v4.9h4.5c1.5,0,2.9-0.4,4.1-1.1
		c1.2-0.7,2.2-1.7,2.9-2.9c0.7-1.2,1.1-2.6,1.1-4.1C274.6,144.7,274.3,143.3,273.5,142.1z"/>
	<path id="XMLID_28_" class="st2" d="M297.8,143v-4.9h-19.2v27.3h19.2v-4.9h-14.3v-6.3h14.3v-4.9h-14.3V143H297.8z"/>
	<path id="XMLID_26_" class="st2" d="M350,138.1v11.2h-13.6v-11.2h-4.9v27.3h4.9v-11.2H350v11.2h4.9v-27.3H350z"/>
	<path id="XMLID_24_" class="st2" d="M385.1,144.5c-1.2-2.2-2.9-3.9-4.9-5.2c-2.1-1.3-4.4-1.9-6.9-1.9v4.9c1.6,0,3.1,0.4,4.5,1.2
		c1.3,0.8,2.4,1.9,3.1,3.4c0.8,1.4,1.1,3,1.1,4.8s-0.4,3.4-1.1,4.8c-0.8,1.4-1.8,2.6-3.1,3.4c-1.3,0.8-2.8,1.2-4.5,1.2
		c-1.6,0-3.1-0.4-4.4-1.2s-2.4-1.9-3.1-3.4c-0.8-1.4-1.1-3-1.1-4.8h-4.9c0,2.6,0.6,5.1,1.8,7.3s2.9,3.9,4.9,5.2
		c2.1,1.3,4.4,1.9,6.9,1.9s4.8-0.6,6.9-1.9c2.1-1.3,3.7-3,4.9-5.2c1.2-2.2,1.8-4.6,1.8-7.3C386.9,149.1,386.3,146.7,385.1,144.5z"/>
	<path id="XMLID_22_" class="st2" d="M410.5,138.1v17.3c0,1.1-0.3,2.1-0.9,3s-1.5,1.6-2.6,2.1s-2.3,0.7-3.7,0.7
		c-1.4,0-2.6-0.2-3.7-0.7s-2-1.2-2.6-2.1c-0.6-0.9-0.9-1.9-0.9-3v-17.3h-4.9v17.3c0,2,0.5,3.8,1.6,5.4c1.1,1.6,2.5,2.9,4.3,3.8
		c1.8,0.9,3.9,1.4,6.1,1.4c2.3,0,4.3-0.5,6.1-1.4c1.8-0.9,3.3-2.2,4.3-3.8c1.1-1.6,1.6-3.4,1.6-5.4v-17.3H410.5z"/>
	<path id="XMLID_20_" class="st2" d="M440,153.7c-0.7-1.2-1.7-2.2-3-3s-2.8-1.4-4.4-1.6c-1.2-0.2-1.8-0.4-2-0.4l-2-0.4l-0.2-0.1l0,0
		c-1-0.2-1.9-0.6-2.5-1.1s-1-1.1-1-1.7c0-0.9,0.6-1.6,1.7-2.2c1.1-0.6,2.3-0.9,3.6-0.9c1.3,0,2.5,0.3,3.4,0.8s1.6,1.1,1.8,1.8
		l4.6-1.7c-0.6-1.7-1.8-3.1-3.6-4.2s-3.9-1.6-6.2-1.6c-1.9,0-3.6,0.4-5.1,1.1c-1.6,0.7-2.8,1.7-3.7,2.9s-1.4,2.6-1.4,4.1
		c0,1.2,0.3,2.4,1,3.5s1.6,2,2.8,2.7c1.2,0.8,2.5,1.3,4,1.6c0.2,0.1,1,0.2,2.2,0.4c0.1,0,0.3,0.1,0.7,0.1c0.3,0.1,0.8,0.1,1.2,0.2
		c1.3,0.2,2.3,0.6,3.2,1.3c0.9,0.7,1.3,1.4,1.3,2.2c0,0.6-0.3,1.1-0.8,1.7c-0.5,0.6-1.3,1-2.2,1.4c-0.9,0.4-2,0.6-3.1,0.6
		c-1.6,0-3-0.4-4.1-1.1c-1-0.6-1.6-1.2-1.8-2l-4.7,1.4c0.4,1.3,1.1,2.4,2.1,3.4s2.3,1.8,3.8,2.3c1.5,0.6,3.1,0.8,4.8,0.8
		c2,0,3.9-0.4,5.6-1.2s3-1.8,4-3.1s1.5-2.7,1.5-4.3C441.1,156.2,440.7,154.9,440,153.7z"/>
	<path id="XMLID_18_" class="st2" d="M464.3,143v-4.9h-19.2v27.3h19.2v-4.9H450v-6.3h14.3v-4.9H450V143H464.3z"/>
	<path id="XMLID_16_" class="st2" d="M325.1,143c-1.1-1.6-2.5-2.9-4.3-3.8c-1.8-0.9-3.9-1.4-6.1-1.4c-2.3,0-4.3,0.5-6.1,1.4
		c-1.8,0.9-3.3,2.2-4.3,3.8c-1.1,1.6-1.6,3.4-1.6,5.4v17.3h4.9v-17.3c0-1.1,0.3-2.1,0.9-3s1.5-1.6,2.5-2.1c1.1-0.5,2.3-0.7,3.7-0.7
		c1.3,0,2.6,0.2,3.7,0.7s1.9,1.2,2.6,2.1c0.6,0.9,0.9,1.9,0.9,3v17.3h4.9v-17.3C326.7,146.4,326.2,144.6,325.1,143z"/>
	<circle id="XMLID_15_" class="st2" cx="310.6" cy="152.5" r="1.4"/>
	<g id="XMLID_2_" class="st3">
		<path id="XMLID_13_" class="st4" d="M394.8,198.8c2.2-2,4.6-4.3,6.3-6.6c0.9-1.3,1.6-2.5,2.1-3.6c0.5-1.4,0.8-2.4,0.8-3.8
			c0-0.9,0-3.6-1.9-5.9c-2.4-2.9-5.8-3.2-6.5-3.2c-1.9-0.1-3.7,0.5-5.4,1.6c-3,2-3.9,5-4.1,6.2l3.8,0.8c0.2-0.7,0.8-2.6,2.5-3.7
			c0.3-0.3,1.5-1,3.1-0.9c0.2,0,2.3,0.1,3.5,1.7c1,1.3,1,2.9,1,3.5c0,1.8-0.7,3.1-2.1,5.1c-1.4,1.9-3.3,3.7-5.9,6.1
			c-1.8,1.8-4,3.6-6.1,5.1v3.5h17.4V201h-11.1C393.2,200.3,394,199.6,394.8,198.8z"/>
		<path id="XMLID_9_" class="st4" d="M427.8,185.3c-0.1-5.5-4.4-9.6-9.8-9.6s-9.7,4.1-9.8,9.6v10c0.1,5.5,4.4,9.6,9.8,9.6
			c5.3,0,9.7-4.1,9.8-9.6l0,0V185.3L427.8,185.3z M423.9,195.1c0,3.4-2.6,5.9-5.8,5.9c-3.2,0-5.9-2.4-5.9-5.9v-9.7
			c0-3.4,2.6-5.8,5.9-5.8c3.2,0,5.8,2.4,5.8,5.8V195.1z"/>
		<path id="XMLID_7_" class="st4" d="M431.6,176v3.5h4.3v25h4.2V176H431.6z"/>
		<path id="XMLID_3_" class="st4" d="M454.8,185c-0.4,0-0.8,0-1.1,0.1l5.1-9h-4.5l-7.9,14c-0.9,1.5-1.4,3.2-1.4,5.1
			c0,5.6,4.4,9.7,9.8,9.7s9.8-4.1,9.8-9.7C464.6,189.5,460.2,185,454.8,185z M454.8,200.9c-3.2,0-5.8-2.4-5.8-5.8
			c0-3.4,2.6-6.2,5.8-6.2c3.2,0,5.9,2.8,5.9,6.2C460.7,198.5,458.1,200.9,454.8,200.9z"/>
	</g>
</g>
</svg>
