<?xml version="1.0" encoding="utf-8"?>
<!-- Generator: Adobe Illustrator 19.0.0, SVG Export Plug-In . SVG Version: 6.00 Build 0)  -->
<svg version="1.0" id="Layer_1" xmlns="http://www.w3.org/2000/svg" xmlns:xlink="http://www.w3.org/1999/xlink" x="0px" y="0px"
	 viewBox="0 0 316.1 107.6" style="enable-background:new 0 0 316.1 107.6;" xml:space="preserve">
<style type="text/css">
	.st0{fill:#333333;}
	.st1{fill:#1072BA;}
	.st2{fill:#F79421;}
</style>
<g id="XMLID_100_">
	<path id="XMLID_142_" class="st0" d="M3.7,14.4h2V33H8v1.8H5.3c-1.3,0-1.6-0.4-1.6-1.6V14.4z"/>
	<path id="XMLID_140_" class="st0" d="M14.6,14.4v14.7c0,3,2.7,4.3,5.5,4.3c2.7,0,5.5-1.3,5.5-4.3V6.1h2.1v22.9
		c0,4.3-3.8,6.2-7.6,6.2c-3.8,0-7.6-1.9-7.6-6.2V14.4H14.6z"/>
	<path id="XMLID_138_" class="st0" d="M10.5,9.2h13l-0.8,1.8H10.5V9.2z"/>
	<path id="XMLID_136_" class="st0" d="M42.5,13.9c4.6,0,7.7,2.2,7.7,8.8v12.1h-2V22.8c0-5.5-2.5-7-5.6-7c-4.9,0-7,3.9-7,9.5
		c0,5.1,1.8,8.1,5.3,8.1c1.4,0,2.4-0.3,3.9-1.1l0.6,1.7c-1.6,0.9-2.9,1.2-4.5,1.2c-4.8,0-7.3-3.8-7.3-10
		C33.4,17.4,37.1,13.9,42.5,13.9z"/>
	<path id="XMLID_134_" class="st0" d="M58.8,14.4v14.7c0,3,2.7,4.3,5.5,4.3c2.7,0,5.5-1.3,5.5-4.3V14.4h2.1v14.7
		c0,4.3-3.8,6.2-7.6,6.2c-3.8,0-7.6-1.9-7.6-6.2V14.4H58.8z"/>
	<path id="XMLID_132_" class="st0" d="M65.2,9.2h8.7l-0.8,1.8h-9.9V7.6h-2.5V5.7h2.7c1.5,0,1.8,0.4,1.8,1.7V9.2z"/>
	<path id="XMLID_130_" class="st0" d="M86.4,34.9h-2V20.5c0-3.2-1.4-4.7-3.7-4.7c-1.1,0-2.3,0.3-3.6,0.8l-0.5-1.8
		c1.5-0.6,3-0.9,4.3-0.9c3.3,0,5.7,2,5.7,6.5V34.9z"/>
	<path id="XMLID_128_" class="st0" d="M95,14.4V28c0,3.9,2,5.5,4.8,5.5c3.4,0,6.3-2.8,6.3-8.1V14.4h2.1v14.2c0,2.9,0.1,4.4,0.4,6.3
		h-2.1c-0.2-1.3-0.4-2.3-0.4-3.4c-1.3,2.2-3.6,3.8-6.6,3.8c-3.3,0-6.5-1.8-6.5-7.3V14.4H95z"/>
	<path id="XMLID_126_" class="st0" d="M115.1,12c0-5.2,0.7-7.7,2.5-10.1h-7.2l0.8-1.8h9.2v1.1c-2.5,3.3-3.3,6-3.3,10.9v21h2.3v1.8
		h-2.7c-1.3,0-1.6-0.4-1.6-1.6V12z"/>
	<path id="XMLID_124_" class="st0" d="M131.9,23.7v1.8h-5.9v1.2c0,4.3,2.4,6.7,5.9,6.7c4.3,0,6.8-2.4,6.8-9c0-6.7-3.1-8.6-6.3-8.6
		c-3,0-5,1.4-5.8,4.1l-2-0.7c0.9-3.2,3.9-5.2,7.8-5.2c5,0,8.4,2.9,8.4,10.5c0,7.4-3,10.9-8.9,10.9c-4.5,0-8-2.8-8-8.9v-1
		c0-1.3,0.3-1.7,1.7-1.7H131.9z"/>
	<path id="XMLID_122_" class="st0" d="M146.8,20.6c0-2.9-0.1-4.4-0.4-6.3h2c0.2,1.3,0.4,2.3,0.4,3.4c1.3-2.2,3.5-3.8,6.5-3.8
		c3.3,0,6.4,1.7,6.4,7.3v13.7h-2V21.2c0-3.9-1.9-5.4-4.8-5.4c-3.2,0-6.1,2.8-6.1,8.1v10.9h-2V20.6z"/>
	<path id="XMLID_120_" class="st0" d="M147.5,11.1l0.8-1.8h11.4V5.7h2v5.3H147.5z"/>
	<path id="XMLID_118_" class="st0" d="M183,34.9h-2v-9c-2.2-0.4-4-0.6-5.5-0.6c-4.6,0-6.1,1.8-6.1,4.2c0,2.9,1.8,3.9,3.9,3.9
		c1.1,0,2.3-0.3,3.3-0.8l0.6,1.7c-1.2,0.6-2.6,0.9-3.9,0.9c-3,0-5.9-1.7-5.9-5.8c0-3.5,2.4-6.1,8.2-6.1c1.6,0,3.3,0.2,5.4,0.6v-2.8
		c0-3.3-1.9-5.4-5.1-5.4c-2.9,0-4.8,1.3-5.6,3.9l-2-0.7c0.9-3.2,3.6-5,7.6-5c4.1,0,7.1,2.3,7.1,7.3V34.9z"/>
	<path id="XMLID_116_" class="st0" d="M197.5,34.9h-2V20.5c0-3.2-1.4-4.7-3.7-4.7c-1.1,0-2.3,0.3-3.6,0.8l-0.5-1.8
		c1.5-0.6,3-0.9,4.3-0.9c3.3,0,5.7,2,5.7,6.5V34.9z"/>
	<path id="XMLID_114_" class="st0" d="M212.3,13.9c4.6,0,7.7,2.2,7.7,8.8v12.1h-2.1V22.8c0-5.5-2.5-7-5.6-7c-4.9,0-7,3.9-7,9.5
		c0,5.1,1.8,8.1,5.3,8.1c1.4,0,2.4-0.3,3.9-1.1L215,34c-1.6,0.9-2.9,1.2-4.5,1.2c-4.8,0-7.3-3.8-7.3-10
		C203.2,17.4,206.9,13.9,212.3,13.9z"/>
	<path id="XMLID_112_" class="st0" d="M239.6,21.9c0-4.1-1.3-6.1-6-6.1c-1.3,0-2.8,0.2-4.6,0.6l2.2,4.2c-2.3,1.3-2.7,2.6-2.7,5.7
		v8.5h-2v-9c0-3,0.2-4.3,2.2-5.7l-2.6-5c3-0.8,5.5-1.1,7.5-1.1c6.1,0,8,2.7,8,8v12.9h-2V21.9z"/>
	<path id="XMLID_110_" class="st0" d="M260.2,17.2c-1.7-0.9-3.9-1.4-5.8-1.4c-2.5,0-4.6,1-4.6,3.6c0,5.3,11.5,1.9,11.5,10
		c0,4.3-3.4,5.9-7.1,5.9c-2.5,0-5.1-0.7-7-1.6l0.7-1.8c1.6,0.8,4.2,1.6,6.5,1.6c2.6,0,4.9-1,4.9-4c0-5.9-11.5-2.5-11.5-10
		c0-4,3.2-5.5,6.7-5.5c2.2,0,4.6,0.6,6.5,1.5L260.2,17.2z"/>
	<path id="XMLID_107_" class="st0" d="M268.1,18.5h6v1.8h-6.3c-1.3,0-1.8-0.4-1.8-1.6v-2.5h2V18.5z M268.1,29.8h6v1.8h-6.3
		c-1.3,0-1.8-0.4-1.8-1.6v-2.5h2V29.8z"/>
	<path id="XMLID_105_" class="st0" d="M281.1,14.4v14.7c0,3,2.7,4.3,5.5,4.3c2.7,0,5.5-1.3,5.5-4.3V14.4h2v14.7
		c0,4.3-3.8,6.2-7.6,6.2c-3.8,0-7.6-1.9-7.6-6.2V14.4H281.1z"/>
	<path id="XMLID_103_" class="st0" d="M287.3,9.2h9.8l-0.8,1.8h-9.3c-1.3,0-1.6-0.2-1.6-1.5V6.1h2V9.2z"/>
	<path id="XMLID_101_" class="st0" d="M304.5,34.9c-0.7,0-1-0.2-1.2-0.8l-4.2-9.8h2.3l3.7,8.8h0.4c4,0,6.5-2.9,6.5-8.7
		c0-5.3-1.5-8.1-5.9-8.1h-1.5v-1.8h1.5c5.7,0,7.9,3.6,7.9,10c0,6.9-3,10.5-8.5,10.5H304.5z"/>
</g>
<g id="XMLID_41_">
	<g id="XMLID_95_">
		<path id="XMLID_98_" class="st1" d="M0,46.7v60.2h10.8V46.7H0z"/>
		<path id="XMLID_96_" class="st1" d="M16.8,46.7v10.8h21.5v49.4h10.8V57.5h21.4V46.7H16.8z"/>
	</g>
	<g id="XMLID_61_">
		<path id="XMLID_93_" class="st1" d="M80.4,66V46.5h-4.3v23.8h16.7V66H80.4z"/>
		<path id="XMLID_89_" class="st1" d="M110.3,46.5h-4.6l-9.5,23.8h4.6l2-5h10.4l2,5h4.6L110.3,46.5z M104.5,61l3.5-8.7l3.5,8.7
			H104.5z"/>
		<path id="XMLID_85_" class="st1" d="M141.3,52.3c-1-1.8-2.4-3.2-4.2-4.3c-1.8-1-3.8-1.6-6-1.6h-8.7v23.8h8.7c2.2,0,4.2-0.5,6-1.6
			c1.8-1,3.2-2.5,4.2-4.3c1-1.8,1.5-3.8,1.5-6C142.9,56.2,142.4,54.1,141.3,52.3z M137.6,62.3c-0.6,1.2-1.5,2.1-2.7,2.7
			c-1.1,0.7-2.4,1-3.8,1h-4.4V50.8h4.4c1.4,0,2.7,0.3,3.8,1c1.1,0.7,2,1.6,2.7,2.7c0.6,1.2,1,2.5,1,3.9S138.3,61.2,137.6,62.3z"/>
		<path id="XMLID_83_" class="st1" d="M167.8,46.5h-6.3L151,56.3v-9.8h-4.3v23.8h4.3v-8.2l2.3-2.2l8.8,10.3h5.6L156.5,57L167.8,46.5
			z"/>
		<path id="XMLID_79_" class="st1" d="M184.8,60.3c1.5-0.4,2.7-1.2,3.7-2.5c0.9-1.2,1.4-2.7,1.4-4.3c0-1.3-0.3-2.5-0.9-3.6
			c-0.6-1.1-1.4-1.9-2.5-2.5c-1.1-0.6-2.2-0.9-3.6-0.9h-11.2v23.8h4.3v-9.7h3.8l7.1,9.7h5.3L184.8,60.3z M175.9,56.3v-5.5h7
			c0.8,0,1.5,0.2,2,0.7c0.5,0.5,0.8,1.2,0.8,2c0,0.8-0.2,1.5-0.8,2c-0.5,0.5-1.2,0.8-2,0.8H175.9z"/>
		<path id="XMLID_75_" class="st1" d="M207.9,46.5h-4.6l-9.5,23.8h4.6l2-5h10.4l2,5h4.6L207.9,46.5z M202.1,61l3.5-8.7l3.5,8.7
			H202.1z"/>
		<path id="XMLID_70_" class="st1" d="M238.7,60.2c-0.5-1-1.1-1.7-1.9-2.4c0.9-1.2,1.4-2.7,1.4-4.3c0-1.3-0.3-2.5-0.9-3.6
			c-0.6-1.1-1.5-1.9-2.5-2.5c-1.1-0.6-2.2-0.9-3.5-0.9h-11.2v23.8h12.4c1.3,0,2.5-0.3,3.5-0.9c1.1-0.6,1.9-1.4,2.5-2.5
			c0.6-1.1,0.9-2.3,0.9-3.6C239.4,62.1,239.2,61.1,238.7,60.2z M224.4,50.8h6.9c0.8,0,1.4,0.2,1.9,0.8c0.5,0.5,0.8,1.2,0.8,2
			c0,0.8-0.2,1.5-0.8,2c-0.5,0.5-1.1,0.8-1.9,0.8h-6.9V50.8z M234.4,65.2c-0.5,0.5-1.1,0.8-1.9,0.8h-8.1v-5.5h8.1
			c0.8,0,1.4,0.2,1.9,0.8s0.8,1.2,0.8,2C235.1,64.1,234.9,64.7,234.4,65.2z"/>
		<path id="XMLID_66_" class="st1" d="M255.8,46.5h-4.6l-9.5,23.8h4.6l2-5h10.4l2,5h4.6L255.8,46.5z M249.9,61l3.5-8.7l3.5,8.7
			H249.9z"/>
		<path id="XMLID_64_" class="st1" d="M284.6,46.5v17l-11.9-17h-4.8v23.8h4.3v-17l11.9,17h4.8V46.5H284.6z"/>
		<path id="XMLID_62_" class="st1" d="M304.3,57.4v4.3h6.3c-0.2,0.8-0.5,1.5-1,2.2c-0.5,0.7-1.2,1.3-2.1,1.9
			c-0.9,0.6-1.9,0.9-3.2,0.9c-1.4,0-2.7-0.3-3.8-1.1c-1.2-0.7-2.1-1.7-2.7-3c-0.7-1.3-1-2.7-1-4.2c0-1.5,0.3-2.9,1-4.2
			c0.7-1.3,1.6-2.2,2.7-3c1.1-0.7,2.4-1.1,3.8-1.1c1.1,0,2.2,0.2,3.2,0.7c1,0.5,1.8,1.2,2.5,2.1l3.4-2.7c-1.1-1.4-2.5-2.5-4-3.3
			c-1.6-0.8-3.3-1.2-5.1-1.2c-2.2,0-4.2,0.5-6,1.6c-1.8,1.1-3.2,2.6-4.3,4.5c-1,1.9-1.6,4-1.6,6.3c0,2.3,0.5,4.4,1.6,6.3
			c1,1.9,2.5,3.4,4.3,4.5c1.8,1.1,3.8,1.7,6,1.7c2.3,0,4.4-0.7,6.3-2.1v1.5h4.3V57.4H304.3z"/>
	</g>
	<path id="XMLID_59_" class="st2" d="M99.1,86c-1.2-2.2-2.9-3.9-4.9-5.2c-2.1-1.3-4.4-1.9-6.9-1.9v4.9c1.6,0,3.1,0.4,4.4,1.2
		c1.3,0.8,2.4,2,3.1,3.4s1.1,3,1.1,4.8c0,1.8-0.4,3.4-1.1,4.8c-0.8,1.4-1.8,2.6-3.1,3.4c-1.3,0.8-2.8,1.2-4.4,1.2
		c-1.6,0-3.1-0.4-4.4-1.2c-1.3-0.8-2.4-2-3.1-3.4c-0.7-1.3-1.1-2.8-1.1-4.4h-4.9c0,2.5,0.7,4.8,1.8,6.9c1.2,2.2,2.8,3.9,4.9,5.2
		c2.1,1.3,4.4,1.9,6.9,1.9c2.5,0,4.8-0.6,6.9-1.9c2.1-1.3,3.7-3,4.9-5.2c1.2-2.2,1.8-4.6,1.8-7.3C100.9,90.6,100.3,88.2,99.1,86z"/>
	<path id="XMLID_57_" class="st2" d="M125.4,83.6c-0.7-1.2-1.7-2.2-2.9-2.9c-1.2-0.7-2.6-1.1-4.1-1.1h-13.1v27.3h4.9V84.5h8.2
		c1,0,1.7,0.3,2.3,0.9c0.6,0.6,0.9,1.4,0.9,2.3c0,1-0.3,1.7-0.9,2.3c-0.6,0.6-1.4,0.8-2.3,0.8h-4.5v4.9h4.5c1.5,0,2.9-0.3,4.1-1
		c1.2-0.7,2.2-1.7,2.9-2.9c0.7-1.2,1.1-2.6,1.1-4.1C126.5,86.2,126.1,84.8,125.4,83.6z"/>
	<path id="XMLID_55_" class="st2" d="M149.6,84.5v-4.9h-19.2v27.3h19.2V102h-14.3v-6.3h14.3v-4.9h-14.3v-6.3H149.6z"/>
	<path id="XMLID_53_" class="st2" d="M201.9,79.6v11.2h-13.6V79.6h-4.9v27.3h4.9V95.7h13.6v11.2h4.9V79.6H201.9z"/>
	<path id="XMLID_51_" class="st2" d="M237,86c-1.2-2.2-2.8-3.9-4.9-5.2c-2.1-1.3-4.4-1.9-6.9-1.9v4.9c1.6,0,3.1,0.4,4.5,1.2
		c1.3,0.8,2.4,2,3.1,3.4c0.8,1.4,1.1,3,1.1,4.8c0,1.8-0.4,3.4-1.1,4.8c-0.8,1.4-1.8,2.6-3.1,3.4c-1.3,0.8-2.8,1.2-4.5,1.2
		s-3.1-0.4-4.4-1.2c-1.3-0.8-2.4-2-3.1-3.4c-0.8-1.4-1.1-3-1.1-4.8h-4.9c0,2.7,0.6,5.1,1.8,7.3c1.2,2.2,2.8,3.9,4.9,5.2
		c2.1,1.3,4.4,1.9,6.9,1.9c2.5,0,4.8-0.6,6.9-1.9c2.1-1.3,3.7-3,4.9-5.2c1.2-2.2,1.8-4.6,1.8-7.3C238.8,90.6,238.2,88.2,237,86z"/>
	<path id="XMLID_49_" class="st2" d="M262.3,79.6v17.3c0,1.1-0.3,2.1-0.9,3c-0.6,0.9-1.5,1.6-2.6,2.1c-1.1,0.5-2.3,0.7-3.7,0.7
		c-1.4,0-2.6-0.2-3.7-0.7c-1.1-0.5-1.9-1.2-2.6-2.1c-0.6-0.9-0.9-1.9-0.9-3V79.6h-4.9v17.3c0,2,0.5,3.8,1.6,5.4
		c1.1,1.6,2.5,2.9,4.3,3.8c1.8,0.9,3.9,1.4,6.1,1.4c2.3,0,4.3-0.5,6.1-1.4c1.8-0.9,3.3-2.2,4.3-3.8c1-1.6,1.6-3.4,1.6-5.4V79.6
		H262.3z"/>
	<path id="XMLID_47_" class="st2" d="M291.9,95.2c-0.7-1.2-1.7-2.2-3-3c-1.3-0.8-2.8-1.4-4.4-1.6c-1.2-0.2-1.8-0.3-2-0.3l-2-0.4
		l-0.2-0.1h0c-1-0.2-1.8-0.6-2.5-1.1c-0.7-0.6-1-1.1-1-1.7c0-0.9,0.5-1.6,1.6-2.2c1.1-0.6,2.3-0.9,3.6-0.9s2.5,0.3,3.4,0.8
		c0.9,0.5,1.6,1.1,1.8,1.8l4.6-1.7c-0.6-1.7-1.8-3.1-3.6-4.2s-3.9-1.6-6.2-1.6c-1.9,0-3.6,0.4-5.1,1.1c-1.6,0.7-2.8,1.7-3.7,2.9
		s-1.4,2.6-1.4,4c0,1.2,0.3,2.4,1,3.5c0.7,1.1,1.6,2,2.8,2.7c1.2,0.8,2.5,1.3,4,1.6c0.2,0.1,1,0.2,2.2,0.4c0.1,0,0.3,0.1,0.7,0.1
		c0.4,0,0.8,0.1,1.2,0.2c1.3,0.2,2.3,0.7,3.2,1.3c0.9,0.7,1.3,1.4,1.3,2.2c0,0.6-0.3,1.2-0.8,1.7c-0.5,0.6-1.3,1-2.2,1.4
		c-0.9,0.4-2,0.5-3.1,0.5c-1.6,0-3-0.3-4.1-1c-1-0.6-1.6-1.2-1.8-2l-4.7,1.4c0.4,1.3,1.1,2.4,2.1,3.4c1,1,2.3,1.8,3.8,2.3
		c1.5,0.6,3.1,0.8,4.8,0.8c2,0,3.9-0.4,5.6-1.2c1.7-0.8,3-1.8,4-3.1c1-1.3,1.5-2.7,1.5-4.3C293,97.7,292.6,96.4,291.9,95.2z"/>
	<path id="XMLID_45_" class="st2" d="M316.1,84.5v-4.9h-19.2v27.3h19.2V102h-14.3v-6.3h14.3v-4.9h-14.3v-6.3H316.1z"/>
	<path id="XMLID_43_" class="st2" d="M177,84.5c-1.1-1.6-2.5-2.9-4.3-3.8c-1.8-0.9-3.9-1.4-6.1-1.4c-2.3,0-4.3,0.5-6.1,1.4
		c-1.8,0.9-3.3,2.2-4.3,3.8c-1.1,1.6-1.6,3.4-1.6,5.4v17.3h4.9V89.9c0-1.1,0.3-2.1,0.9-3c0.6-0.9,1.5-1.6,2.5-2.1
		c1.1-0.5,2.3-0.7,3.7-0.7c1.3,0,2.6,0.2,3.7,0.7c1.1,0.5,1.9,1.2,2.6,2.1c0.6,0.9,0.9,1.9,0.9,3v17.3h4.9V89.9
		C178.6,87.9,178,86.1,177,84.5z"/>
	<circle id="XMLID_42_" class="st2" cx="162.5" cy="94" r="1.4"/>
</g>
</svg>
