<?xml version="1.0" encoding="utf-8"?>
<!-- Generator: Adobe Illustrator 19.2.1, SVG Export Plug-In . SVG Version: 6.00 Build 0)  -->
<svg version="1.1" id="Layer_1" xmlns="http://www.w3.org/2000/svg" xmlns:xlink="http://www.w3.org/1999/xlink" x="0px" y="0px"
	 viewBox="0 0 66.7 13" style="enable-background:new 0 0 66.7 13;" xml:space="preserve">
<style type="text/css">
	.st0{fill:#0071BC;}
	.st1{fill:#F7931E;}
</style>
<title>nav-logo</title>
<path class="st0" d="M0,0.2v12.7h2.3V0.2H0z"/>
<path class="st0" d="M3.5,0.2v2.3h4.5v10.4h2.3V2.5h4.5V0.2H3.5z"/>
<path class="st0" d="M17,4.2V0.1h-0.9v5h3.5V4.2H17z"/>
<path class="st0" d="M23.3,0.1h-1l-2,5h1l0.4-1h2.2l0.4,1.1h1L23.3,0.1z M22,3.2l0.7-1.8l0.7,1.8H22z"/>
<path class="st0" d="M29.8,1.4c-0.2-0.4-0.5-0.7-0.9-0.9c-0.4-0.2-0.8-0.3-1.3-0.3h-1.8v5h1.8c0.4,0,0.9-0.1,1.3-0.3
	c0.4-0.2,0.7-0.5,0.9-0.9C30,3.5,30.2,3,30.1,2.6C30.2,2.2,30,1.7,29.8,1.4z M29,3.5c-0.1,0.2-0.3,0.4-0.6,0.6
	c-0.2,0.1-0.5,0.2-0.8,0.2h-0.9V1h0.9c0.3,0,0.6,0.1,0.8,0.2c0.2,0.1,0.4,0.3,0.6,0.6c0.1,0.3,0.2,0.5,0.2,0.8
	C29.2,2.9,29.2,3.2,29,3.5z"/>
<path class="st0" d="M35.4,0.1h-1.3l-2.2,2.1V0.1H31v5h0.9V3.4L32.4,3l1.9,2.2h1.2L33,2.3L35.4,0.1z"/>
<path class="st0" d="M39,3c0.3-0.1,0.6-0.3,0.8-0.5c0.2-0.3,0.3-0.6,0.3-0.9c0-0.3-0.1-0.5-0.2-0.7c-0.1-0.2-0.3-0.4-0.5-0.5
	c-0.2-0.1-0.5-0.2-0.8-0.2h-2.4v5h0.9v-2h0.8l1.5,2.1h1.1L39,3z M37.1,2.2V1h1.5c0.2,0,0.3,0.1,0.4,0.2c0.1,0.1,0.2,0.3,0.2,0.4
	c0,0.2-0.1,0.3-0.2,0.4c-0.1,0.1-0.3,0.2-0.4,0.2L37.1,2.2L37.1,2.2z"/>
<path class="st0" d="M43.9,0.1h-1l-2,5h1l0.4-1h2.2l0.4,1.1h1L43.9,0.1z M42.7,3.2l0.7-1.8l0.7,1.8H42.7z"/>
<path class="st0" d="M50.4,3c-0.1-0.2-0.2-0.4-0.4-0.5c0.2-0.3,0.3-0.6,0.3-0.9c0-0.3-0.1-0.5-0.2-0.8c-0.1-0.2-0.3-0.4-0.5-0.5
	c-0.2-0.1-0.5-0.2-0.8-0.2h-2.4v5H49c0.3,0,0.5,0,0.8-0.1c0.2-0.1,0.4-0.3,0.5-0.5C50.6,4,50.6,3.5,50.4,3z M47.4,1h1.5
	c0.2,0,0.3,0.1,0.4,0.2c0.1,0.1,0.2,0.3,0.2,0.4c0,0.2-0.1,0.3-0.2,0.4c-0.1,0.1-0.3,0.2-0.4,0.2h-1.5L47.4,1L47.4,1z M49.5,4.1
	c-0.1,0.1-0.3,0.2-0.4,0.2h-1.7V3.1h1.7c0.2,0,0.3,0.1,0.4,0.2c0.1,0.1,0.2,0.3,0.2,0.4C49.6,3.8,49.6,4,49.5,4.1L49.5,4.1z"/>
<path class="st0" d="M54,0.1h-1l-2,5h1l0.4-1.1h2.2L55,5.2h1L54,0.1z M52.8,3.2l0.7-1.8l0.7,1.8H52.8z"/>
<path class="st0" d="M60.1,0.1v3.6l-2.5-3.6h-1v5h0.9V1.6L60,5.2h1v-5L60.1,0.1L60.1,0.1z"/>
<path class="st0" d="M64.2,2.4v0.9h1.3c0,0.2-0.1,0.3-0.2,0.5c-0.1,0.2-0.3,0.3-0.4,0.4c-0.2,0.1-0.4,0.2-0.7,0.2
	c-0.3,0-0.6-0.1-0.8-0.2C63.2,4,63,3.8,62.9,3.5c-0.1-0.3-0.2-0.6-0.2-0.9c0-0.3,0.1-0.6,0.2-0.9c0.1-0.3,0.3-0.5,0.6-0.6
	C63.7,1,64,0.9,64.3,0.9c0.2,0,0.5,0.1,0.7,0.2c0.2,0.1,0.4,0.3,0.5,0.4l0.7-0.6C65.7,0.3,65,0,64.3,0c-0.4,0-0.9,0.1-1.3,0.3
	c-0.4,0.2-0.7,0.6-0.9,1c-0.2,0.4-0.3,0.9-0.3,1.3c0,0.5,0.1,0.9,0.3,1.3c0.2,0.4,0.5,0.8,0.9,1c0.4,0.2,0.8,0.4,1.3,0.3
	c0.5,0,0.9-0.2,1.3-0.4v0.3h0.9V2.4H64.2z"/>
<path class="st1" d="M20.9,8.5c-0.2-0.4-0.6-0.8-1-1.1c-0.5-0.3-1-0.4-1.5-0.4v1c0.3,0,0.7,0.1,0.9,0.3C19.6,8.4,19.9,8.7,20,9
	c0.2,0.3,0.2,0.7,0.2,1c0,0.3-0.1,0.7-0.2,1c-0.1,0.3-0.4,0.5-0.7,0.7c-0.6,0.3-1.3,0.3-1.9,0c-0.3-0.2-0.5-0.4-0.6-0.7
	c-0.2-0.3-0.2-0.6-0.2-0.9h-1c0,0.5,0.1,1,0.4,1.4c0.2,0.4,0.6,0.8,1,1.1c0.9,0.5,2,0.5,2.9,0c0.4-0.3,0.8-0.6,1-1.1
	C21.4,10.6,21.4,9.4,20.9,8.5z"/>
<path class="st1" d="M26.5,7.9c-0.1-0.3-0.4-0.5-0.6-0.6c-0.3-0.1-0.5-0.2-0.8-0.2h-2.8v5.8h1V8.1H25c0.2,0,0.4,0.1,0.5,0.2
	c0.3,0.3,0.3,0.7,0,1c-0.1,0.1-0.3,0.2-0.5,0.2h-1v1h1c0.3,0,0.6-0.1,0.9-0.2c0.3-0.1,0.5-0.4,0.6-0.6C26.8,9.1,26.8,8.5,26.5,7.9z"
	/>
<path class="st1" d="M31.6,8.1v-1h-4v5.8h4v-1h-3v-1.4h3v-1h-3V8.1H31.6z"/>
<path class="st1" d="M42.6,7.1v2.4h-2.9V7.1h-1v5.8h1v-2.4h2.9v2.4h1V7.1H42.6z"/>
<path class="st1" d="M50,8.5c-0.2-0.4-0.6-0.8-1-1.1C48.6,7.1,48,7,47.5,7v1c0.3,0,0.7,0.1,0.9,0.3C48.7,8.4,49,8.7,49.1,9
	c0.2,0.3,0.2,0.7,0.2,1c0,0.3-0.1,0.7-0.2,1c-0.2,0.3-0.4,0.5-0.7,0.7c-0.6,0.3-1.3,0.3-1.9,0c-0.3-0.2-0.5-0.4-0.7-0.7
	c-0.2-0.3-0.2-0.7-0.2-1h-1c0,0.5,0.1,1,0.3,1.5c0.2,0.4,0.6,0.8,1,1.1c0.9,0.5,2,0.5,2.9,0c0.4-0.3,0.8-0.6,1-1.1
	C50.4,10.6,50.5,9.4,50,8.5z"/>
<path class="st1" d="M55.4,7.1v3.7c0,0.2-0.1,0.4-0.2,0.6c-0.1,0.2-0.3,0.3-0.5,0.4c-0.5,0.2-1.1,0.2-1.5,0
	c-0.2-0.1-0.4-0.2-0.5-0.4c-0.1-0.2-0.2-0.4-0.2-0.6V7.1h-1v3.7c0,0.4,0.1,0.8,0.3,1.1c0.2,0.3,0.5,0.6,0.9,0.8
	c0.8,0.4,1.8,0.4,2.6,0c0.4-0.2,0.7-0.5,0.9-0.8c0.2-0.3,0.3-0.7,0.3-1.1V7.1H55.4L55.4,7.1z"/>
<path class="st1" d="M61.6,10.4c-0.2-0.2-0.4-0.5-0.6-0.6c-0.3-0.2-0.6-0.3-1-0.4l-0.4-0.1l-0.4-0.1h0l0,0c-0.2,0-0.4-0.1-0.5-0.3
	c-0.1-0.1-0.2-0.2-0.2-0.4c0-0.2,0.2-0.4,0.3-0.5C59,8,59.2,8,59.5,8c0.2,0,0.5,0,0.7,0.2c0.2,0.1,0.3,0.2,0.4,0.4l1-0.4
	c-0.1-0.4-0.4-0.7-0.8-0.9C60.4,7.1,60,7,59.5,7c-0.4,0-0.7,0.1-1.1,0.2c-0.3,0.1-0.6,0.3-0.8,0.6c-0.2,0.2-0.3,0.5-0.3,0.9
	c0,0.3,0.1,0.5,0.2,0.7c0.1,0.2,0.3,0.4,0.6,0.6c0.3,0.2,0.5,0.3,0.8,0.3l0.5,0.1h0.1h0.3c0.2,0,0.5,0.1,0.7,0.3
	c0.2,0.1,0.3,0.3,0.3,0.5c0,0.1-0.1,0.3-0.2,0.4c-0.1,0.1-0.3,0.2-0.5,0.3c-0.2,0.1-0.4,0.1-0.7,0.1c-0.3,0-0.6-0.1-0.9-0.2
	c-0.2-0.1-0.3-0.2-0.4-0.4l-1,0.3c0.1,0.3,0.2,0.5,0.5,0.7c0.2,0.2,0.5,0.4,0.8,0.5c0.3,0.1,0.7,0.2,1,0.2c0.4,0,0.8-0.1,1.2-0.2
	c0.3-0.1,0.6-0.4,0.8-0.6C61.9,11.6,61.9,10.9,61.6,10.4z"/>
<path class="st1" d="M66.7,8.1v-1h-4.1v5.8h4.1v-1h-3v-1.4h3v-1h-3V8.1H66.7z"/>
<path class="st1" d="M37.3,8.1c-0.2-0.3-0.5-0.6-0.9-0.8c-0.8-0.4-1.8-0.4-2.6,0c-0.4,0.2-0.7,0.5-0.9,0.8c-0.2,0.3-0.3,0.7-0.3,1.1
	v3.7h1V9.3c0-0.2,0.1-0.4,0.2-0.6c0.1-0.2,0.3-0.3,0.5-0.4c0.5-0.2,1.1-0.2,1.5,0c0.2,0.1,0.4,0.2,0.5,0.4c0.1,0.2,0.2,0.4,0.2,0.6
	v3.7h1V9.3C37.6,8.9,37.6,8.5,37.3,8.1z"/>
<circle class="st1" cx="34.6" cy="10.1" r="0.6"/>
</svg>
