<?xml version="1.0" encoding="utf-8"?>
<!-- Generator: Adobe Illustrator 19.0.0, SVG Export Plug-In . SVG Version: 6.00 Build 0)  -->
<svg version="1.0" id="Layer_1" xmlns="http://www.w3.org/2000/svg" xmlns:xlink="http://www.w3.org/1999/xlink" x="0px" y="0px"
	 viewBox="0 0 100.2 41.7" style="enable-background:new 0 0 100.2 41.7;" xml:space="preserve">
<style type="text/css">
	.st0{fill:#EB2D2E;}
	.st1{fill:#FFFFFF;}
	.st2{fill:#F1A42B;}
</style>
<g id="XMLID_2_">
	<g id="XMLID_98_">
		<g id="XMLID_208_">
			<path id="XMLID_212_" class="st0" d="M80.4,29.3c0,0,5.1-3.6,14-4c2.7,3.6,4.8,7.3,4.8,7.3s-8.6,2.5-14.4,7.7
				C82.5,34.4,80.4,29.3,80.4,29.3z"/>
			<path id="XMLID_209_" d="M84.5,40.4c-1.2-2.9-2.3-5.7-3.1-7.7l0,0c-0.8-2-1.3-3.3-1.3-3.3v0l0.4-0.1l0.2,0.3l-0.2-0.3l-0.4,0.1
				L80,29.2l0.3-0.2c0,0,5.2-3.6,14.2-4l0,0l0.2,0l0.1,0.2c2.8,3.6,4.8,7.3,4.8,7.3l0,0l0.2,0.4L99.3,33c0,0-0.5,0.2-1.4,0.5l0,0
				c-0.9,0.3-2.1,0.8-3.6,1.4l0,0c-2.9,1.3-6.4,3.2-9.2,5.7l0,0l-0.4,0.4L84.5,40.4L84.5,40.4z M85,39.6c5-4.3,11.8-6.7,13.7-7.2
				l0,0c0-0.1-0.1-0.1-0.1-0.2l0,0c-0.2-0.4-0.6-1-1-1.6l0,0c-0.8-1.3-2-3.1-3.3-4.8l0,0c-7.5,0.4-12.2,3-13.3,3.7l0,0
				C81.4,30.6,83.1,34.8,85,39.6L85,39.6z"/>
		</g>
		<g id="XMLID_203_">
			<path id="XMLID_207_" class="st1" d="M80.8,27.7c0,0,5.1-3.6,14-4c2.7,3.6,4.8,7.3,4.8,7.3s-8.6,2.5-14.4,7.7
				C82.9,32.8,80.8,27.7,80.8,27.7z"/>
			<path id="XMLID_204_" d="M84.9,38.8c-1.2-2.9-2.3-5.7-3.1-7.7l0,0c-0.8-2-1.3-3.3-1.3-3.3l0,0l0.4-0.1l0.2,0.3l-0.2-0.3l-0.4,0.1
				l-0.1-0.3l0.3-0.2c0,0,5.2-3.6,14.2-4l0,0l0.2,0l0.1,0.2c2.8,3.6,4.8,7.3,4.8,7.3l0,0l0.2,0.4l-0.5,0.1c0,0-0.5,0.1-1.4,0.5l0,0
				c-0.9,0.3-2.1,0.8-3.6,1.4l0,0c-2.9,1.3-6.4,3.2-9.2,5.7l0,0l-0.4,0.4L84.9,38.8L84.9,38.8z M85.4,38c5-4.3,11.8-6.7,13.7-7.2
				l0,0c0-0.1-0.1-0.1-0.1-0.2l0,0c-0.2-0.4-0.6-1-1-1.7l0,0c-0.8-1.3-2-3.1-3.3-4.8l0,0c-7.5,0.4-12.2,3-13.3,3.7l0,0
				C81.8,29,83.5,33.2,85.4,38L85.4,38z"/>
		</g>
		<g id="XMLID_201_">
			<polygon id="XMLID_202_" points="87.3,25.1 88,24.7 93,33.4 92.3,33.8 87.3,25.1 			"/>
		</g>
		<g id="XMLID_199_">
			<path id="XMLID_200_" d="M80.4,22.9c-1-0.4-2.3-0.5-3.8-0.7l0,0l0,0l0.3-2.8c1.3,0.2,2.9,0.2,4.5,0.8l0,0
				c2.2,0.9,4.3,2.6,5.8,4.2l0,0l-2.1,1.9C84,25.1,82,23.6,80.4,22.9L80.4,22.9z"/>
		</g>
		<g id="XMLID_197_">
			<path id="XMLID_198_" d="M62,17.3c-0.8-0.4-1.3-1.1-1.7-1.8l0,0c-0.7-1.4-0.7-2.9-0.8-4.3l0,0c0-0.7,0-1.4,0-2l0,0
				c0-0.2,0-0.4,0-0.6l0,0l2.8-0.1c0,0.2,0,0.4,0,0.7l0,0c0,0.7,0,1.4,0,2l0,0c0,0.7,0,1.4,0.1,1.9l0,0c0.1,0.6,0.2,1,0.4,1.2l0,0
				c0.1,0.2,0.3,0.3,0.4,0.4l0,0c0.3,0.1,0.6,0.3,1.3,0.3l0,0c0.1,0,0.3,0,0.4,0l0,0l0.2,2.8c-0.2,0-0.4,0-0.6,0l0,0c0,0,0,0,0,0
				l0,0C63.7,17.9,62.8,17.7,62,17.3L62,17.3z"/>
		</g>
		<g id="XMLID_192_">
			<circle id="XMLID_196_" class="st2" cx="87.1" cy="25.5" r="2.5"/>
			<path id="XMLID_193_" d="M84,25.5c0-1.7,1.4-3.1,3.1-3.1l0,0c1.7,0,3.1,1.4,3.1,3.1l0,0c0,1.7-1.4,3.1-3.1,3.1l0,0
				C85.4,28.5,84,27.2,84,25.5L84,25.5z M85.1,25.5c0,1.1,0.9,2,2,2l0,0c1.1,0,2-0.9,2-2l0,0c0-1.1-0.9-2-2-2l0,0
				C86,23.5,85.1,24.4,85.1,25.5L85.1,25.5z"/>
		</g>
		<g id="XMLID_170_">
			<g id="XMLID_187_">
				<polygon id="XMLID_191_" class="st0" points="54,6.7 67.9,0.5 68.7,2.2 54.8,8.4 				"/>
				<path id="XMLID_188_" d="M53.6,6.9L54,6.7l0.2,0.4L54,6.7L53.6,6.9l-0.2-0.4L68.1,0l1.1,2.4L54.6,9L53.6,6.9L53.6,6.9z M55,7.9
					L68.2,2l-0.4-1L54.5,6.9L55,7.9L55,7.9z"/>
			</g>
			<g id="XMLID_185_">
				<polygon id="XMLID_186_" points="55.8,6.9 56.5,6.6 56.9,7.4 56.2,7.7 55.8,6.9 				"/>
			</g>
			<g id="XMLID_183_">
				<polygon id="XMLID_184_" points="57.3,6.3 58,5.9 58.3,6.7 57.6,7 57.3,6.3 				"/>
			</g>
			<g id="XMLID_181_">
				<polygon id="XMLID_182_" points="58.9,5.5 59.6,5.2 59.9,6 59.2,6.3 58.9,5.5 				"/>
			</g>
			<g id="XMLID_179_">
				<polygon id="XMLID_180_" points="60.4,4.9 61.1,4.6 61.4,5.3 60.7,5.6 60.4,4.9 				"/>
			</g>
			<g id="XMLID_177_">
				<polygon id="XMLID_178_" points="61.9,4.2 62.6,3.9 63,4.6 62.3,4.9 61.9,4.2 				"/>
			</g>
			<g id="XMLID_175_">
				<polygon id="XMLID_176_" points="63.5,3.5 64.2,3.2 64.5,3.9 63.8,4.2 63.5,3.5 				"/>
			</g>
			<g id="XMLID_173_">
				<polygon id="XMLID_174_" points="64.9,2.9 65.6,2.6 65.9,3.3 65.2,3.6 64.9,2.9 				"/>
			</g>
			<g id="XMLID_171_">
				<polygon id="XMLID_172_" points="66.4,2.2 67.2,1.9 67.5,2.6 66.8,3 66.4,2.2 				"/>
			</g>
		</g>
		<g id="XMLID_165_">
			<path id="XMLID_169_" class="st2" d="M63.9,7.1c0,1.4-1.1,2.5-2.5,2.5c-1.4,0-2.5-1.1-2.5-2.5c0-1.4,1.1-2.5,2.5-2.5
				C62.8,4.6,63.9,5.7,63.9,7.1z"/>
			<path id="XMLID_166_" d="M58.4,7.1c0-1.7,1.4-3.1,3.1-3.1l0,0c1.7,0,3.1,1.4,3.1,3.1l0,0c0,1.7-1.4,3.1-3.1,3.1l0,0
				C59.7,10.2,58.4,8.8,58.4,7.1L58.4,7.1z M59.5,7.1c0,1.1,0.9,2,2,2l0,0c1.1,0,2-0.9,2-2l0,0c0-1.1-0.9-2-2-2l0,0
				C60.3,5.2,59.5,6,59.5,7.1L59.5,7.1z"/>
		</g>
		<g id="XMLID_155_">
			<g id="XMLID_156_">
				<path id="XMLID_162_" class="st2" d="M80.8,19.8c-0.6,3.4-2,6-4.3,7.6c-2.1,1.5-4.7,2.2-7.9,2.2h-6.6l3.3-19.5h6.6
					c3.4,0,5.8,0.7,7.2,2C80.9,13.7,81.4,16.2,80.8,19.8z M75.6,19.9c0.6-3.6-1.1-5.3-4.3-5.3h-1.6l-1.8,10.7h1.6
					C72.7,25.2,75,23.5,75.6,19.9z"/>
				<path id="XMLID_157_" d="M68.7,30.2h-7.3l3.4-20.6h7.1c3.5,0,6,0.7,7.6,2.1l0,0c1.4,1.3,2.1,3.1,2.1,5.5l0,0
					c0,0.8-0.1,1.7-0.2,2.7l0,0l-0.5-0.1l0.5,0.1c-0.6,3.5-2.1,6.2-4.5,8l0,0C74.7,29.5,71.9,30.2,68.7,30.2L68.7,30.2
					C68.7,30.2,68.7,30.2,68.7,30.2L68.7,30.2z M62.7,29.1h5.9c3.1,0,5.6-0.7,7.5-2.1l0,0c2.1-1.6,3.5-3.9,4.1-7.3l0,0l0,0
					c0.2-0.9,0.2-1.8,0.2-2.5l0,0c0-2.2-0.6-3.7-1.7-4.7l0,0c-1.3-1.2-3.5-1.8-6.8-1.8l0,0h-6.1L62.7,29.1L62.7,29.1z M69.5,25.8
					h-2.3l2-11.8h2.1c1.5,0,2.7,0.4,3.6,1.1l0,0c0.9,0.8,1.4,2,1.3,3.4l0,0c0,0.5,0,0.9-0.1,1.4l0,0l-0.5-0.1l0.5,0.1
					c-0.3,1.9-1.1,3.3-2.2,4.3l0,0C72.7,25.3,71.2,25.8,69.5,25.8L69.5,25.8C69.5,25.8,69.5,25.8,69.5,25.8L69.5,25.8z M68.5,24.7h1
					c1.5,0,2.8-0.4,3.7-1.2l0,0c0.9-0.8,1.6-2,1.9-3.6l0,0l0,0c0.1-0.5,0.1-0.9,0.1-1.3l0,0c0-1.2-0.4-2-1-2.6l0,0
					c-0.6-0.5-1.6-0.9-2.9-0.9l0,0h-1.1L68.5,24.7L68.5,24.7z"/>
			</g>
		</g>
		<g id="XMLID_148_">
			<g id="XMLID_149_">
				<path id="XMLID_150_" d="M68.7,30.3h-7.4l3.5-20.8h7.2c3.5,0,6,0.7,7.7,2.2l0,0c1.4,1.3,2.1,3.2,2.1,5.6l0,0
					c0,0.8-0.1,1.8-0.2,2.7l0,0l-0.6-0.1l0.6,0.1c-0.6,3.5-2.1,6.3-4.5,8.1l0,0C74.7,29.6,72,30.3,68.7,30.3L68.7,30.3
					C68.7,30.3,68.7,30.3,68.7,30.3L68.7,30.3z M62.8,29h5.8c3.1,0,5.6-0.7,7.5-2.1l0,0c2.1-1.5,3.4-3.9,4-7.2l0,0l0,0
					c0.2-0.9,0.2-1.7,0.2-2.5l0,0c0-2.2-0.6-3.6-1.7-4.6l0,0c-1.2-1.1-3.5-1.8-6.8-1.8l0,0h-6L62.8,29L62.8,29z M69.5,25.9h-2.4
					l2-12h2.2c1.5,0,2.8,0.4,3.7,1.2l0,0c0.9,0.8,1.4,2,1.4,3.5l0,0c0,0.5,0,0.9-0.1,1.5l0,0l-0.6-0.1l0.6,0.1
					c-0.3,1.9-1.1,3.4-2.3,4.4l0,0C72.8,25.4,71.2,25.9,69.5,25.9L69.5,25.9C69.5,25.9,69.5,25.9,69.5,25.9L69.5,25.9z M68.7,24.6
					h0.8c1.5,0,2.7-0.4,3.6-1.2l0,0c0.9-0.8,1.5-1.9,1.8-3.6l0,0l0,0C75,19.4,75,19,75,18.6l0,0c0-1.2-0.3-2-0.9-2.5l0,0
					c-0.6-0.5-1.5-0.8-2.8-0.8l0,0h-1L68.7,24.6L68.7,24.6z"/>
			</g>
		</g>
		<g id="XMLID_143_">
			<path id="XMLID_147_" class="st1" d="M78.1,9.6c0,1.5-1.2,2.8-2.8,2.8c-1.5,0-2.8-1.2-2.8-2.8c0-1.5,1.2-2.8,2.8-2.8
				C76.8,6.8,78.1,8.1,78.1,9.6z"/>
			<path id="XMLID_144_" d="M72.1,9.6c0-1.8,1.4-3.2,3.2-3.2l0,0c1.8,0,3.2,1.4,3.2,3.2l0,0c0,1.8-1.4,3.2-3.2,3.2l0,0
				C73.5,12.8,72.1,11.4,72.1,9.6L72.1,9.6z M73,9.6c0,1.3,1,2.3,2.3,2.3l0,0c1.3,0,2.3-1,2.3-2.3l0,0c0-1.3-1-2.3-2.3-2.3l0,0
				C74,7.3,73,8.3,73,9.6L73,9.6z"/>
		</g>
		<g id="XMLID_141_">
			<circle id="XMLID_142_" cx="75.8" cy="10.2" r="0.9"/>
		</g>
		<g id="XMLID_133_">
			<g id="XMLID_136_">
				<path id="XMLID_140_" class="st1" d="M83.4,14.6c0,1.5-1.2,2.8-2.8,2.8c-1.5,0-2.8-1.2-2.8-2.8c0-1.5,1.2-2.8,2.8-2.8
					C82.2,11.8,83.4,13.1,83.4,14.6z"/>
				<path id="XMLID_137_" d="M77.4,14.6c0-1.8,1.4-3.2,3.2-3.2l0,0c1.8,0,3.2,1.4,3.2,3.2l0,0c0,1.8-1.4,3.2-3.2,3.2l0,0
					C78.9,17.8,77.4,16.4,77.4,14.6L77.4,14.6z M78.3,14.6c0,1.3,1,2.3,2.3,2.3l0,0c1.3,0,2.3-1,2.3-2.3l0,0c0-1.3-1-2.3-2.3-2.3
					l0,0C79.4,12.3,78.3,13.3,78.3,14.6L78.3,14.6z"/>
			</g>
			<g id="XMLID_134_">
				<circle id="XMLID_135_" cx="81" cy="15.1" r="0.9"/>
			</g>
		</g>
		<g id="XMLID_99_">
			<g id="XMLID_124_">
				<path id="XMLID_130_" class="st1" d="M19.6,19.3c-0.5,3.2-1.8,5.7-3.7,7.4c-1.9,1.7-4.3,2.6-7.1,2.6h-8L4.2,9.5h8
					c2.9,0,5,0.9,6.3,2.7C19.7,13.9,20.1,16.3,19.6,19.3z M14.7,19.3c0.6-3.6-0.8-5.4-4.2-5.4H8.3l-1.9,11h2.3
					c1.9,0,3.3-0.4,4.2-1.3C13.7,22.7,14.4,21.3,14.7,19.3z"/>
				<path id="XMLID_125_" d="M8.8,30.1H0L3.6,8.8h8.6c3,0,5.4,1,6.8,3l0,0c1,1.4,1.5,3.1,1.5,5.1l0,0c0,0.8-0.1,1.7-0.2,2.6l0,0
					c-0.6,3.3-1.8,6-3.9,7.8l0,0C14.3,29.2,11.8,30.1,8.8,30.1L8.8,30.1C8.8,30.1,8.8,30.1,8.8,30.1L8.8,30.1z M1.6,28.7h7.2
					c2.7,0,4.9-0.8,6.7-2.4l0,0c1.8-1.6,2.9-3.9,3.5-7.1l0,0l0,0c0.1-0.8,0.2-1.6,0.2-2.3l0,0c0-1.8-0.4-3.2-1.2-4.3l0,0
					c-1.2-1.6-3-2.4-5.7-2.4l0,0H4.8L1.6,28.7L1.6,28.7z M8.7,25.6H5.6l2.1-12.4h2.8c1.5,0,2.8,0.3,3.7,1.1l0,0
					c0.9,0.8,1.3,2,1.3,3.4l0,0c0,0.5,0,1.1-0.1,1.7l0,0c-0.3,2-1,3.6-2.1,4.6l0,0C12.2,25.1,10.6,25.6,8.7,25.6L8.7,25.6
					C8.7,25.6,8.7,25.6,8.7,25.6L8.7,25.6z M7.2,24.2h1.4c1.8,0,3-0.4,3.7-1.1l0,0c0.8-0.7,1.4-2,1.7-3.9l0,0c0.1-0.5,0.1-1,0.1-1.4
					l0,0c0-1.2-0.3-1.9-0.9-2.4l0,0c-0.5-0.5-1.4-0.8-2.8-0.8l0,0H8.8L7.2,24.2L7.2,24.2z"/>
			</g>
			<g id="XMLID_113_">
				<path id="XMLID_121_" class="st1" d="M35,23.3h-9.9c-0.4,2.2,0.5,3.3,2.5,3.3c1.2,0,2.1-0.5,2.8-1.6h4.1
					c-0.7,1.6-1.7,2.8-3.1,3.6c-1.3,0.8-2.8,1.2-4.4,1.2c-2.3,0-3.9-0.7-5-2.1c-1.1-1.4-1.5-3.3-1.1-5.6c0.4-2.2,1.4-4,3-5.4
					c1.7-1.5,3.5-2.2,5.6-2.2c2.3,0,3.9,0.8,4.9,2.5C35.2,18.6,35.4,20.7,35,23.3z M31,20.6c0.1-0.8,0-1.5-0.4-2.1
					c-0.4-0.6-1-0.9-1.7-0.9c-1.6,0-2.7,1-3.4,3H31z"/>
				<path id="XMLID_114_" d="M21.4,28.2C20.5,27,20,25.6,20,23.9l0,0c0-0.6,0.1-1.2,0.2-1.9l0,0c0.4-2.3,1.5-4.3,3.3-5.8l0,0
					c1.8-1.6,3.8-2.4,6-2.4l0,0c1.2,0,2.3,0.2,3.3,0.7l0,0c0.9,0.5,1.7,1.2,2.2,2.2l0,0c0.7,1.1,1,2.5,1,4.1l0,0
					c0,0.8-0.1,1.7-0.2,2.6l0,0L35.5,24h-9.9c0,0.1,0,0.2,0,0.3l0,0c0,0.7,0.2,1,0.4,1.3l0,0c0.3,0.2,0.7,0.4,1.5,0.4l0,0
					c1,0,1.6-0.4,2.2-1.3l0,0l0.2-0.3h5.6l-0.4,1c-0.7,1.7-1.9,3-3.4,4l0,0c-1.4,0.8-3,1.3-4.7,1.3l0,0c0,0,0,0,0,0l0,0
					C24.6,30.5,22.6,29.7,21.4,28.2L21.4,28.2z M24.3,17.2c-1.6,1.4-2.5,3-2.8,5l0,0c-0.1,0.6-0.1,1.1-0.1,1.7l0,0
					c0,1.4,0.4,2.5,1.1,3.4l0,0c1,1.2,2.4,1.8,4.5,1.8l0,0c1.5,0,2.9-0.4,4-1.1l0,0c1-0.6,1.8-1.4,2.3-2.4l0,0h-2.7
					c-0.8,1-1.9,1.6-3.2,1.6l0,0c-1,0-1.8-0.2-2.4-0.8l0,0c-0.6-0.6-0.9-1.4-0.9-2.3l0,0c0-0.3,0-0.7,0.1-1.1l0,0l0.1-0.6h9.9
					c0.1-0.6,0.1-1.2,0.1-1.8l0,0c0-1.4-0.3-2.5-0.8-3.4l0,0c-0.4-0.7-1-1.3-1.7-1.6l0,0c-0.7-0.4-1.6-0.6-2.6-0.6l0,0
					C27.6,15.2,25.9,15.8,24.3,17.2L24.3,17.2z M35,23.3v-0.7V23.3L35,23.3z M24.6,21.3l0.3-0.9c0.4-1.1,0.9-1.9,1.5-2.5l0,0
					c0.7-0.6,1.6-0.9,2.5-0.9l0,0c0.9,0,1.8,0.4,2.3,1.2l0,0c0.4,0.5,0.6,1.2,0.6,1.9l0,0c0,0.2,0,0.5-0.1,0.7l0,0l-0.1,0.6H24.6
					L24.6,21.3z M31,20.6V20V20.6L31,20.6z M30.4,20c0-0.4-0.1-0.7-0.3-1l0,0c-0.3-0.4-0.6-0.6-1.2-0.6l0,0c-0.7,0-1.1,0.2-1.6,0.6
					l0,0c-0.3,0.2-0.5,0.6-0.8,1l0,0H30.4L30.4,20z"/>
			</g>
			<g id="XMLID_107_">
				<path id="XMLID_111_" class="st1" d="M50.3,29.4H45l-2.3-5.8l-1.4,1.2l-0.8,4.6h-4.4l3.4-19.9h4.4l-1.7,10.3l4.8-4.9h5.1
					l-5.9,5.5L50.3,29.4z"/>
				<path id="XMLID_108_" d="M44.5,30.1l-2.1-5.4L42,25.1l-0.8,5h-5.8L39,8.8h5.8l-1.5,9l3.5-3.5h7.2l-6.8,6.3l3.8,8.6l-0.6,0.3
					v-0.7v0.7l0.6-0.3l0.4,1H44.5L44.5,30.1z M45.5,28.7h3.8l-3.8-8.5l5-4.6h-3.1l-6.2,6.2l2-11.6h-3L37,28.7h3l0.7-4.3l2.3-2
					L45.5,28.7L45.5,28.7z"/>
			</g>
			<g id="XMLID_100_">
				<path id="XMLID_105_" class="st1" d="M60.3,23.6h-8.1l0.6-3.6h8.1L60.3,23.6z"/>
				<path id="XMLID_101_" d="M51.4,24.3l0.8-5h9.5L61,23.7l-0.1,0.6H51.4L51.4,24.3z M60.3,23.6v-0.7V23.6L60.3,23.6z M53,22.9h6.7
					l0.4-2.2h-6.7L53,22.9L53,22.9z"/>
			</g>
		</g>
	</g>
	<g id="XMLID_3_">
		<path id="XMLID_95_" d="M17.9,40.7c-0.1,0-0.3-0.1-0.3-0.3l-0.1-0.6l-0.5,0.7c-0.2,0.2-0.4,0.3-0.6,0.3c-0.2,0-0.5-0.1-0.7-0.4
			c-0.4-0.5-0.8-1.4-1.2-2.9L14.3,37c0-0.2,0.1-0.3,0.2-0.4l0.2-0.1c0.2,0.1,0.3,0.3,0.2,0.8c0.1,1.3,0.3,2.2,0.6,2.7
			c0.3,0.4,0.8-0.1,1.3-1.4l0.5-2.2c0.1-0.2,0.2-0.2,0.4-0.2l0-0.4l-0.1-0.1c0.1-0.2,0.2-0.3,0.4-0.2c0.1,0.1,0.1,0.3,0.1,0.5
			l-0.5,2.3c0.2,0,0.2,0.2,0,0.6c-0.2,0.4-0.2,0.8,0,1.3c0.2,0.4,0.8-1.2,1.6-4.6l0-0.1c0.1-0.3,0.2-0.4,0.4-0.4
			c0.1,0,0.1,0.1,0.1,0.2c0,0.1-0.2,0.9-0.6,2.6C18.9,39.3,18.4,40.3,17.9,40.7z M17.2,38.8c-0.1,0.4-0.3,0.7-0.5,1.1
			c-0.2,0.3-0.4,0.6-0.4,0.7c0.6-0.6,0.9-1.2,1-1.6L17.2,38.8L17.2,38.8z"/>
		<path id="XMLID_67_" d="M23.6,40.7c-0.2,0-0.3-0.1-0.3-0.3l-0.1-0.6l-0.5,0.7c-0.2,0.2-0.4,0.3-0.6,0.3c-0.2,0-0.5-0.1-0.7-0.4
			c-0.4-0.5-0.8-1.4-1.2-2.9L20.1,37c0-0.2,0.1-0.3,0.2-0.4l0.2-0.1c0.2,0.1,0.3,0.3,0.2,0.8c0.1,1.3,0.3,2.2,0.6,2.7
			c0.3,0.4,0.8-0.1,1.3-1.4l0.5-2.2c0.1-0.2,0.2-0.2,0.4-0.2l0-0.4l-0.1-0.1c0.1-0.2,0.2-0.3,0.4-0.2c0.1,0.1,0.1,0.3,0.1,0.5
			l-0.5,2.3c0.2,0,0.2,0.2,0,0.6c-0.2,0.4-0.2,0.8,0,1.3c0.2,0.4,0.8-1.2,1.6-4.6l0-0.1c0.1-0.3,0.2-0.4,0.4-0.4
			c0.1,0,0.1,0.1,0.1,0.2c0,0.1-0.2,0.9-0.6,2.6C24.7,39.3,24.2,40.3,23.6,40.7z M23,38.8c-0.1,0.4-0.3,0.7-0.5,1.1
			c-0.2,0.3-0.4,0.6-0.4,0.7c0.6-0.6,0.9-1.2,1-1.6L23,38.8L23,38.8z"/>
		<path id="XMLID_64_" d="M29.3,40.7c-0.2,0-0.3-0.1-0.3-0.3l-0.1-0.6l-0.5,0.7c-0.2,0.2-0.4,0.3-0.6,0.3c-0.2,0-0.5-0.1-0.7-0.4
			c-0.5-0.5-0.8-1.4-1.2-2.9L25.8,37c0-0.2,0.1-0.3,0.2-0.4l0.2-0.1c0.2,0.1,0.3,0.3,0.2,0.8c0.1,1.3,0.3,2.2,0.6,2.7
			c0.3,0.4,0.8-0.1,1.3-1.4l0.5-2.2c0.1-0.2,0.2-0.2,0.4-0.2l0-0.4l-0.1-0.1c0.1-0.2,0.2-0.3,0.4-0.2c0.1,0.1,0.1,0.3,0.1,0.5
			l-0.5,2.3c0.2,0,0.1,0.2,0,0.6c-0.2,0.4-0.2,0.8,0,1.3c0.2,0.4,0.8-1.2,1.6-4.6l0-0.1c0.1-0.3,0.2-0.4,0.4-0.4
			c0.1,0,0.1,0.1,0.1,0.2c0,0.1-0.2,0.9-0.6,2.6C30.4,39.3,29.9,40.3,29.3,40.7z M28.7,38.8c-0.1,0.4-0.3,0.7-0.5,1.1
			c-0.2,0.3-0.4,0.6-0.4,0.7c0.6-0.6,0.9-1.2,1-1.6L28.7,38.8L28.7,38.8z"/>
		<path id="XMLID_62_" d="M32.3,39.7c0.1-0.1,0.2-0.1,0.2-0.1h0c0,0,0.1,0.1,0.1,0.1l0,0.2c0.1,0,0.1,0.1,0.2,0.2c0,0.1,0,0.2,0,0.2
			c-0.2,0.4-0.4,0.6-0.6,0.6l-0.2,0l-0.1,0c-0.1,0-0.1-0.1-0.1-0.2l0.3-0.6c0-0.1,0.1-0.1,0.1-0.2L32.3,39.7z"/>
		<path id="XMLID_57_" d="M38.8,32c0.1,0,0.2,0.2,0.2,0.5c0,0.2,0,0.5-0.1,0.9c-0.1,0.9-0.3,2.5-0.4,4.7c0,0.1,0.1,0.1,0.1,0.2
			L38.4,39c0,0.3,0.1,0.7,0.1,1c0.1,0.3,0.2,0.5,0.2,0.9c-0.2,0-0.3-0.1-0.5-0.3l-0.1,0.2L38,40.8c-0.2-0.2-0.2-0.7,0-1.4l-0.3,0.3
			c-0.1,0.2-0.3,0.4-0.6,0.6c-0.3,0.2-0.7,0.4-1.1,0.5c-0.1,0-0.2,0-0.3,0c-0.3,0-0.7-0.1-1.2-0.4c-0.2-0.2-0.4-0.3-0.6-0.6
			c-0.2-0.3-0.4-0.8-0.4-1.3c0-0.1,0-0.3,0-0.4c0.3-1,0.9-1.6,1.8-1.9c0.7-0.1,1.3-0.1,1.8,0.2c0.4,0.3,0.7,0.9,0.8,1.6
			c0.2-2.4,0.3-4.3,0.3-5.5C38.4,32.3,38.5,32.1,38.8,32z M34.1,38c-0.2,0.9,0.1,1.4,0.6,1.8c0.9,0.4,2,0.1,3.1-1
			c-0.2-0.8-0.5-1.3-0.9-1.6C35.7,36.4,34.7,36.6,34.1,38z M36.8,39.9c-0.6,0.4-1.4,0.5-2.2,0.2c0.5,0.3,1,0.4,1.4,0.3l0.5-0.2
			L36.8,39.9z M35.9,36.4l0.4,0.1l0.7,0.3c0-0.1-0.1-0.3-0.2-0.3C36.5,36.4,36.2,36.4,35.9,36.4z"/>
		<path id="XMLID_54_" d="M41.4,35.8c0.8,0.1,1.3,0.4,1.6,0.9c0.1,0.1,0,0.3-0.1,0.4c-0.1,0.3-0.5,0.6-1.1,0.7l-0.4,0
			c-0.6,0.1-1.2,0.2-1.7,0.3v0.1c0,0.9,0.1,1.5,0.4,1.7c0.3,0.3,0.6,0.4,0.9,0.4c0.6,0,1.2-0.4,2-1.1l0.1-0.1c0,0,0.1,0.1,0.1,0.1
			l-0.1,0.2l0.1-0.1c0.1,0,0.1,0,0.2,0c0,0,0,0.1,0.1,0.1c0,0.1-0.1,0.2-0.2,0.2c-0.9,0.7-1.7,1.1-2.3,1.1c-0.4,0-0.7-0.1-1-0.4
			c-0.4-0.2-0.5-0.8-0.5-1.8c0-0.2,0-0.5,0-0.8l0.1-0.2c0.1-0.6,0.4-1.1,0.6-1.5c0.3-0.3,0.7-0.5,1.1-0.5
			C41.3,35.8,41.4,35.8,41.4,35.8z M40,37.3l-0.2,0.5c1.3-0.2,2.1-0.4,2.6-0.6l0.2-0.1c-0.3-0.6-0.6-0.9-1-0.9
			C40.8,36.2,40.3,36.6,40,37.3z"/>
		<path id="XMLID_51_" d="M44.4,33.5l0,0.3c0,0.1,0,0.2,0.1,0.3v-0.2l0.2-0.1l0.1,0.2L44.7,35v0.6l0.2,1.6l0.8-0.3
			c1-0.6,1.8-1,2.3-1.1c0.1,0.1,0.1,0.2,0,0.2c-0.1,0-0.2,0.1-0.3,0.2l-0.8,0.4c-0.1,0.1-0.3,0.1-0.4,0.2l-1.1,0.7
			c-0.1,0-0.1,0.1-0.2,0.2l0.2,0c1.3,0.6,2.2,1.2,2.7,1.6l0.3,0.3c0,0.2-0.1,0.3-0.3,0.3l-0.3,0l-0.5-0.3l-1.8-1.3L45,38.1l0,0.1
			c0.1,1.1,0.1,2,0,2.8c-0.1,0.1-0.2,0.1-0.3,0.1L44.7,41c-0.2-0.1-0.2-0.2-0.3-0.4c0.1-0.5,0.1-1.2,0-2.3c-0.2,0-0.3,0-0.4-0.1
			c0-0.1,0.1-0.2,0.3-0.4l0-2.2c-0.1-0.7-0.2-1.3-0.2-1.7C44.1,33.7,44.2,33.5,44.4,33.5z M46.4,38.5c0.2,0.2,0.6,0.5,1.3,0.9
			C47.2,39,46.7,38.7,46.4,38.5z"/>
		<path id="XMLID_49_" d="M49.2,37.2C49.2,37.2,49.2,37.2,49.2,37.2c0.1,0,0.2,0,0.2,0c0.1,0,0.4,0,1.1,0c0.7,0,1.2,0,1.7,0.1h0v0
			l0.3-0.1c0.1,0.1,0.2,0.1,0.2,0.2c0,0-0.1,0.1-0.2,0.1l0,0c0,0.1,0.1,0.1,0.1,0.2c0,0,0,0.1,0,0.1c-0.1,0-0.3,0-0.5,0
			c-0.3,0-0.5-0.1-0.6-0.1c-0.1,0-1,0.1-2.5,0.3c-0.1,0-0.1-0.1-0.1-0.1c0,0,0-0.1,0.1-0.1l0.1-0.1l0.6-0.1l0.1,0l-0.2,0
			c-0.2-0.1-0.3-0.1-0.3-0.1c0,0-0.1,0-0.1-0.1C49.1,37.4,49.1,37.3,49.2,37.2C49.1,37.3,49.1,37.2,49.2,37.2z"/>
		<path id="XMLID_44_" d="M58.8,32c0.1,0,0.2,0.2,0.2,0.5c0,0.2,0,0.5-0.1,0.9c-0.1,0.9-0.3,2.5-0.4,4.7c0,0.1,0.1,0.1,0.1,0.2
			L58.4,39c0,0.3,0.1,0.7,0.1,1c0.1,0.3,0.2,0.5,0.2,0.9c-0.2,0-0.3-0.1-0.5-0.3l-0.1,0.2L58,40.8c-0.2-0.2-0.2-0.7-0.1-1.4
			l-0.3,0.3c-0.1,0.2-0.3,0.4-0.6,0.6c-0.3,0.2-0.7,0.4-1.1,0.5c-0.1,0-0.2,0-0.3,0c-0.3,0-0.7-0.1-1.2-0.4
			c-0.2-0.2-0.4-0.3-0.6-0.6c-0.2-0.3-0.4-0.8-0.4-1.3c0-0.1,0-0.3,0-0.4c0.2-1,0.9-1.6,1.8-1.9c0.7-0.1,1.3-0.1,1.8,0.2
			c0.4,0.3,0.7,0.9,0.8,1.6c0.2-2.4,0.3-4.3,0.3-5.5C58.4,32.3,58.5,32.1,58.8,32z M54.1,38c-0.2,0.9,0.1,1.4,0.6,1.8
			c0.9,0.4,2,0.1,3.1-1c-0.2-0.8-0.5-1.3-0.9-1.6C55.7,36.4,54.8,36.6,54.1,38z M56.8,39.9c-0.6,0.4-1.4,0.5-2.2,0.2
			c0.5,0.3,1,0.4,1.4,0.3l0.5-0.2L56.8,39.9z M55.9,36.4l0.4,0.1l0.7,0.3c0-0.1-0.1-0.3-0.2-0.3C56.5,36.4,56.2,36.4,55.9,36.4z"/>
		<path id="XMLID_16_" d="M60.1,39.7c0.1-0.1,0.2-0.1,0.2-0.1h0c0,0,0.1,0.1,0.1,0.1l0,0.2c0.1,0,0.1,0.1,0.2,0.2c0,0.1,0,0.2,0,0.2
			c-0.2,0.4-0.4,0.6-0.7,0.6l-0.2,0l-0.1,0c-0.1,0-0.1-0.1-0.1-0.2l0.3-0.6c0-0.1,0.1-0.1,0.1-0.2L60.1,39.7z"/>
		<path id="XMLID_13_" d="M64.3,35.6c0.7,0,1,0.3,1.2,0.8c0,0.5,0,0.8-0.1,0.9c-0.1,0.1-0.2,0.1-0.3-0.1c0-0.5-0.2-0.8-0.5-1
			c-0.5-0.3-1.1-0.1-1.8,0.5c-0.6,0.6-0.9,1.2-0.9,1.5c-0.2,1.3,0.1,1.9,0.8,2c0.1,0,0.3,0,0.4,0c0.8-0.1,1.4-0.4,1.9-1l0.2-0.3
			c0.1,0,0.1-0.1,0.2-0.1c0,0,0.1,0.1,0.1,0.1c0,0.1-0.1,0.2-0.2,0.3L65,39.7l0.1,0.1c0,0.1-0.1,0.2-0.2,0.3
			c-0.5,0.5-1.1,0.7-1.7,0.7c-0.1,0-0.4,0-0.8-0.1c-0.4-0.1-0.7-0.3-0.9-0.8c-0.1-0.2-0.1-0.4-0.1-0.7c0-0.5,0.1-1.1,0.4-1.8
			c0.6-0.9,1.3-1.5,2.2-1.8L64.3,35.6z M64.7,36l0.3,0.2l0.2,0.2c0-0.1-0.1-0.2-0.2-0.3C64.9,36.1,64.8,36,64.7,36z"/>
		<path id="XMLID_9_" d="M68.9,35.9c0.5-0.2,0.8-0.3,1-0.3c0,0,0.1,0,0.1,0c0.2,0,0.3,0.1,0.4,0.2c0,0.1-0.1,0.2-0.1,0.2l-0.3,0
			l-0.4,0L69.2,36l-0.2,0.2c0.6-0.1,1-0.1,1.4,0.1c0.4,0.2,0.6,0.6,0.6,1.2c0,0.2,0,0.5-0.1,0.9c-0.2,0.9-0.8,1.5-1.7,2
			c-0.1,0-0.1,0.1-0.2,0.1c0.3,0,0.5-0.1,0.8-0.2c0.1,0,0.2,0,0.3,0.1c0,0.1-0.1,0.2-0.2,0.3c-0.3,0.2-0.7,0.2-1.1,0.2h-0.2
			c-0.2,0-0.4,0-0.5,0l-0.4,0.1h-0.1c-0.7,0-1.1-0.2-1.3-0.6c-0.1-0.2-0.1-0.4-0.1-0.6c0.1-0.8,0.5-1.5,1-2.2
			C67.7,36.7,68.3,36.1,68.9,35.9z M66.8,38.8c-0.3,0.4-0.4,0.8-0.3,1.1c0.1,0.3,0.2,0.5,0.6,0.6C66.8,40,66.7,39.4,66.8,38.8z
			 M69.3,36.5c-1.4,0.5-2.1,1.2-2.1,2.3c-0.1,0.5,0,0.9,0.1,1.2c0.1,0.3,0.3,0.4,0.6,0.4l0.4-0.1c1-0.4,1.7-1,2-1.7
			c0.3-0.6,0.4-1.2,0.1-1.9l-0.2-0.1c0,0.2-0.1,0.3-0.3,0.2l-0.1-0.1C69.9,36.6,69.7,36.5,69.3,36.5z"/>
		<path id="XMLID_4_" d="M72,35.6c0.2,0.1,0.2,0.2,0.2,0.5l0.1,1.9l0,0.1l0,0.7l0.2-0.3l0.4-1.1c0.2-0.6,0.5-1,0.9-1.4
			c0.1-0.2,0.3-0.2,0.5-0.2c0.2,0.1,0.3,0.2,0.3,0.4l0,1.2l0.1-0.1l0.3-0.5c0.1-0.2,0.2-0.3,0.4-0.4c0.4,0,0.7,0.1,0.7,0.5v0.1
			c0,0.5-0.1,0.9-0.2,1.3L76,39.6c0,0.2-0.1,0.4-0.1,0.7c-0.1,0.3-0.2,0.4-0.4,0.5l0.1-0.4l0.1-0.6c-0.1,0.3-0.2,0.4-0.3,0.3l0-0.3
			l0.5-1.5c0.1-0.2,0.1-0.5,0.2-0.8c0.1-0.3,0-0.5-0.2-0.5c-0.1,0-0.2,0.1-0.3,0.1c-0.4,0.4-0.6,1-0.8,1.7c-0.2,0.7-0.3,1.1-0.3,1.3
			c0,0.1-0.1,0.2-0.3,0.2l-0.2-0.1c0.1-0.7,0.2-1.8,0.3-3.2c0-0.3-0.1-0.4-0.3-0.4c-0.2,0-0.3,0.4-0.5,1c-0.4,2.6-0.7,4-1,4l0-0.5
			l-0.3,0.1L72,40.9l0-0.3c-0.2-1.9-0.2-3.2-0.2-4C71.9,35.9,71.9,35.6,72,35.6L72,35.6z M72.6,40.1c0.1-0.1,0.1-0.3,0.1-0.6
			C72.6,39.7,72.5,39.9,72.6,40.1z M74.2,36.1l-0.1,0.1l0.2,0.1C74.4,36.3,74.3,36.2,74.2,36.1z M76,36.8L76,36.8L76,36.8L76,36.8z"
			/>
	</g>
</g>
<g id="XMLID_343_">
</g>
<g id="XMLID_344_">
</g>
<g id="XMLID_345_">
</g>
<g id="XMLID_346_">
</g>
<g id="XMLID_347_">
</g>
<g id="XMLID_348_">
</g>
</svg>
