<?xml version="1.0" encoding="utf-8"?>
<!-- Generator: Adobe Illustrator 19.0.0, SVG Export Plug-In . SVG Version: 6.00 Build 0)  -->
<svg version="1.0" id="Layer_1" xmlns="http://www.w3.org/2000/svg" xmlns:xlink="http://www.w3.org/1999/xlink" x="0px" y="0px"
	 viewBox="0 0 126 18.1" style="enable-background:new 0 0 126 18.1;" xml:space="preserve">
<style type="text/css">
	.st0{fill:#39B54A;}
	.st1{fill:#E04145;}
	.st2{fill:#0088C6;}
</style>
<g id="XMLID_2_">
	<path id="XMLID_97_" class="st0" d="M66.3,0v7.4c0,1.1-0.7,1.7-2,1.7c-0.7,0-1.2-0.2-1.7-0.7l-6.1-6.7v7.4h-2V1.7
		c0-1.1,0.7-1.7,2-1.7c0.7,0,1.2,0.2,1.7,0.7l6.1,6.7V0H66.3z"/>
	<path id="XMLID_95_" class="st0" d="M70.3,0v7c0,0.2,0.1,0.3,0.3,0.3h9.4v1.7h-9.8c-1.4,0-2-0.6-2-1.7V0H70.3z"/>
	<path id="XMLID_68_" class="st0" d="M83.4,0v9h-2V0H83.4z"/>
	<path id="XMLID_66_" class="st0" d="M97.5,0v7.4c0,1.1-0.7,1.7-2,1.7c-0.7,0-1.2-0.2-1.7-0.7l-6.1-6.7v7.4h-2V1.7
		c0-1.1,0.7-1.7,2-1.7c0.7,0,1.2,0.2,1.7,0.7l6.1,6.7V0H97.5z"/>
	<path id="XMLID_64_" class="st0" d="M11.8,0v1.7H2.4C2.1,1.7,2,1.8,2,2v5c0,0.2,0.1,0.3,0.3,0.3h7.4V5H5.9V3.4h5.9v4
		c0,1.1-0.7,1.7-2,1.7H2c-1.4,0-2-0.6-2-1.7V1.7C0,0.6,0.7,0,2,0H11.8z"/>
	<path id="XMLID_63_" class="st0" d="M25.9,9.1l-3.7-4h0.9v0h0.5c1.4,0,2-0.6,2-1.7V1.8h0V1.7c0-1.1-0.7-1.7-2-1.7h-9.8v1.7h9.4
		c0.2,0,0.3,0.1,0.3,0.3v1c0,0.2-0.1,0.3-0.3,0.3h-9.4v5.7h2v-4h3.8l3.7,4H25.9z"/>
	<g id="XMLID_56_">
		<g id="XMLID_58_">
			<polygon id="XMLID_62_" class="st0" points="29.3,5 29.3,5 29.3,3.4 			"/>
			<path id="XMLID_59_" class="st0" d="M29.3,5V2c0-0.2,0.1-0.3,0.3-0.3h9.4V0h-9.8c-1.4,0-2,0.6-2,1.7v5.7c0,1.1,0.7,1.7,2,1.7h9.8
				V7.4h-9.4c-0.2,0-0.3-0.1-0.3-0.3V5.5V5z M29.3,5V3.4V5L29.3,5z"/>
		</g>
		<rect id="XMLID_57_" x="30.8" y="3.7" class="st0" width="8.3" height="1.7"/>
	</g>
	<g id="XMLID_49_">
		<g id="XMLID_51_">
			<polygon id="XMLID_55_" class="st0" points="43,5 43,5 43,3.4 			"/>
			<path id="XMLID_52_" class="st0" d="M43,5V2c0-0.2,0.1-0.3,0.3-0.3h9.4V0H43c-1.4,0-2,0.6-2,1.7v5.7c0,1.1,0.7,1.7,2,1.7h9.8V7.4
				h-9.4C43.1,7.4,43,7.3,43,7V5.5V5z M43,5V3.4V5L43,5z"/>
		</g>
		<rect id="XMLID_50_" x="44.4" y="3.7" class="st0" width="8.3" height="1.7"/>
	</g>
	<g id="XMLID_44_">
		<polygon id="XMLID_48_" class="st0" points="101.2,5 101.3,5 101.2,3.4 		"/>
		<path id="XMLID_45_" class="st0" d="M101.3,5V2c0-0.2,0.1-0.3,0.3-0.3h9.4V0h-9.8c-1.4,0-2,0.6-2,1.7v5.7c0,1.1,0.7,1.7,2,1.7h9.8
			V7.4h-9.4c-0.2,0-0.3-0.1-0.3-0.3V5.5V5z M101.2,5V3.4V5L101.2,5z"/>
	</g>
	<g id="XMLID_14_">
		<polygon id="XMLID_17_" class="st1" points="112.5,0.4 119,4.5 112.5,8.7 		"/>
		<polygon id="XMLID_16_" class="st1" points="119.5,0.4 126,4.5 119.5,8.7 		"/>
		<rect id="XMLID_15_" x="102.7" y="3.7" class="st1" width="8.3" height="1.7"/>
	</g>
	<path id="XMLID_13_" class="st2" d="M92.2,18.1l-2.5-2.7h0.6v0h0.4c0.9,0,1.4-0.4,1.4-1.1v-1.1h0v0c0-0.7-0.5-1.1-1.3-1.1h-6.5v1.1
		h6.3c0.2,0,0.2,0.1,0.2,0.2v0.7c0,0.1-0.1,0.2-0.2,0.2h-6.3v3.8h1.4v-2.7H88l2.5,2.7H92.2z"/>
	<path id="XMLID_11_" class="st2" d="M55.2,12.1h1.8l2.1,2.2l2.1-2.2H63l-3.2,3.4v2.7h-1.4v-2.7L55.2,12.1z"/>
	<path id="XMLID_9_" class="st2" d="M71.8,12.1V17c0,0.7-0.4,1.1-1.3,1.1c-0.4,0-0.8-0.2-1.1-0.4l-4-4.5v4.9H64v-4.9
		c0-0.7,0.4-1.1,1.3-1.1c0.4,0,0.8,0.1,1.1,0.4l4,4.5v-4.9H71.8z"/>
	<path id="XMLID_7_" class="st2" d="M101.7,12.1v1.1h-6.2c-0.1,0-0.2,0.1-0.2,0.2v3.4c0,0.2,0.1,0.2,0.2,0.2h4.9v-1.6h-2.6v-1.1h3.9
		V17c0,0.7-0.4,1.1-1.3,1.1h-5.1c-0.9,0-1.3-0.4-1.3-1.1v-3.8c0-0.7,0.4-1.1,1.3-1.1H101.7z"/>
	<path id="XMLID_5_" class="st2" d="M103.2,12.1h1.8l2.1,2.2l2.1-2.2h1.8l-3.2,3.4v2.7h-1.3v-2.7L103.2,12.1z"/>
	<path id="XMLID_4_" class="st2" d="M75.5,13.2h6.3v-1.1h-6.5c-0.9,0-1.4,0.4-1.4,1.1V17c0,0.7,0.5,1.1,1.4,1.1h6.5V17h-6.3
		c-0.2,0-0.2-0.1-0.2-0.2v-1.1v-0.1h6.5v-1.1h-6.5v-1.1C75.3,13.3,75.4,13.2,75.5,13.2z"/>
	<path id="XMLID_3_" class="st2" d="M52.7,14.3h-2.2l0,0h-2.7c-0.1,0-0.2-0.1-0.2-0.2v-0.7c0-0.1,0-0.1,0-0.2c0,0,0.1-0.1,0.2-0.1
		h4.2l1.3,0H54v-1.1h-2.6h-1.9h-2.1c-0.8,0-1.2,0.3-1.3,0.9c0,0.1,0,0.2,0,0.3v1.1c0,0.7,0.4,1.1,1.3,1.1h1.1v0h3.8
		c0.1,0,0.2,0.1,0.2,0.2v0.8v0.1v0.1c0,0.1,0,0.1-0.1,0.2c0,0-0.1,0.1-0.2,0.1h-6.1v0h-0.2v1.1h0.2l0,0h1.2v0h5.1
		c0.8,0,1.2-0.3,1.3-0.9c0-0.1,0-0.2,0-0.3v-0.4v-0.1v-1C54,14.7,53.6,14.3,52.7,14.3z"/>
</g>
<g id="XMLID_164_">
</g>
<g id="XMLID_165_">
</g>
<g id="XMLID_166_">
</g>
<g id="XMLID_167_">
</g>
<g id="XMLID_168_">
</g>
<g id="XMLID_169_">
</g>
</svg>
