<?xml version="1.0" encoding="utf-8"?>
<!-- Generator: Adobe Illustrator 19.0.0, SVG Export Plug-In . SVG Version: 6.00 Build 0)  -->
<svg version="1.0" id="Layer_1" xmlns="http://www.w3.org/2000/svg" xmlns:xlink="http://www.w3.org/1999/xlink" x="0px" y="0px"
	 viewBox="0 0 68 38.1" style="enable-background:new 0 0 68 38.1;" xml:space="preserve">
<style type="text/css">
	.st0{fill-rule:evenodd;clip-rule:evenodd;fill:#FFFFFF;}
	.st1{fill-rule:evenodd;clip-rule:evenodd;fill:#0081C6;}
</style>
<g id="XMLID_209_">
	<rect id="XMLID_364_" x="0" y="0" class="st0" width="68" height="38.1"/>
	<path id="XMLID_210_" class="st1" d="M2,1.9h64.3v34.3H2V1.9z M63.7,8.4c0,0.6-0.2,1-0.6,1.4c-0.4,0.4-0.9,0.6-1.4,0.6
		c-0.5,0-1-0.2-1.4-0.6c-0.4-0.4-0.6-0.9-0.6-1.4c0-0.5,0.2-1,0.6-1.4c0.4-0.4,0.9-0.6,1.4-0.6c0.5,0,1,0.2,1.4,0.6
		C63.5,7.4,63.7,7.9,63.7,8.4z M63.4,8.4c0-0.5-0.2-0.9-0.5-1.2c-0.3-0.3-0.7-0.5-1.2-0.5c-0.4,0-0.8,0.2-1.2,0.5
		c-0.3,0.3-0.5,0.7-0.5,1.2c0,0.5,0.2,0.8,0.5,1.2c0.3,0.3,0.7,0.5,1.2,0.5c0.4,0,0.8-0.2,1.2-0.5C63.2,9.3,63.4,8.9,63.4,8.4z
		 M62.4,9.1l0.3,0.4h-0.4L62,9.2c-0.1-0.2-0.2-0.4-0.3-0.5c0,0,0,0,0,0c-0.1-0.1-0.2-0.1-0.3-0.1h-0.2v0.9h-0.3V7.4h0.7
		c0,0,0.1,0,0.1,0c0.5,0,0.8,0.2,0.8,0.6c0,0.2-0.1,0.3-0.2,0.4c-0.1,0.1-0.3,0.2-0.5,0.2C62,8.6,62.2,8.8,62.4,9.1z M61.7,8.3
		c0.3,0,0.4-0.1,0.4-0.3c0-0.2-0.1-0.3-0.4-0.3h-0.5v0.7h0.4C61.7,8.3,61.7,8.3,61.7,8.3z M62.8,16.6c-0.4,0-0.7-0.1-1.1-0.1
		c-0.3,0-0.6,0-0.8,0l0,0.5c0.4,0,0.7,0,0.9,0.2c0.2,0.1,0.2,0.3,0.1,0.6l-0.1,1.2l-0.4,3.2c-0.1,0.5-0.3,0.8-0.5,1
		c-0.2,0.2-0.4,0.2-0.5-0.1c-0.3-1.7-0.6-3.4-0.8-5.1c-0.2-0.6,0.1-1,0.9-1v-0.4c-1.4,0.1-2.7,0.1-4,0c0,0-0.1,0-0.1,0v0.5h0.1
		c0.5,0,0.7,0.3,0.8,1c0.1,1,0.3,2.1,0.5,3.1c0.2,1,0.4,2.1,0.7,3.1c0.2,0.7,0.6,1,1,0.9c0.4-0.1,1-0.5,1.5-1
		c-0.3,2.9-1.3,3.9-3.2,3l-0.4,0.5c2,1.1,3.5,1.1,4.4-0.2c0.1-0.1,0.2-0.2,0.2-0.3c0.2-0.3,0.3-0.8,0.5-1.5c0.1-0.7,0.3-1.4,0.5-2.3
		c0.1-0.9,0.3-1.8,0.5-2.7c0.2-0.9,0.4-1.9,0.6-2.7c0-0.4,0.3-0.6,0.9-0.8l0-0.4C64.2,16.6,63.5,16.6,62.8,16.6z M56.4,20.4
		c0,0.4,0,0.9-0.1,1.2c0,0.3-0.1,0.6-0.1,0.9c-0.1,0.7-0.4,1.2-0.8,1.6c-0.4,0.4-0.8,0.7-1.3,0.8c-0.5,0.1-1,0.2-1.5,0.2h0
		c-0.5,0-1.1-0.1-1.6-0.2c-0.5-0.1-1-0.4-1.4-0.8c-0.4-0.4-0.6-0.9-0.7-1.5c-0.1-0.6-0.1-1.3-0.1-2c0-0.7,0-1.3,0.1-1.9
		c0.1-0.6,0.3-1.1,0.6-1.5c0.4-0.4,0.8-0.7,1.4-0.9c0.5-0.1,1-0.2,1.6-0.2h0c0.5,0,1.1,0.1,1.7,0.3c0.6,0.2,1,0.5,1.2,0.7
		c0.4,0.5,0.6,0.9,0.7,1.5c0,0.2,0.1,0.3,0.1,0.5C56.4,19.5,56.4,19.9,56.4,20.4z M53.9,19.3c0-0.5-0.1-0.9-0.2-1.4
		c0-0.2-0.1-0.4-0.3-0.6c-0.2-0.2-0.4-0.3-0.7-0.3h0c-0.3,0-0.6,0.1-0.7,0.4c-0.2,0.2-0.3,0.5-0.3,0.6c-0.1,0.5-0.2,1.4-0.2,2.7
		c0,0.4,0,0.8,0,1.2c0,0.4,0.1,0.8,0.1,1.2c0,0.3,0.1,0.6,0.3,0.9c0.2,0.3,0.5,0.3,0.8,0.3h0c0.3-0.1,0.6-0.2,0.7-0.4
		c0.2-0.2,0.3-0.4,0.3-0.6c0.1-0.8,0.2-1.7,0.2-2.5C53.9,20.3,53.9,19.8,53.9,19.3z M46.9,16.2c-0.4-0.1-0.9-0.2-1.5-0.2
		c-1.2,0.1-2,0.5-2.5,1.2c-0.3,0.4-0.5,0.7-0.6,1.2c-0.1,0.4-0.1,0.9,0,1.4c0.1,0.6,0.3,1.1,0.8,1.3c0.5,0.2,1.1,0.3,1.9,0.3
		c1,0,1.4,0.6,1.1,1.8c-0.2,0.5-0.4,0.9-0.9,1c-0.4,0.1-0.8-0.1-1-0.8l-0.1-1.3h-1.9v2.4c0.9,0.5,1.9,0.7,3.2,0.6
		c1.8-0.3,2.7-1.4,2.7-3.4c0-0.8-0.2-1.4-0.6-1.7c-0.4-0.3-1.2-0.5-2.5-0.6c-0.8,0-1-0.6-0.7-1.6c0.1-0.6,0.4-0.9,0.9-0.9
		c0.5,0,0.7,0.3,0.8,0.9l0,0.9h1.8v-2.1C47.8,16.5,47.4,16.4,46.9,16.2z M42,24.4v0.6c-0.3,0-0.6-0.1-1-0.1c-0.4,0-0.7,0-1.1,0
		c-0.3,0-0.7,0-0.9,0c-0.3,0-0.4,0-0.4,0l0-0.6c-0.3,0.2-0.7,0.4-1,0.5c-0.9,0.3-1.8,0.2-2.7-0.2c-0.4-0.3-0.6-0.6-0.7-1
		C34.1,23.3,34,23,34,22.9c0-0.3,0-0.6,0-0.9c0-0.3,0-0.5,0.1-0.7c0.1-0.3,0.2-0.5,0.3-0.7c0.1-0.2,0.3-0.4,0.6-0.6
		c0.2-0.1,0.4-0.2,0.7-0.3c0.3-0.1,0.8-0.1,1.5-0.1c0.1,0,0.3,0,0.4,0.1c0.1,0,0.2,0,0.3,0.1c0.2,0.1,0.4,0.1,0.6,0.2v-2.3
		c0-0.2,0-0.4-0.2-0.6c-0.2-0.2-0.4-0.3-0.7-0.3h-0.1c-0.2,0-0.4,0-0.5,0.1c-0.1,0.1-0.2,0.1-0.2,0.2c-0.1,0.1-0.2,0.3-0.2,0.7V19
		h-2.1c0.1-0.9,0.2-1.6,0.1-2.4l1.1-0.2l1.8-0.2h0.1c0.7,0,1.4,0,1.9,0.2c0.5,0.2,0.8,0.3,1,0.6c0.2,0.2,0.4,0.5,0.4,0.8v6.2
		c0,0.3,0.1,0.4,0.2,0.5C41.4,24.5,41.6,24.5,42,24.4z M38.8,21.8c0-0.2-0.1-0.5-0.1-0.7c0,0-0.1-0.1-0.2-0.3
		c-0.1-0.1-0.3-0.2-0.4-0.2c-0.1,0-0.3,0-0.4,0c-0.2,0-0.4,0.1-0.6,0.2c-0.3,0.2-0.5,0.5-0.5,0.9c-0.1,0.5-0.1,1,0,1.5
		c0,0.3,0.1,0.5,0.3,0.7c0.1,0.1,0.1,0.1,0.2,0.2c0.1,0.1,0.2,0.1,0.3,0.1c0.1,0,0.1,0,0.2,0c0.1,0,0.2,0,0.3-0.1
		c0.1-0.1,0.2-0.1,0.3-0.2c0.1-0.1,0.2-0.2,0.3-0.3c0-0.1,0.1-0.2,0.1-0.3c0.1-0.2,0.1-0.5,0.1-1C38.8,22.2,38.8,22,38.8,21.8z
		 M31.5,13.6L30.3,14c-0.4,0.1-0.6,0.2-0.5,0.5v1.4h-1.1v0.9h0.6c0.3,0,0.5,0.2,0.5,0.3l0,0.3l0,6.7c0.3,0.8,0.8,1.1,1.7,1.1
		c0.9,0,1.6-0.4,2.4-1l-0.5-0.5c-0.3,0.3-0.6,0.4-0.8,0.4c-0.2,0-0.3-0.2-0.3-0.6l0-6.1c0-0.5,0.1-0.6,0.4-0.6h1.1v-0.9h-1.6v-2.1
		C32.2,13.5,31.9,13.5,31.5,13.6z M28.3,21.8h-1.9l-0.1,1.3c0,0.9-0.3,1.3-0.8,1.3c-0.5,0-0.9-0.4-1-1.2c-0.3-2-0.3-3.7,0-5.3
		c0.1-0.6,0.4-1,0.9-1c0.5,0,0.8,0.3,0.8,0.8c0.1,0.5,0.1,0.9,0,1.4h1.9c0-0.4,0-0.7,0-1.1c0-0.4,0-0.8,0.1-1.1
		c-2.3-1.1-4.1-1-5.4,0.1c-0.4,0.4-0.6,0.9-0.7,1.5C22.1,18.8,22,19,22,19.3c-0.1,0.4-0.1,0.8-0.1,1.3c0,0.5,0,0.9,0.1,1.3
		c0,0.4,0.1,0.7,0.2,1c0.2,0.6,0.4,1.1,0.7,1.3c0.7,0.6,1.5,0.9,2.4,0.9c0.9,0,1.9-0.2,3-0.7C28.2,23.6,28.2,22.7,28.3,21.8z
		 M22,24.4v0.6H22c-0.3,0-0.5-0.1-0.9-0.1c-0.4,0-0.7,0-1.1,0c-0.3,0-0.6,0-0.9,0c-0.2,0-0.4,0-0.4,0l0-0.6c-0.3,0.2-0.6,0.4-1,0.5
		c-0.9,0.3-1.8,0.2-2.7-0.3c-0.4-0.3-0.6-0.6-0.7-1c-0.1-0.4-0.2-0.7-0.2-0.8c0-0.3,0-0.5,0-0.8c0-0.3,0-0.5,0.1-0.7
		c0.1-0.2,0.2-0.5,0.3-0.7c0.1-0.2,0.3-0.4,0.6-0.5c0.2-0.1,0.4-0.2,0.7-0.3c0.3-0.1,0.8-0.1,1.4-0.1c0.1,0,0.3,0,0.4,0.1
		c0.1,0,0.2,0,0.2,0.1c0.2,0.1,0.4,0.1,0.6,0.2v-2.3c0-0.2,0-0.4-0.2-0.5c-0.2-0.2-0.4-0.2-0.7-0.3h-0.1c-0.2,0-0.4,0-0.5,0.1
		c-0.1,0.1-0.2,0.1-0.2,0.2c-0.1,0.2-0.2,0.3-0.2,0.7V19h-2c0.1-0.8,0.2-1.6,0.1-2.4l1.1-0.2l1.8-0.2h0.1c0.7,0,1.3,0,1.9,0.2
		c0.4,0.2,0.8,0.3,1,0.6c0.2,0.2,0.3,0.5,0.4,0.8v6.1c0,0.3,0.1,0.4,0.3,0.5C21.4,24.5,21.7,24.5,22,24.4C22,24.4,22,24.4,22,24.4z
		 M18.9,21.8c0-0.2-0.1-0.5-0.2-0.7c0,0-0.1-0.1-0.2-0.2c-0.1-0.1-0.3-0.2-0.4-0.2c-0.1,0-0.3-0.1-0.4-0.1c-0.2,0-0.4,0.1-0.6,0.2
		c-0.3,0.2-0.5,0.5-0.5,0.9c-0.1,0.5-0.1,1,0,1.5c0,0.3,0.1,0.5,0.3,0.7c0.1,0.1,0.2,0.1,0.2,0.2c0.1,0.1,0.2,0.1,0.3,0.1
		c0.1,0,0.2,0,0.2,0c0.1,0,0.2,0,0.3-0.1c0.1-0.1,0.2-0.1,0.3-0.2c0.1-0.1,0.2-0.2,0.3-0.3c0-0.1,0.1-0.2,0.1-0.3
		c0.1-0.2,0.1-0.5,0.1-1C18.9,22.2,18.9,22,18.9,21.8z M26.5,28c-0.8,0.7-1.8,0.9-2.2,0.9H12.2V11.5c0-1.2-0.1-1.8,1.3-2.1V7.8H4.3
		v1.6c1.2,0.3,1.2,1,1.2,2.1v17.4H4.2v4.2h24v-6.9C27.8,26.8,27.2,27.3,26.5,28z"/>
</g>
<g id="XMLID_378_">
</g>
<g id="XMLID_379_">
</g>
<g id="XMLID_380_">
</g>
<g id="XMLID_381_">
</g>
<g id="XMLID_382_">
</g>
<g id="XMLID_383_">
</g>
</svg>
