<?xml version="1.0" encoding="utf-8"?>
<!-- Generator: Adobe Illustrator 19.0.0, SVG Export Plug-In . SVG Version: 6.00 Build 0)  -->
<svg version="1.0" id="Layer_1" xmlns="http://www.w3.org/2000/svg" xmlns:xlink="http://www.w3.org/1999/xlink" x="0px" y="0px"
	 viewBox="0 0 53.5 47" style="enable-background:new 0 0 53.5 47;" xml:space="preserve">
<style type="text/css">
	.st0{fill-rule:evenodd;clip-rule:evenodd;fill:#B7964D;}
	.st1{fill:#B7964D;}
	.st2{fill-rule:evenodd;clip-rule:evenodd;fill:#00509F;}
</style>
<g id="XMLID_447_">
	<g id="XMLID_457_">
		<g id="XMLID_459_">
			<g id="XMLID_460_">
				<path id="XMLID_468_" class="st0" d="M49.4,1.1c1.8,3.1,1.4,6.8-0.6,8.8c-1.1,1.1-4.3,2.4-6.9,2.9c-1.5,0.3-3.9,0.1-3.4-2
					c0.2-1,1.5-1.2,2.3-1.5c1.2-0.4,3.3-1,4.9-2.3C48.1,5.1,49.4,1.1,49.4,1.1z"/>
				<path id="XMLID_467_" class="st0" d="M51.8,8.7c0,2.9-0.2,6-3.1,7.5c-1.4,0.7-4.9,1.8-7.4,1.7c-1.5-0.1-3.2-0.1-3-2.2
					c0.1-1.7,1.9-1.8,2.8-1.7c1,0.1,3.5-0.4,5.4-1C49.6,11.9,51.8,8.7,51.8,8.7z"/>
				<path id="XMLID_466_" class="st0" d="M51.2,16.1c-0.7,3-1.6,5.1-4.7,6.2c-1.4,0.5-5,1-7.5,0.7c-1.3-0.2-3.1-0.3-2.8-2.5
					c0.1-0.8,1.5-1.7,2.9-1.4c1.5,0.3,3.5,0.3,5.5-0.1C47.6,18.4,49,18,51.2,16.1z"/>
				<path id="XMLID_461_" class="st1" d="M20.2,16.8c1.1-0.1,2.1,0.7,2.2,1.8c0.1,1-0.8,1.9-1.9,2c-1.5,0.1-1.7-1.6-3.1-1.8
					c-0.3,0-0.9,0.3-1.3,0.7c0-0.7,0.6-1.4,1.1-1.4c0.4,0,0.7,0.3,1.1,0.2C19.2,18.1,19.2,16.9,20.2,16.8z M22.4,11.9
					c0,0.1,0,0.1,0,0.2c0,0.5-0.3,0.9-0.8,0.9c-0.5,0-0.9-0.3-0.9-0.8c0-0.1,0-0.2,0-0.3L22.4,11.9z M19.2,11.9l0.9,0
					c0,0.2-0.1,0.3,0,0.5c0.1,0.8,0.8,1.4,1.6,1.4c0.8-0.1,1.4-0.8,1.4-1.6c0-0.1,0-0.2,0-0.2l0.8,0c0,0,0.1,0.2,0.1,0.2
					c0.1,1.3-0.8,2.4-2.1,2.6c-1.3,0.1-2.4-0.8-2.6-2.1C19.2,12.3,19.2,12,19.2,11.9z M27.4,3.1c1.2,0,3.3-0.1,5-0.3
					c2.4-0.3,5.1-0.9,7.2-1.9c0,0,1.8-1.1,1.6-0.8c-0.2,0.4-3.3,2.9-9.3,3.4c-3.1,0.3-4.9,0.3-5.4,0.3c-1.2,0-2.5-0.1-4-0.3
					c-6.1-0.9-15.5-1.3-17.9,3C3.1,8.7,7.5,8,9,7.9c2.2-0.2,5.5,0.3,4.3,2.6c0,0,0,0.9,0.7,1.1c0.1,0,0.2,0,0.3,0
					c1.7-0.1,2.6,0.2,4.2,0.1c0.1,0.3,0,0.5,0.1,0.8c0.1,1.7,1.6,2.9,3.3,2.7c1.7-0.1,2.9-1.6,2.7-3.3c0-0.1-0.1-0.1-0.1-0.2
					c1.5,0,3.7,0,5.1,0c1.3,0.1,2.7,0.3,2.9,1.6c0.1,1.2-2.4,1.3-2.3,2.5c0,0.5,0.4,0.8,0.4,1.4c0.2,2.1-1.8,4.5-3.5,5.6
					c-1.3,0.8-2.4,0.7-3.9,0.3c-1.7-0.9-4.1-1.1-5,0.1c-1.1,1.6-0.5,4.9-2.4,4.8c-0.9,0-0.7-1.2-1.1-2c-0.4-0.7-1.3-0.5-1.4-1.3
					c0-0.5,0.2-1,0.4-1.5c-0.1,0-0.2-0.1-0.4-0.1c-1.1,0.1-1.4,1.3-1.3,2.4c-0.4-0.2-1-0.8-1-1.3c-0.1-0.8,1.2-1.2,1.5-1.9
					c0.2-0.5,0.1-0.3,0.2-0.7c0.1-0.4,0-0.7,0-1.2c0.6,0.4,1,0.8,1.4,1.4l0.6-0.1c0-0.8,0.8-1.9,0.8-1.9c0.3,0.4,0.5,0.6,0.9,0.9
					c1,0.7,2.4,1.1,3.9,0.7c1.9-0.4,3.6-1.3,3.6-3.4c0.1-2.2-2.5-3.2-4.6-3c-2.2,0.2-4,1.4-4.6,3.6l0.9,0.4c-0.7,0.2-0.8,0.2-1.3,0
					c-0.6-0.2-0.8-0.8-1.2-1.1c-0.2-0.3-1.1,0.3-1.2-1.3c-0.1-0.7-0.6-1.2-1.3-1.1c-0.8,0.1-1.4,0.8-1.9,1.4
					c-0.1-0.4,0.3-0.8,0.3-1.1c-0.1-0.6-0.6-1.1-1.3-1.1c-0.6,0.1-1,0.6-0.9,1.2c0,0.4,0.7,0.9,0.7,1.3c-0.5-0.5-1.5-1.1-1.5-1.8
					c-0.1-1,1.2-1.1,1.6-2c0.2-0.5-0.5-1-0.3-1.6c0.2-0.8,1.2-1.1,2-1.5c-0.4,0.5-0.6,0.8-0.6,1.3c0,0.5,0.9,1.2,1.4,1.2l0.2,0
					L10,11.3c0.7-1.3,0.5-1.9-0.7-1.9c-2.1-0.1-8.1,0.9-6.2-2.6C6,1.4,16,1.9,21.7,2.7c1.2,0.2,2.5,0.3,3.6,0.3
					C25.4,3,26.1,3.1,27.4,3.1z"/>
			</g>
		</g>
		<path id="XMLID_458_" class="st1" d="M35.2,23.1c1.2,0.7,2.1,1.1,3.9,1.3c3.5,0.3,5.6,0,9.1-1.6c-1.6,2.9-3.5,4.8-6.7,5.2
			c-1.5,0.2-5.4,0.1-7.7-0.9c-0.5-0.2-0.9-0.3-1.2-0.5l-0.1,0.1c-0.2,0.2-0.4,0.5-0.6,0.8c1,0.5,1.7,1.1,3.3,1.4
			c2.6,0.4,4,0.5,5.8,0.1c-2.4,2.5-4.3,2.9-7.1,2.8c-1.2-0.1-3.6-0.8-4.8-1.3c-6.5,5.2-14.8,3.7-14.3,2.6c0.4-1,2.4-0.3,5.5-4.4
			c0.9-1.2,1.4-2.8,1.8-3.6c-0.2,0-0.1,0,0,0l0-0.1c0.3,0.1,0.6,0.1,1,0.2c0.4,0,0.9,0,1.5,0.1c4.1,0.2,6.3-2.9,6.8-3.7
			c1.2-1.9,0.9-3.9,0.9-5c0.1-1.1,2.4-0.9,2.4-3.4c0-3-5.9-2.6-5.9-2.6l0.3-0.1l-2.2,0l-8.9,0c-0.1,0.1-1.4,0.4-1.6,0.5
			c0-0.1,0.4-1.3,0.5-1.4c1.2-2.7,3.3-2.9,6-3c1.5-0.1,3.5,0,5.7,0.2c3.1-0.2,5.8-0.1,9-1c3.8-1.1,6.7-2.4,10.1-5.3
			c-0.3,2.3-1.4,3.9-3.3,5.6c-1.9,1.8-3.5,2.2-6.1,2.9c-0.7,0.4-1.1,1-1.2,1.8c-0.1,1,0.3,1.9,1.1,2.4c-1,0.6-1.4,1.3-1.5,2.4
			c-0.1,0.9,0.1,1.4,0.6,2.1c-1,0.3-1.9,0.6-2.4,1.4C34.5,20.3,34.2,21.4,35.2,23.1z"/>
	</g>
	<g id="XMLID_448_">
		<g id="XMLID_450_">
			<path id="XMLID_456_" class="st2" d="M3.3,36.8c-0.1-0.1-0.3-0.1-0.4-0.1c-0.7,0-1.3,0.3-1.3,0.7c0.2,0,0.8,0.2,1.3,0.4
				c0.7,0.2,1.4,0.6,1.4,1.1v6.9c0,0.6,0.5,1.3,0.5,1.3H2.5v-8c0-0.7-2.4-1.1-2.4-1.1l-0.1,0v-0.1c0-1,1-1.7,2.3-1.7
				c0.6,0,1.1,0.1,1.5,0.2c0.2,0.1,0.4,0.1,0.6,0.2c0.2,0,0.4,0.1,0.5,0.1c0.4,0,1.2-0.2,1.3-0.3l0.2-0.1l0,0.2c0,0-0.2,1.2-1.7,1.2
				c-0.2,0-0.4,0-0.5-0.1c-0.2-0.1-0.3-0.2-0.5-0.3C3.6,37,3.4,36.9,3.3,36.8z"/>
			<path id="XMLID_455_" class="st2" d="M6.5,46.6c-0.7-0.4-1.5-1-1.5-2.4c0-1.4,0.7-1.6,0.7-1.6h3.7c0,0,0,0.3,0,0.3
				c-1.4,0-2.7,0.7-2.7,1.4c0,1.4,0.7,1.6,0.7,1.6C7.5,46,8.2,46.4,9,46.3c1.1-0.2,2.2-1,2.2-3.1c0-1.8-0.8-3.1-2.5-3.2
				c-1.1,0-1.6,0.4-2.2,0.8C6.2,41,6.2,41,6,41.2c-0.2,0.1-0.6,0.6-0.6,0.6l0.3-1.7c0.7-0.5,1.6-0.9,3.4-0.9c2.6,0,4,1.8,4,4
				c0,2.4-1.6,3.9-4.1,3.9C8,47.1,7.1,47,6.5,46.6z"/>
			<path id="XMLID_454_" class="st2" d="M20.7,41.3c0,0,0,4.3,0,4.7c0,0.5,0.4,1,0.4,1h-2.5c0,0,0.4-0.5,0.4-1c0-0.5,0-3.6,0-3.6
				c-0.4,0.2-0.8,0.3-1.2,0.5c-0.4,0.1-0.9,0.3-1.3,0.5c-0.8,0.3-1.4,0.7-1.4,1.5c0,0.9,0.3,1.4,1.4,1.5c0.3,0,1.2-0.3,1.2-0.3
				c0,0-0.2,1.1-1.5,1.1c-1.6,0-2.8-0.8-2.8-2.1c0-1.2,0.8-2,2.2-2.4c0.6-0.2,1.4-0.3,2.1-0.5c0.7-0.2,1.2-0.5,1.2-1
				c0-0.6-0.4-1.2-1.8-1.2c-1.2,0-2.4,0.6-2.7,1.3l-0.6,0.7l0.3-1.8l0.1,0l0,0c0,0,0.1-0.1,0.1-0.1c0.1-0.1,0.3-0.2,0.5-0.3
				c0.5-0.2,1.3-0.4,2.7-0.4c0.2,0,0.4,0,0.6,0.1c0.2,0,0.4,0.1,0.5,0.1c0.2,0,0.4,0.1,0.5,0.1l0.2,0.1c0,0,0.1,0,0.1,0
				c0.2,0,0.6-0.2,0.6-0.7v-0.1h1.8v0.1c0,0.6-1.1,1-1.7,1C20.4,40.2,20.7,40.7,20.7,41.3z"/>
			<path id="XMLID_453_" class="st2" d="M27.5,45.9c0-0.4,0-4.9,0-4.9c0-0.7-0.7-1.2-1.9-1.2c-1.2,0-1.8,0.5-1.8,1.2
				c0,0,0,4.1,0,4.6c0,0.6,1.2,1.1,1.9,1.1c0,0.1,0,0.2,0,0.2s-1.7,0-2.7,0c-1,0-0.9-0.6-0.9-0.6v-4.2c0-0.1,0.1-0.2,0.2-0.3
				c0.1-0.1,0.2-0.1,0.3-0.2l0.2-0.1c0,0,0.1,0,0.1-0.1c0,0,0.1,0,0.1,0c0,0,0-0.1-0.1-0.1c-0.1,0-0.2,0-0.3,0c-0.2,0-0.4,0-0.4,0
				l-0.1,0v-0.1c0-1.3,1.9-2.1,3.7-2.1c1.8,0,3.6,0.6,3.6,2.1c0,0,0,4.2,0,4.6c0,0.4,0.4,1,0.4,1h-2.6C27.1,47,27.5,46.3,27.5,45.9z
				"/>
			<path id="XMLID_452_" class="st2" d="M44.9,46.1c0-0.4,0-5,0-5c0-0.7-0.7-1.2-1.9-1.2c-1.2,0-1.8,0.5-1.8,1.2v5.3
				c0,0,0,0.6-0.7,0.6c-0.8,0-2.5,0-2.5,0s0-0.2,0-0.2c0.9,0,1.5-0.6,1.5-1.1c0-0.6,0-3.5,0-3.5c0-0.1,0.1-0.2,0.2-0.3
				c0.1-0.1,0.2-0.1,0.3-0.2l0.2-0.1c0,0,0.1,0,0.1-0.1c0,0,0.1,0,0.1,0c0,0,0-0.1-0.1-0.1c-0.1,0-0.2,0-0.3,0c-0.2,0-0.4,0-0.4,0
				l-0.1,0v-0.1c0-1.3,1.9-2.1,3.6-2.1c1.8,0,3.6,0.6,3.6,2.1c0,0,0,4.4,0,4.8c0,0.4,0.4,0.9,0.4,0.9h-2.5
				C44.5,47,44.9,46.5,44.9,46.1z"/>
			<path id="XMLID_451_" class="st2" d="M51.4,46.1c0-0.4,0-4.8,0-4.8c0-1-0.7-1.5-1.9-1.5c-1.2,0-1.7,0.8-2,1.4L47.1,42v-1.9
				c0.4-0.4,1.5-0.9,2.9-0.9c2.1,0,3.1,0.9,3.1,2.2c0,0,0,4.3,0,4.7c0,0.4,0.4,0.9,0.4,0.9H51C51,47,51.4,46.5,51.4,46.1z"/>
		</g>
		<path id="XMLID_449_" class="st2" d="M37.5,41.3c0,0,0,4.3,0,4.7c0,0.5,0.4,1,0.4,1h-2.5c0,0,0.4-0.5,0.4-1c0-0.5,0-3.6,0-3.6
			c-0.4,0.2-0.8,0.3-1.2,0.5c-0.4,0.1-0.9,0.3-1.3,0.5c-0.8,0.3-1.4,0.7-1.4,1.5c0,0.9,0.3,1.4,1.4,1.5c0.3,0,1.2-0.3,1.2-0.3
			c0,0-0.2,1.1-1.5,1.1c-1.6,0-2.8-0.8-2.8-2.1c0-1.2,0.8-2,2.2-2.4c0.6-0.2,1.4-0.3,2.1-0.5c0.7-0.2,1.2-0.5,1.2-1
			c0-0.6-0.4-1.2-1.8-1.2c-1.2,0-2.3,0.6-2.7,1.3l-0.6,0.7l0.3-1.8l0.1,0l0,0c0,0,0.1-0.1,0.1-0.1c0.1-0.1,0.3-0.2,0.5-0.3
			c0.5-0.2,1.3-0.4,2.7-0.4c0.2,0,0.4,0,0.6,0.1c0.2,0,0.4,0.1,0.5,0.1c0.2,0,0.4,0.1,0.5,0.1l0.1,0.1c0.1,0,0.1,0,0.1,0
			c0.2,0,0.6-0.2,0.6-0.7v-0.1h1.8v0.1c0,0.6-1.1,1-1.7,1C37.2,40.2,37.5,40.7,37.5,41.3z"/>
	</g>
</g>
<g id="XMLID_209_">
</g>
<g id="XMLID_210_">
</g>
<g id="XMLID_211_">
</g>
<g id="XMLID_212_">
</g>
<g id="XMLID_343_">
</g>
<g id="XMLID_344_">
</g>
</svg>
