<?xml version="1.0" encoding="utf-8"?>
<!-- Generator: Adobe Illustrator 19.0.0, SVG Export Plug-In . SVG Version: 6.00 Build 0)  -->
<svg version="1.0" id="Layer_1" xmlns="http://www.w3.org/2000/svg" xmlns:xlink="http://www.w3.org/1999/xlink" x="0px" y="0px"
	 viewBox="0 0 95.7 17.9" style="enable-background:new 0 0 95.7 17.9;" xml:space="preserve">
<style type="text/css">
	.st0{fill:#034694;}
</style>
<g id="XMLID_2_">
	<path id="XMLID_13_" class="st0" d="M8.1,7.1C6.9,6.4,5.9,5.8,5.9,5c0-0.9,0.9-1.5,2.1-1.5c1.1,0,2.9,0.6,4,1.4l0.4,0.3l0.6-3.7
		l-0.2-0.1C11.3,0.5,9.5,0,7.8,0C4.2,0,1.6,2.3,1.6,5.4c0,2.6,2,3.9,3.8,5c1.3,0.8,2.4,1.5,2.4,2.6c0,0.9-0.8,1.5-2.1,1.5
		c-1.3,0-3.3-0.7-4.6-1.7l-0.4-0.3L0,16.1l0.2,0.1c1.7,1.1,3.6,1.7,5.9,1.7c4.1,0,6-2.7,6-5.5C12.1,9.5,9.8,8.2,8.1,7.1z"/>
	<path id="XMLID_10_" class="st0" d="M42.7,0.2c0,0-4.7,8.9-5.4,10.1C37,9,34.7,0.2,34.7,0.2h-4.4c0,0-1.4,4.3-2.8,8.4
		C27.3,6.8,26.1,0,26.1,0h-0.3h-4c0,0-4.8,10-5,10.3c-0.3,0-2.9,0-2.9,0l-1.4,3c0,0,2.2,0,2.8,0c-0.3,0.7-2.1,4.3-2.1,4.3H18
		c0,0,1.7-4,1.9-4.3c0.3,0,2.9,0,2.9,0s1.2-2.6,1.2-2.6c0.4,3.1,0.9,6.7,1,6.9h4.1c0,0,3.1-9.4,3.6-11c0.4,1.6,2.8,11,2.8,11h2.1
		c0,0,5-9.2,5.9-10.7c0.1,1.7,0.5,10.7,0.5,10.7h4.1L47,0.2H42.7z M21.1,10.3c0.3-0.6,1.5-3.5,2.1-4.8c0.1,0.7,0.3,2.4,0.7,4.8
		C23.7,10.3,21.8,10.3,21.1,10.3z"/>
	<path id="XMLID_7_" class="st0" d="M76.8,10.1c2.1-0.6,3.3-2.3,3.3-4.5c0-2.6-1.9-5.4-6-5.4h-5.8h-0.3l-2.4,17.4h4.2
		c0,0,0.9-6.3,0.9-6.8c0.2,0,0.5,0,0.5,0c1.6,0,1.9,0.2,3.3,3.2l1.7,3.6h4.6l-2.8-5.8C77.7,11.1,77.4,10.5,76.8,10.1z M72.7,7.6
		c0,0-1,0-1.4,0c0.1-0.6,0.5-3.6,0.6-4c0.4,0,1.5,0,1.5,0c1.6,0,2.5,0.7,2.5,1.8C75.8,6.5,75,7.6,72.7,7.6z"/>
	<path id="XMLID_6_" class="st0" d="M95.3,0.2H80.7l-0.5,3.4c0,0,4.7,0,5.3,0c-0.1,0.7-2,14-2,14h4.2c0,0,1.9-13.5,2-14
		c0.5,0,5.5,0,5.5,0l0.5-3.4H95.3z"/>
	<path id="XMLID_3_" class="st0" d="M61.4,0h-4c0,0-4.8,10-5,10.3c-0.3,0-2.9,0-2.9,0l-1.4,3c0,0,2.2,0,2.8,0
		c-0.3,0.7-2.1,4.3-2.1,4.3h4.6c0,0,1.7-4,1.9-4.3c0.3,0,2.9,0,2.9,0s1.2-2.6,1.2-2.6c0.5,3.3,1,6.9,1,6.9h4.3L61.6,0H61.4z
		 M56.6,10.3c0.3-0.6,1.5-3.5,2.1-4.8c0.1,0.7,0.3,2.4,0.7,4.8C59.3,10.3,57.3,10.3,56.6,10.3z"/>
</g>
<g id="XMLID_169_">
</g>
<g id="XMLID_170_">
</g>
<g id="XMLID_171_">
</g>
<g id="XMLID_172_">
</g>
<g id="XMLID_173_">
</g>
<g id="XMLID_174_">
</g>
</svg>
