<?xml version="1.0" encoding="UTF-8" standalone="no"?><!DOCTYPE svg PUBLIC "-//W3C//DTD SVG 1.1//EN" "http://www.w3.org/Graphics/SVG/1.1/DTD/svg11.dtd"><svg width="100%" height="100%" viewBox="0 0 79 27" version="1.1" xmlns="http://www.w3.org/2000/svg" xmlns:xlink="http://www.w3.org/1999/xlink" xml:space="preserve" style="fill-rule:evenodd;clip-rule:evenodd;stroke-linejoin:round;stroke-miterlimit:1.41421;"><rect x="0" y="0" width="78.083" height="26.559" style="fill:#005288;fill-rule:nonzero;"/><path d="M6.571,11.715c0,-0.107 -0.084,-0.192 -0.192,-0.192c-0.102,0 -0.187,0.085 -0.187,0.192c0,0.103 0.085,0.187 0.187,0.187c0.108,0 0.192,-0.084 0.192,-0.187M15.785,12.631c0,0 -0.016,0.086 -0.08,0.2l0.003,0c-0.016,0.032 -0.039,0.065 -0.063,0.096c-0.081,0.114 -0.212,0.243 -0.414,0.348c-0.019,0.01 -0.037,0.024 -0.056,0.032c-0.04,0.016 -0.079,0.031 -0.121,0.046c-0.195,0.072 -0.441,0.124 -0.751,0.134l-0.176,0c-0.172,0.007 -0.346,0.011 -0.513,0.023c-0.598,-0.003 -1.148,0.09 -1.605,0.419c-0.369,0.241 -0.671,0.613 -1.032,0.86c-0.764,0.612 -1.927,0.787 -2.86,0.426c-0.566,-0.209 -1.133,-0.661 -1.438,-1.204c-0.259,-0.423 -0.404,-0.891 -0.507,-1.369c-0.123,-0.374 -0.52,-0.718 -0.91,-0.769c0.031,-0.06 0.067,-0.113 0.116,-0.162c0.347,-0.407 0.871,-0.611 1.391,-0.46c0.428,0.125 0.615,0.585 0.788,0.934c0.09,0.144 0.253,0.313 0.455,0.313c0.133,-0.004 0.264,-0.099 0.311,-0.22c0.058,-0.199 -0.071,-0.354 -0.172,-0.504c-0.316,-0.374 -0.768,-0.785 -0.505,-1.297c0.226,-0.376 0.63,-0.614 1.042,-0.698c0,0 0.349,-0.07 0.533,-0.07l4.318,0c0.338,-0.02 0.652,-0.12 0.959,-0.285l0.008,-0.004c-0.012,0.355 -0.259,0.653 -0.562,0.796c-0.151,0.071 -0.454,0.15 -0.609,0.15c-0.112,0 -3.69,-0.001 -3.69,-0.001c-0.092,0.014 -0.187,0.037 -0.225,0.131c-0.03,0.043 -0.022,0.121 0.009,0.166c0.061,0.083 0.138,0.091 0.241,0.09l3.765,-0.007c0.314,-0.006 0.564,-0.122 0.811,-0.241c0.025,0.082 -0.07,0.253 -0.135,0.364c-0.287,0.362 -0.676,0.519 -1.113,0.539l-2.659,0c-0.111,0 -0.2,0.076 -0.227,0.161c-0.006,0.051 -0.003,0.109 0.043,0.149c0.067,0.068 0.153,0.073 0.26,0.073l2.527,0c0.352,0 0.675,-0.102 0.989,-0.202c-0.008,0.173 -0.16,0.312 -0.279,0.448c-0.366,0.34 -0.835,0.429 -1.345,0.421l-1.351,0c-0.108,0 -0.167,0.018 -0.224,0.088c-0.044,0.039 -0.047,0.132 -0.02,0.18c0.049,0.076 0.159,0.106 0.244,0.106l3.891,0c0.096,-0.003 0.418,-0.023 0.938,-0.2M16.788,13.152c0,-3.472 -2.822,-6.298 -6.29,-6.298c-3.47,0 -6.291,2.826 -6.291,6.298c0,1.189 0.335,2.347 0.97,3.352c0.249,-0.084 0.501,-0.125 0.75,-0.125c0.694,0 1.25,0.309 1.74,0.581c0.147,0.081 0.285,0.155 0.42,0.221c0.227,0.11 0.838,0.367 1.603,0.367c0.635,0 1.23,-0.175 1.769,-0.52c0.176,-0.112 0.352,-0.235 0.526,-0.356l0.137,-0.096c0.64,-0.45 1.301,-0.916 2.067,-1.128c0.275,-0.077 0.555,-0.116 0.83,-0.116c0.423,0 0.84,0.088 1.273,0.269c0.33,-0.779 0.496,-1.603 0.496,-2.449M16.136,15.941c-0.378,-0.155 -0.741,-0.232 -1.108,-0.232c-1.013,0 -1.866,0.597 -2.69,1.175c-0.22,0.156 -0.45,0.315 -0.675,0.46c-0.603,0.384 -1.266,0.581 -1.971,0.581c-0.847,0 -1.52,-0.284 -1.772,-0.406c-0.135,-0.065 -0.27,-0.139 -0.412,-0.218c-0.491,-0.273 -0.981,-0.544 -1.581,-0.544c-0.17,0 -0.348,0.025 -0.529,0.076c0.074,0.103 0.15,0.206 0.231,0.304c0.408,0.019 0.841,0.146 1.288,0.377l0.405,0.212c1.017,0.532 1.681,0.878 2.798,0.878c0.898,0 1.865,-0.588 2.72,-1.108c0.327,-0.2 0.648,-0.399 0.939,-0.545c0.463,-0.229 0.924,-0.345 1.372,-0.345c0.192,0 0.38,0.023 0.56,0.066c0.161,-0.238 0.304,-0.484 0.425,-0.731M15.47,17.008c-0.104,-0.016 -0.212,-0.025 -0.321,-0.025c-0.39,0 -0.794,0.102 -1.204,0.306c-0.26,0.131 -0.559,0.312 -0.894,0.516c-0.899,0.551 -1.916,1.176 -2.931,1.176c-1.216,0 -1.915,-0.367 -2.972,-0.924l-0.404,-0.21c-0.245,-0.127 -0.488,-0.219 -0.722,-0.274c1.18,1.196 2.799,1.878 4.476,1.878c1.933,0 3.784,-0.911 4.972,-2.443M17.354,13.152c0,3.786 -3.076,6.865 -6.856,6.865c-3.781,0 -6.858,-3.079 -6.858,-6.865c0,-3.786 3.077,-6.867 6.858,-6.867c3.78,0 6.856,3.081 6.856,6.867" style="fill:#fff;fill-rule:nonzero;"/><path d="M20.698,18.094c0.277,0.007 0.626,0.007 0.819,-0.058c0.239,-0.084 0.401,-0.265 0.401,-0.555c0,-0.207 -0.071,-0.413 -0.258,-0.53c-0.188,-0.109 -0.472,-0.109 -0.962,-0.096l0,1.239ZM20.698,16.086c0.259,0 0.6,0 0.762,-0.069c0.077,-0.039 0.329,-0.181 0.329,-0.525c0,-0.419 -0.317,-0.541 -0.665,-0.541c-0.109,0 -0.291,0.007 -0.426,0.007l0,1.128ZM19.62,18.817l-0.045,-0.026c0.014,-0.916 0.02,-1.826 0.02,-2.743c0,-0.891 -0.006,-1.129 -0.033,-1.748l0.039,-0.039l0.903,-0.014c0.22,-0.006 0.613,-0.012 0.833,-0.012c0.632,0 1.052,0.077 1.323,0.368c0.206,0.231 0.258,0.516 0.258,0.722c0,0.149 -0.032,0.304 -0.103,0.452c-0.168,0.343 -0.426,0.459 -0.646,0.549c0.136,0.025 0.278,0.051 0.401,0.116c0.368,0.18 0.542,0.56 0.542,0.974c0,0.362 -0.116,0.787 -0.542,1.091c-0.484,0.335 -1.227,0.324 -1.827,0.31l-1.123,0Z" style="fill:#fff;fill-rule:nonzero;"/><path d="M25.416,17.138c-0.439,0.058 -0.949,0.13 -0.949,0.556c0,0.27 0.194,0.393 0.426,0.393c0.214,0 0.388,-0.09 0.523,-0.167l0,-0.782ZM26.474,17.371c0,0.607 0,0.768 0.045,1.4l-0.032,0.045c-0.419,-0.006 -0.562,0 -1.026,0.021l-0.039,-0.046l0,-0.239c-0.135,0.11 -0.413,0.342 -0.897,0.342c-0.631,0 -1.128,-0.445 -1.128,-1.136c0,-0.29 0.122,-0.659 0.483,-0.884c0.387,-0.238 0.749,-0.309 1.523,-0.413c0,-0.097 -0.019,-0.213 -0.084,-0.278c-0.084,-0.084 -0.181,-0.122 -0.419,-0.122c-0.433,0 -0.852,0.168 -1.078,0.258l-0.052,-0.026l0.033,-0.703l0.04,-0.052c0.366,-0.109 0.708,-0.213 1.264,-0.213c0.826,0 1.083,0.258 1.212,0.465c0.168,0.271 0.168,0.523 0.162,1.104l-0.007,0.477Z" style="fill:#fff;fill-rule:nonzero;"/><path d="M30.176,18.81c-0.516,0 -0.625,0.006 -1.052,0.02l-0.038,-0.039c0,-0.22 0.006,-0.446 0.006,-0.665c0,-0.245 -0.006,-1.129 -0.019,-1.342c-0.021,-0.232 -0.052,-0.613 -0.407,-0.613c-0.206,0 -0.361,0.109 -0.496,0.199c0.005,1.156 0.012,1.408 0.051,2.401l-0.039,0.039c-0.516,0 -0.614,0 -1.077,0.02l-0.04,-0.039c0.007,-0.414 0.013,-0.827 0.013,-1.239c0,-1.052 -0.039,-1.458 -0.09,-2.02l0.039,-0.046c0.484,-0.063 0.593,-0.083 1.09,-0.187l0.065,0.045l-0.012,0.356c0.296,-0.174 0.637,-0.381 1.032,-0.381c0.231,0 0.6,0.051 0.8,0.387c0.161,0.265 0.167,0.561 0.174,1.181l0,0.504c0.013,0.632 0.013,0.812 0.045,1.38l-0.045,0.039Z" style="fill:#fff;fill-rule:nonzero;"/><path d="M37.671,18.791l-1.163,0.045l-0.058,-0.039c-0.328,-0.683 -0.4,-0.826 -0.96,-1.858l0.005,0.741l0.04,1.092l-0.04,0.045c-0.49,0 -0.612,0 -1.044,0.019l-0.046,-0.045c0.007,-1.045 0.007,-2.091 -0.005,-3.137c-0.013,-0.845 -0.034,-1.149 -0.078,-1.774l0.038,-0.045l1.123,-0.168l0.052,0.039c-0.033,0.974 -0.04,1.232 -0.045,2.439l0,0.717c0.297,-0.446 0.361,-0.549 0.864,-1.421l0.064,-0.044l1.052,-0.014l0.033,0.065c-0.458,0.587 -0.503,0.651 -0.948,1.258c0.49,0.884 0.555,1 1.161,2.027l-0.045,0.058Z" style="fill:#fff;fill-rule:nonzero;"/><path d="M39.748,16.19c-0.084,-0.104 -0.232,-0.201 -0.413,-0.201c-0.206,0 -0.374,0.117 -0.471,0.291c-0.13,0.226 -0.13,0.64 -0.13,0.826c0,0.626 0.123,0.846 0.233,0.955c0.077,0.072 0.194,0.15 0.361,0.15c0.536,0 0.607,-0.589 0.607,-1.118c0,-0.348 -0.032,-0.716 -0.187,-0.903M39.316,18.894c-0.923,0 -1.24,-0.348 -1.407,-0.601c-0.24,-0.347 -0.303,-0.767 -0.303,-1.18c0,-1.187 0.633,-1.788 1.755,-1.788c0.167,0 0.503,0.013 0.787,0.123c0.904,0.355 0.904,1.4 0.904,1.651c0,0.969 -0.368,1.795 -1.736,1.795" style="fill:#fff;fill-rule:nonzero;"/><path d="M44.759,18.791l-1.162,0.045l-0.058,-0.039c-0.328,-0.683 -0.4,-0.826 -0.961,-1.858l0.006,0.741l0.04,1.092l-0.04,0.045c-0.49,0 -0.614,0 -1.045,0.019l-0.045,-0.045c0.005,-1.045 0.005,-2.091 -0.007,-3.137c-0.013,-0.845 -0.031,-1.149 -0.077,-1.774l0.039,-0.045l1.123,-0.168l0.052,0.039c-0.033,0.974 -0.04,1.232 -0.046,2.439l0,0.717c0.297,-0.446 0.362,-0.549 0.865,-1.421l0.065,-0.044l1.051,-0.014l0.032,0.065c-0.457,0.587 -0.502,0.651 -0.948,1.258c0.491,0.884 0.555,1 1.161,2.027l-0.045,0.058Z" style="fill:#fff;fill-rule:nonzero;"/><path d="M47.607,14.28c-0.02,0.891 -0.032,1.781 -0.032,2.671c0,0.936 0.012,1.233 0.045,1.827l-0.039,0.039c-0.535,0 -0.665,0 -1.148,0.02l-0.034,-0.04c0.026,-0.671 0.039,-1.065 0.039,-1.826c0,-1.646 -0.019,-1.974 -0.057,-2.672l0.025,-0.038c0.466,0.006 0.613,0.006 1.169,-0.02l0.032,0.039Z" style="fill:#fff;fill-rule:nonzero;"/><path d="M51.407,18.81c-0.516,0 -0.625,0.006 -1.052,0.02l-0.038,-0.039c0,-0.22 0.006,-0.446 0.006,-0.665c0,-0.245 -0.006,-1.129 -0.019,-1.342c-0.02,-0.232 -0.051,-0.613 -0.407,-0.613c-0.207,0 -0.36,0.109 -0.497,0.199c0.007,1.156 0.013,1.408 0.052,2.401l-0.039,0.039c-0.516,0 -0.613,0 -1.077,0.02l-0.039,-0.039c0.006,-0.414 0.013,-0.827 0.013,-1.239c0,-1.052 -0.039,-1.458 -0.091,-2.02l0.04,-0.046c0.484,-0.063 0.592,-0.083 1.089,-0.187l0.065,0.045l-0.013,0.356c0.296,-0.174 0.64,-0.381 1.033,-0.381c0.232,0 0.6,0.051 0.8,0.387c0.161,0.265 0.168,0.561 0.174,1.181l0,0.504c0.012,0.632 0.012,0.812 0.046,1.38l-0.046,0.039Z" style="fill:#fff;fill-rule:nonzero;"/><path d="M53.683,16.706c0.354,0.136 0.852,0.323 0.852,1.033c0,0.045 0,0.091 -0.007,0.142c-0.116,0.923 -1.084,1.013 -1.575,1.013c-0.47,0 -0.742,-0.103 -1.057,-0.219l-0.033,-0.059c0.025,-0.323 0.033,-0.393 0.046,-0.729l0.057,-0.027c0.097,0.079 0.148,0.124 0.259,0.182c0.238,0.123 0.503,0.181 0.683,0.181c0.361,0 0.51,-0.175 0.51,-0.336c0,-0.232 -0.283,-0.328 -0.458,-0.387l-0.244,-0.091c-0.304,-0.115 -0.84,-0.322 -0.84,-1.013c0,-0.258 0.09,-0.451 0.174,-0.567c0.336,-0.485 0.968,-0.51 1.284,-0.51c0.419,0 0.684,0.078 0.987,0.161l0.033,0.039l-0.065,0.704l-0.058,0.018c-0.161,-0.103 -0.413,-0.27 -0.806,-0.27c-0.4,0 -0.452,0.212 -0.452,0.29c0,0.181 0.174,0.252 0.394,0.329l0.316,0.116Z" style="fill:#fff;fill-rule:nonzero;"/><path d="M58.016,15.415c-0.013,0.607 -0.02,1.213 -0.02,1.821c0,0.838 0.014,1.083 0.046,1.542l-0.039,0.039c-0.419,0 -0.562,0 -1.033,0.02l-0.045,-0.04l0.007,-0.29c-0.232,0.18 -0.497,0.387 -0.955,0.387c-0.323,0 -0.632,-0.103 -0.845,-0.342c-0.232,-0.271 -0.265,-0.568 -0.258,-1.271l0,-0.452c0,-0.651 -0.007,-0.833 -0.045,-1.374l0.045,-0.04l1.064,-0.051l0.045,0.051l-0.013,1.305c-0.005,0.16 -0.005,0.328 -0.005,0.49c0,0.38 0,0.871 0.464,0.871c0.175,0 0.309,-0.097 0.484,-0.213c0.006,-0.258 0.006,-0.361 0.006,-0.548c0,-0.104 0,-1.137 -0.045,-1.865l0.045,-0.04l1.052,-0.051l0.045,0.051Z" style="fill:#fff;fill-rule:nonzero;"/><path d="M60.406,16.448c-0.089,-0.052 -0.154,-0.091 -0.264,-0.091c-0.438,0 -0.438,0.427 -0.438,0.717c0,0.445 0.038,1.174 0.065,1.697l-0.033,0.046c-0.516,-0.007 -0.62,0 -1.097,0.019l-0.039,-0.039c0.013,-0.536 0.019,-1.065 0.019,-1.594c0,-0.897 -0.019,-1.186 -0.057,-1.671l0.038,-0.04c0.472,-0.069 0.594,-0.089 1.071,-0.193l0.052,0.052l-0.019,0.594c0.206,-0.478 0.503,-0.626 0.768,-0.626c0.045,0 0.091,0.006 0.135,0.006l0.039,0.046l-0.182,1.052l-0.058,0.025Z" style="fill:#fff;fill-rule:nonzero;"/><path d="M62.645,17.138c-0.44,0.058 -0.95,0.13 -0.95,0.556c0,0.27 0.193,0.393 0.426,0.393c0.214,0 0.388,-0.09 0.524,-0.167l0,-0.782ZM63.703,17.371c0,0.607 0,0.768 0.045,1.4l-0.033,0.045c-0.419,-0.006 -0.562,0 -1.026,0.021l-0.039,-0.046l0,-0.239c-0.135,0.11 -0.412,0.342 -0.897,0.342c-0.632,0 -1.129,-0.445 -1.129,-1.136c0,-0.29 0.122,-0.659 0.484,-0.884c0.388,-0.238 0.749,-0.309 1.523,-0.413c0,-0.097 -0.019,-0.213 -0.084,-0.278c-0.084,-0.084 -0.18,-0.122 -0.419,-0.122c-0.433,0 -0.852,0.168 -1.078,0.258l-0.052,-0.026l0.033,-0.703l0.04,-0.052c0.366,-0.109 0.709,-0.213 1.264,-0.213c0.824,0 1.083,0.258 1.213,0.465c0.167,0.271 0.167,0.523 0.161,1.104l-0.006,0.477Z" style="fill:#fff;fill-rule:nonzero;"/><path d="M67.337,18.81c-0.516,0 -0.625,0.006 -1.051,0.02l-0.039,-0.039c0,-0.22 0.007,-0.446 0.007,-0.665c0,-0.245 -0.007,-1.129 -0.02,-1.342c-0.019,-0.232 -0.052,-0.613 -0.406,-0.613c-0.206,0 -0.361,0.109 -0.497,0.199c0.006,1.156 0.013,1.408 0.051,2.401l-0.038,0.039c-0.517,0 -0.613,0 -1.078,0.02l-0.039,-0.039c0.007,-0.414 0.013,-0.827 0.013,-1.239c0,-1.052 -0.039,-1.458 -0.09,-2.02l0.039,-0.046c0.483,-0.063 0.593,-0.083 1.09,-0.187l0.065,0.045l-0.013,0.356c0.296,-0.174 0.639,-0.381 1.032,-0.381c0.232,0 0.601,0.051 0.801,0.387c0.161,0.265 0.167,0.561 0.173,1.181l0,0.504c0.014,0.632 0.014,0.812 0.046,1.38l-0.046,0.039Z" style="fill:#fff;fill-rule:nonzero;"/><path d="M70.375,17.92l-0.025,0.774l-0.04,0.039c-0.27,0.077 -0.49,0.141 -0.832,0.141c-1.451,0 -1.838,-1.006 -1.838,-1.748c0,-0.659 0.296,-1.807 1.812,-1.807c0.374,0 0.619,0.078 0.903,0.167l0.033,0.04c-0.051,0.341 -0.058,0.432 -0.084,0.773l-0.065,0.02c-0.193,-0.129 -0.347,-0.232 -0.632,-0.232c-0.626,0 -0.832,0.541 -0.832,1.012c0,0.388 0.149,0.995 0.878,0.995c0.328,0 0.496,-0.103 0.67,-0.207l0.052,0.033Z" style="fill:#fff;fill-rule:nonzero;"/><path d="M72.782,16.68c0,-0.148 -0.006,-0.302 -0.097,-0.444c-0.071,-0.115 -0.2,-0.227 -0.414,-0.227c-0.089,0 -0.181,0.02 -0.257,0.071c-0.245,0.156 -0.29,0.426 -0.31,0.626l1.078,-0.026ZM73.705,17.881l-0.045,0.729l-0.039,0.052c-0.343,0.135 -0.575,0.232 -1.111,0.232c-0.463,0 -1.342,-0.077 -1.715,-0.948c-0.104,-0.226 -0.155,-0.543 -0.155,-0.847c0,-1.115 0.67,-1.78 1.683,-1.78c0.149,0 0.297,0.013 0.459,0.058c0.219,0.052 0.716,0.206 0.943,0.968c0.089,0.323 0.095,0.646 0.103,0.961l-0.04,0.045l-2.084,0.04c0.025,0.128 0.045,0.258 0.142,0.394c0.155,0.231 0.419,0.354 0.806,0.354c0.472,0 0.762,-0.148 1.008,-0.279l0.045,0.021Z" style="fill:#fff;fill-rule:nonzero;"/><path d="M32.4,18.025c-0.685,-0.001 -0.683,-0.835 -0.683,-1.008c0.001,-0.395 0.152,-0.982 0.875,-0.98c0.058,0 0.122,0 0.187,0.007l0.015,1.853c-0.13,0.077 -0.226,0.128 -0.394,0.128M33.868,17.021c0.002,-0.75 0.016,-1.123 0.036,-1.685l-0.046,-0.038c-1.529,-0.018 -2.027,-0.018 -2.557,0.309c-0.575,0.367 -0.718,1.051 -0.72,1.542c-0.002,0.891 0.461,1.648 1.429,1.65c0.394,0.001 0.609,-0.127 0.789,-0.237l0.001,0l-0.004,0.102l0.001,0c-0.009,0.354 -0.021,0.573 -0.188,0.753c-0.144,0.151 -0.355,0.176 -0.507,0.176c-0.443,0 -0.687,-0.196 -0.789,-0.281l-0.069,0.014c-0.02,0.117 -0.042,0.236 -0.077,0.353c-0.025,0.104 -0.058,0.203 -0.091,0.3l0.022,0.06c0.136,0.078 0.28,0.162 0.632,0.235c0.228,0.038 0.452,0.065 0.67,0.065c0.564,0 1.035,-0.177 1.273,-0.582c0.115,-0.193 0.168,-0.447 0.194,-0.736l0.002,0.001c0,-0.063 0,-0.32 -0.001,-0.511l0.005,0c-0.006,-0.496 -0.006,-0.993 -0.005,-1.49" style="fill:#fff;fill-rule:nonzero;"/><path d="M42.653,7.569l0.001,3.165l-0.928,-2.848l-0.207,0l-0.917,2.879l0,-3.196l-1.664,0l0,0.091c0.197,0.172 0.304,0.427 0.307,0.623l0,2.311c0,0.65 0.017,1.172 1.183,1.172l0.684,0l0.507,-1.858l0.582,1.858l0.805,0c0.384,0 1.024,-0.193 1.024,-0.862l0,-3.335l-1.377,0Z" style="fill:#fff;fill-rule:nonzero;"/><path d="M33.806,11.068l-0.004,-3.496l-1.329,0l-0.001,3.712l0,0.479l1.667,0l0,-0.083c-0.228,-0.113 -0.333,-0.391 -0.333,-0.612" style="fill:#fff;fill-rule:nonzero;"/><path d="M25.468,8.709c-0.076,-0.131 -0.076,-0.304 0.004,-0.403c0.026,-0.043 0.144,-0.225 0.604,-0.225c0.45,0 1.219,0.281 1.258,0.293l0,-0.791c-0.386,-0.121 -0.816,-0.187 -1.218,-0.187c-0.378,0 -0.72,0.056 -1.015,0.165c-0.608,0.215 -0.901,0.562 -0.985,1.16c-0.011,0.094 -0.071,0.616 0.313,1c0.408,0.408 1.033,0.391 1.162,0.398c0.265,0.015 0.538,0.029 0.77,0.146c0.166,0.061 0.286,0.257 0.273,0.453c-0.016,0.204 -0.165,0.355 -0.403,0.407c-0.138,0.031 -0.28,0.045 -0.423,0.045c-0.749,0 -1.531,-0.467 -1.546,-0.475l0,0.884c0.023,0.008 0.061,0.023 0.115,0.039c0.606,0.223 1.324,0.289 2.11,0.195c0.494,-0.078 0.87,-0.292 1.116,-0.634c0.295,-0.396 0.335,-1.062 0.091,-1.515c-0.123,-0.223 -0.343,-0.437 -0.735,-0.573c-0.446,-0.155 -0.943,-0.124 -1.166,-0.175c-0.237,-0.052 -0.309,-0.177 -0.325,-0.207" style="fill:#fff;fill-rule:nonzero;"/><path d="M37.5,7.487c-0.878,0 -1.621,1.019 -1.621,1.019l0,-0.937l-1.599,0l0,0.091c0.111,0.106 0.261,0.314 0.281,0.635l0,3.465l1.318,0l0,-1.361c0,-0.533 0.04,-0.916 0.239,-1.216c0,0 0.436,-0.631 0.788,-0.631c0.351,0 0.395,0.333 0.395,0.434c0,0.101 0.001,2.777 0.001,2.777l1.322,0l0,-3.017c0,-0.472 -0.246,-1.259 -1.124,-1.259" style="fill:#fff;fill-rule:nonzero;"/><path d="M50.547,8.709c-0.075,-0.131 -0.075,-0.304 0.005,-0.403c0.026,-0.043 0.143,-0.225 0.604,-0.225c0.45,0 1.219,0.281 1.257,0.293l0,-0.791c-0.385,-0.121 -0.815,-0.187 -1.217,-0.187c-0.378,0 -0.72,0.056 -1.016,0.165c-0.607,0.215 -0.901,0.562 -0.984,1.16c-0.012,0.094 -0.071,0.616 0.312,1c0.409,0.408 1.033,0.391 1.163,0.398c0.264,0.015 0.536,0.029 0.77,0.146c0.166,0.061 0.286,0.257 0.273,0.453c-0.016,0.204 -0.166,0.355 -0.404,0.407c-0.137,0.031 -0.279,0.045 -0.423,0.045c-0.749,0 -1.531,-0.467 -1.546,-0.475l0,0.884c0.024,0.008 0.062,0.023 0.115,0.039c0.606,0.223 1.325,0.289 2.11,0.195c0.495,-0.078 0.871,-0.292 1.116,-0.634c0.296,-0.396 0.335,-1.062 0.091,-1.515c-0.122,-0.223 -0.343,-0.437 -0.734,-0.573c-0.446,-0.155 -0.944,-0.124 -1.166,-0.175c-0.237,-0.052 -0.31,-0.177 -0.326,-0.207" style="fill:#fff;fill-rule:nonzero;"/><path d="M63.262,11.782c-0.418,0 -0.587,-0.431 -0.587,-0.431c0,0 -0.427,0.571 -1.356,0.571c-0.258,0 -0.527,-0.042 -0.777,-0.122c-0.457,-0.16 -0.67,-0.646 -0.679,-1.055l0,-2.406c-0.001,-0.032 -0.079,-0.448 -0.279,-0.652l0,-0.118l1.629,0c0,0 0.001,2.979 0.001,3.128c0,0.15 0.13,0.415 0.573,0.415c0.445,0 0.909,-0.423 0.909,-1.112l0,-2.41l1.362,0l0,4.192l-0.796,0Z" style="fill:#fff;fill-rule:nonzero;"/><path d="M31.808,8.248c-0.04,-0.09 -0.191,-0.446 -0.504,-0.647c-0.294,-0.186 -0.746,-0.206 -0.892,-0.203c-0.383,0.007 -0.717,0.18 -0.742,0.18l0,0.797c0.147,-0.011 0.929,-0.346 0.929,0.995l0,0.425c-0.007,0.337 -0.031,0.614 -0.079,0.778c-0.062,0.183 -0.229,0.372 -0.4,0.478c-0.051,0.031 -0.179,0.103 -0.329,0.089c-0.125,-0.013 -0.14,-0.097 -0.157,-0.139c-0.047,-0.111 -0.672,-3.085 -0.672,-3.085l-1.1,0.664c0,0 0.544,2.019 0.668,2.492c0.147,0.549 0.677,0.788 1.248,0.788c0.57,0 1.137,-0.132 1.547,-0.498c0.225,-0.201 0.398,-0.441 0.501,-0.715c0.076,-0.202 0.094,-0.434 0.094,-0.583c0,-0.307 0.001,-1.038 0.001,-1.039c0,-0.267 -0.016,-0.519 -0.113,-0.777" style="fill:#fff;fill-rule:nonzero;"/><path d="M21.616,7.369c-1.864,0 -2.148,0.829 -2.148,0.829l0.664,0.445c0,0 -0.507,0.191 -0.507,0.839l0,2.29l1.36,0l0,-2.62c0.022,-0.254 0.341,-0.434 0.341,-0.434l-0.293,-0.244c0.076,-0.238 0.267,-0.412 0.608,-0.412c0.435,0 0.64,0.334 0.64,0.761l0,2.949l1.38,0l0,-3.292c0,-0.571 -0.516,-1.111 -2.045,-1.111" style="fill:#fff;fill-rule:nonzero;"/><path d="M57.077,7.369c-1.81,0 -2.084,0.829 -2.084,0.829l0.663,0.445c0,0 -0.506,0.191 -0.506,0.839l0,2.29l1.359,0l0,-2.614c0.018,-0.257 0.343,-0.44 0.343,-0.44l-0.295,-0.245c0.078,-0.237 0.257,-0.411 0.624,-0.411c0.529,0 0.67,0.401 0.67,0.761l0,2.949l1.381,0l0,-3.292c0,-0.507 -0.374,-1.111 -2.155,-1.111" style="fill:#fff;fill-rule:nonzero;"/><path d="M46.725,11.853c1.016,-0.037 2.046,-0.182 2.046,-1.176l0,-4.731l-1.378,0l0,4.515c0,0.588 -0.319,0.665 -0.656,0.665c-0.336,0 -0.631,-0.188 -0.631,-0.622l0,-2.935l-1.655,0l0,0.065c0.119,0.104 0.276,0.314 0.276,0.523l0,2.52c0,1.048 1.188,1.148 1.963,1.176l0.035,0Z" style="fill:#fff;fill-rule:nonzero;"/><path d="M71.845,11.206c-0.207,0.09 -0.526,0.062 -0.758,-0.071c-0.342,-0.271 -0.365,-0.758 -0.243,-1.096c0.144,-0.277 0.391,-0.397 0.645,-0.48l0,-0.583c-0.097,0.002 -0.189,0.016 -0.279,0.031c-0.041,0.006 -0.081,0.011 -0.121,0.017c-0.139,-0.014 -0.241,-0.069 -0.306,-0.159c-0.073,-0.101 -0.099,-0.247 -0.067,-0.391c0.026,-0.125 0.095,-0.228 0.191,-0.288c0.094,-0.058 0.199,-0.086 0.319,-0.086c0.24,0 0.431,0.165 0.431,0.165l0,-0.692c-0.099,-0.032 -0.427,-0.153 -1.01,-0.105c-0.769,0.062 -1.022,0.429 -1.12,0.662c-0.133,0.284 -0.071,0.673 0.146,0.928c0.08,0.086 0.116,0.125 0.295,0.226l0.102,0.059l-0.106,0.053c-0.001,0 -0.083,0.042 -0.184,0.107c-0.327,0.206 -0.421,0.801 -0.361,1.134c0.049,0.491 0.477,0.977 0.973,1.11c0.36,0.095 0.753,0.145 1.136,0.145c0.526,0 1.032,-0.093 1.462,-0.269c0.344,-0.185 0.646,-0.481 0.646,-1.085c0,-0.421 -0.001,-2.948 -0.001,-2.948l-1.368,0l0,3.021c0,0.204 -0.181,0.514 -0.422,0.595" style="fill:#fff;fill-rule:nonzero;"/><path d="M66.704,7.369c-1.81,0 -2.083,0.829 -2.083,0.829l0.664,0.445c0,0 -0.509,0.191 -0.509,0.839l0,1.553c-0.011,0.079 -0.091,0.448 -0.277,0.638l0,0.099l1.269,0c0.35,0 0.369,-0.511 0.369,-0.511l0,-1.895l0.005,-0.187c0,-0.269 0.343,-0.461 0.343,-0.461l-0.298,-0.249c0.077,-0.235 0.257,-0.407 0.621,-0.407c0.53,0 0.67,0.401 0.67,0.761l0,2.949l1.382,0l0,-3.292c0,-0.507 -0.374,-1.111 -2.156,-1.111" style="fill:#fff;fill-rule:nonzero;"/><path d="M25.731,12.41l0,0.234l0.035,0c0.136,0 0.276,0.084 0.276,0.275l0,0.938l1.223,0l0,-1.003c0,-0.314 -0.203,-0.443 -0.454,-0.443c-0.026,0 -1.08,-0.001 -1.08,-0.001" style="fill:#fff;fill-rule:nonzero;"/><path d="M59.025,6.401c-0.141,0 -0.281,-0.014 -0.417,-0.045c-0.234,-0.05 -0.381,-0.2 -0.397,-0.4c0,-0.018 0,-0.036 0.001,-0.054l-1.167,0c0.038,0.188 0.107,0.366 0.213,0.507c0.242,0.338 0.612,0.548 1.098,0.624c0.774,0.093 1.481,0.029 2.077,-0.192l0,-0.846c-0.241,0.128 -0.834,0.406 -1.408,0.406" style="fill:#fff;fill-rule:nonzero;"/><path d="M68.621,6.401c-0.141,0 -0.281,-0.014 -0.416,-0.045c-0.235,-0.05 -0.382,-0.2 -0.397,-0.4c-0.001,-0.018 -0.001,-0.036 0,-0.054l-1.166,0c0.038,0.188 0.107,0.366 0.212,0.507c0.242,0.338 0.613,0.548 1.099,0.624c0.773,0.093 1.48,0.029 2.076,-0.192l0,-0.846c-0.24,0.128 -0.833,0.406 -1.408,0.406" style="fill:#fff;fill-rule:nonzero;"/><path d="M54.615,8.383l-0.046,0.015c-0.372,0.123 -0.678,0.19 -0.863,0.19c-0.277,0 -0.442,-0.191 -0.448,-0.199l-0.064,-0.075l-0.078,0.029l0,0.667l0.01,0.029l0.009,0.01c0.022,0.027 0.227,0.255 0.571,0.255c0.204,0 0.518,-0.068 0.909,-0.196l0,-0.725Z" style="fill:#fff;fill-rule:nonzero;"/><path d="M54.615,10.126l-0.046,0.015c-0.372,0.122 -0.678,0.189 -0.863,0.189c-0.277,0 -0.442,-0.19 -0.448,-0.198l-0.064,-0.075l-0.078,0.029l0,0.666l0.01,0.029l0.009,0.01c0.022,0.026 0.227,0.255 0.571,0.255c0.204,0 0.518,-0.067 0.909,-0.195l0,-0.725Z" style="fill:#fff;fill-rule:nonzero;"/></svg>