<?xml version="1.0" encoding="utf-8"?>
<!-- Generator: Adobe Illustrator 19.0.0, SVG Export Plug-In . SVG Version: 6.00 Build 0)  -->
<svg version="1.1" id="Layer_1" xmlns="http://www.w3.org/2000/svg" xmlns:xlink="http://www.w3.org/1999/xlink" x="0px" y="0px"
	 viewBox="-179 340 294.2 100" style="enable-background:new -179 340 294.2 100;" xml:space="preserve">
<style type="text/css">
	.st0{fill:none;}
	.st1{fill:#005288;}
</style>
<g>
	<rect x="-179" y="340" class="st0" width="294.2" height="100"/>
	<g>
		<path class="st1" d="M-113.7,389.5c0,14.3-11.6,25.8-25.8,25.8s-25.8-11.6-25.8-25.8c0-14.3,11.6-25.8,25.8-25.8
			C-125.2,363.7-113.7,375.2-113.7,389.5 M-120.7,404.1c-0.3-0.1-0.8-0.1-1.2-0.1c-1.5,0-3,0.3-4.5,1.2c-0.9,0.5-2.1,1.2-3.4,2
			c-3.4,2.1-7.2,4.4-11,4.4c-4.5,0-7.2-1.4-11.2-3.5l-1.5-0.8c-0.9-0.5-1.9-0.8-2.7-1c4.3,4.5,10.5,7.1,16.7,7.1
			C-132.1,413.3-125.2,409.9-120.7,404.1 M-118.2,400c-1.4-0.6-2.8-0.9-4.2-0.9c-3.8,0-7,2.2-10.1,4.4c-0.8,0.6-1.7,1.2-2.6,1.7
			c-2.3,1.4-4.8,2.2-7.4,2.2c-3.1,0-5.7-1-6.6-1.5c-0.5-0.2-1-0.6-1.5-0.8c-1.9-1-3.7-2.1-5.9-2.1c-0.6,0-1.3,0.1-2,0.2
			c0.2,0.3,0.6,0.8,0.8,1.2c1.5,0.1,3.1,0.6,4.9,1.4l1.5,0.8c3.8,2,6.3,3.3,10.6,3.3c3.4,0,7-2.2,10.2-4.2c1.3-0.8,2.4-1.5,3.5-2.1
			c1.7-0.8,3.5-1.3,5.1-1.3c0.7,0,1.4,0.1,2.1,0.2C-119.2,401.9-118.7,400.9-118.2,400 M-115.7,389.5c0-13-10.6-23.7-23.7-23.7
			c-13,0-23.7,10.7-23.7,23.7c0,4.5,1.3,8.8,3.6,12.7c0.9-0.3,1.9-0.5,2.8-0.5c2.6,0,4.7,1.2,6.5,2.2c0.6,0.3,1,0.6,1.6,0.8
			c0.8,0.5,3.1,1.4,6,1.4c2.4,0,4.7-0.7,6.6-2c0.7-0.5,1.3-0.9,2-1.4l0.5-0.3c2.4-1.7,4.9-3.5,7.8-4.3c1-0.3,2.1-0.5,3.1-0.5
			c1.6,0,3.1,0.3,4.8,1C-116.3,395.8-115.7,392.8-115.7,389.5 M-119.6,387.6c0,0-0.1,0.3-0.3,0.7l0,0c-0.1,0.1-0.1,0.2-0.2,0.3
			c-0.3,0.5-0.8,0.9-1.5,1.3c-0.1,0-0.1,0.1-0.2,0.1c-0.1,0.1-0.3,0.1-0.5,0.1c-0.7,0.2-1.6,0.5-2.8,0.5h-0.7c-0.7,0-1.3,0-2,0.1
			c-2.2,0-4.3,0.3-6,1.6c-1.4,0.9-2.6,2.3-3.8,3.3c-2.9,2.3-7.2,2.9-10.8,1.6c-2.1-0.8-4.3-2.4-5.5-4.5c-0.8-1.5-1.4-3.3-1.7-5
			c-0.5-1.4-2-2.7-3.5-2.9c0.1-0.2,0.2-0.5,0.5-0.6c1.3-1.5,3.3-2.3,5.2-1.7c1.6,0.5,2.3,2.2,3,3.5c0.3,0.6,0.9,1.2,1.7,1.2
			c0.5,0,1-0.3,1.2-0.8c0.2-0.7-0.2-1.3-0.7-1.9c-1.2-1.4-2.9-2.9-1.9-4.9c0.8-1.4,2.3-2.3,4-2.7c0,0,1.3-0.2,2-0.2h16.3
			c1.3-0.1,2.4-0.5,3.6-1l0,0c0,1.3-0.9,2.4-2.1,3c-0.6,0.2-1.7,0.6-2.3,0.6c-0.5,0-14,0-14,0c-0.3,0-0.7,0.1-0.8,0.5
			c-0.1,0.1-0.1,0.5,0,0.6c0.2,0.3,0.5,0.3,0.9,0.3h14.2c1.2,0,2.1-0.5,3-0.9c0.1,0.3-0.2,0.9-0.5,1.4c-1,1.4-2.6,2-4.2,2h-10
			c-0.5,0-0.7,0.2-0.8,0.6c0,0.2,0,0.5,0.1,0.6c0.2,0.2,0.6,0.2,0.9,0.2h9.5c1.3,0,2.6-0.3,3.7-0.8c0,0.7-0.6,1.2-1,1.6
			c-1.4,1.3-3.1,1.6-5.1,1.6h-5.1c-0.3,0-0.6,0.1-0.8,0.3c-0.1,0.1-0.2,0.5-0.1,0.7c0.2,0.2,0.6,0.3,0.9,0.3h14.7
			C-122.7,388.4-121.4,388.3-119.6,387.6 M-154.2,384.2c0-0.3-0.3-0.7-0.7-0.7c-0.3,0-0.7,0.3-0.7,0.7c0,0.3,0.3,0.7,0.7,0.7
			C-154.6,384.9-154.2,384.5-154.2,384.2"/>
		<path class="st1" d="M-105,410.9l-0.1-0.1c0-3.5,0.1-6.9,0.1-10.3c0-3.4,0-4.3-0.1-6.6l0.1-0.1h3.4c0.8,0,2.3,0,3.1,0
			c2.3,0,4,0.3,5,1.4c0.8,0.9,0.9,2,0.9,2.7c0,0.6-0.1,1.2-0.3,1.7c-0.6,1.3-1.6,1.7-2.4,2.1c0.5,0.1,1,0.2,1.5,0.5
			c1.4,0.7,2.1,2.1,2.1,3.7c0,1.4-0.5,2.9-2.1,4.1c-1.9,1.3-4.7,1.2-6.9,1.2h-4.3V410.9z M-101,400.6c0.9,0,2.2,0,2.9-0.2
			c0.3-0.1,1.3-0.7,1.3-2c0-1.6-1.2-2.1-2.6-2.1c-0.5,0-1,0-1.6,0V400.6z M-101,408.1c1,0,2.3,0,3.1-0.2c0.9-0.3,1.5-1,1.5-2.1
			c0-0.8-0.2-1.5-0.9-2c-0.7-0.5-1.7-0.5-3.6-0.3v4.7H-101z"/>
		<path class="st1" d="M-79.2,405.5c0,2.3,0,2.9,0.1,5.2l-0.1,0.2c-1.6,0-2.1,0-3.8,0.1l-0.1-0.1V410c-0.5,0.5-1.5,1.3-3.4,1.3
			c-2.3,0-4.3-1.6-4.3-4.3c0-1,0.5-2.4,1.9-3.4c1.5-0.9,2.8-1.2,5.7-1.5c0-0.3-0.1-0.8-0.3-1c-0.3-0.3-0.7-0.5-1.6-0.5
			c-1.6,0-3.3,0.6-4.1,0.9l-0.1-0.1l0.1-2.7l0.1-0.2c1.4-0.5,2.7-0.8,4.8-0.8c3.1,0,4.1,0.9,4.5,1.7c0.6,1,0.6,2,0.6,4.2
			L-79.2,405.5z M-83.3,404.5c-1.6,0.2-3.6,0.5-3.6,2.1c0,1,0.7,1.5,1.6,1.5c0.8,0,1.5-0.3,2-0.6V404.5z"/>
		<path class="st1" d="M-65.3,410.8c-2,0-2.3,0-4,0.1l-0.1-0.1c0-0.8,0-1.6,0-2.6c0-0.9,0-4.3-0.1-5c-0.1-0.9-0.2-2.3-1.5-2.3
			c-0.8,0-1.4,0.5-1.9,0.7c0,4.3,0,5.3,0.2,9.1l-0.1,0.1c-2,0-2.3,0-4.1,0.1l-0.1-0.1c0-1.5,0-3.1,0-4.7c0-4-0.1-5.5-0.3-7.6
			l0.1-0.1c1.9-0.2,2.2-0.3,4.1-0.7l0.2,0.1v1.4c1.2-0.7,2.4-1.4,3.8-1.4c0.9,0,2.2,0.2,3,1.5c0.6,1,0.6,2.1,0.7,4.4v1.9
			c0,2.3,0,3,0.1,5.2L-65.3,410.8z"/>
		<path class="st1" d="M-37.1,410.8l-4.4,0.1l-0.2-0.1c-1.3-2.6-1.5-3.1-3.6-7v2.8l0.1,4.1v0.2c-1.9,0-2.3,0-4,0.1l-0.1-0.1
			c0-4,0-7.9,0-11.9c0-3.1-0.1-4.3-0.3-6.6l0.1-0.1l4.2-0.6l0.2,0.1c-0.1,3.7-0.1,4.7-0.1,9.2v2.7c1.2-1.6,1.4-2.1,3.3-5.3l0.2-0.1
			h4l0.1,0.2c-1.7,2.2-1.9,2.4-3.6,4.8c1.9,3.4,2.1,3.7,4.4,7.7L-37.1,410.8z"/>
		<path class="st1" d="M-30.9,411.2c-3.5,0-4.7-1.3-5.3-2.2c-0.9-1.3-1.2-2.9-1.2-4.4c0-4.4,2.4-6.7,6.6-6.7c0.6,0,1.9,0,3,0.5
			c3.4,1.4,3.4,5.2,3.4,6.2C-24.3,408-25.7,411.2-30.9,411.2 M-29.2,401c-0.3-0.3-0.9-0.8-1.5-0.8c-0.8,0-1.4,0.5-1.7,1
			c-0.5,0.8-0.5,2.4-0.5,3.1c0,2.3,0.5,3.1,0.9,3.6c0.3,0.2,0.7,0.6,1.4,0.6c2,0,2.3-2.2,2.3-4.2C-28.5,403.1-28.7,401.7-29.2,401"
			/>
		<path class="st1" d="M-10.4,410.8l-4.4,0.1l-0.2-0.1c-1.3-2.6-1.5-3.1-3.6-7v2.8l0.1,4.1v0.2c-1.9,0-2.3,0-4,0.1l-0.1-0.1
			c0-4,0-7.9,0-11.9c0-3.1-0.1-4.3-0.3-6.6l0.1-0.1l4.2-0.6l0.2,0.1c-0.1,3.7-0.1,4.7-0.1,9.2v2.7c1.2-1.6,1.4-2.1,3.3-5.3l0.2-0.1
			h4l0.1,0.2c-1.7,2.2-1.9,2.4-3.6,4.8c1.9,3.4,2.1,3.7,4.4,7.7L-10.4,410.8z"/>
		<path class="st1" d="M0.3,393.8c-0.1,3.4-0.1,6.7-0.1,10.1c0,3.5,0,4.7,0.1,6.9l-0.1,0.1c-2,0-2.6,0-4.3,0.1l-0.1-0.1
			c0.1-2.6,0.1-4.1,0.1-6.9c0-6.2-0.1-7.4-0.2-10.1l0.1-0.1c1.7,0,2.3,0,4.4-0.1L0.3,393.8z"/>
		<path class="st1" d="M14.7,410.8c-2,0-2.3,0-4,0.1l-0.1-0.1c0-0.8,0-1.6,0-2.6c0-0.9,0-4.3-0.1-5c-0.1-0.9-0.2-2.3-1.5-2.3
			c-0.8,0-1.4,0.5-1.9,0.7c0,4.3,0,5.3,0.2,9.1l-0.1,0.1c-2,0-2.3,0-4.1,0.1l-0.1-0.1c0-1.5,0-3.1,0-4.7c0-4-0.1-5.5-0.3-7.6
			l0.1-0.1c1.9-0.2,2.2-0.3,4.1-0.7l0.2,0.1v1.4c1.2-0.7,2.4-1.4,3.8-1.4c0.9,0,2.2,0.2,3,1.5c0.6,1,0.6,2.1,0.7,4.4v1.9
			c0,2.3,0,3,0.2,5.2L14.7,410.8z"/>
		<path class="st1" d="M23.2,402.9c1.3,0.5,3.3,1.2,3.3,3.8c0,0.1,0,0.3,0,0.6c-0.5,3.5-4.1,3.8-5.9,3.8c-1.7,0-2.8-0.3-4-0.8
			l-0.1-0.2c0.1-1.2,0.1-1.5,0.1-2.8l0.2-0.1c0.3,0.3,0.6,0.5,0.9,0.7c0.9,0.5,1.9,0.7,2.6,0.7c1.4,0,2-0.7,2-1.3
			c0-0.9-1-1.3-1.7-1.5l-0.9-0.3c-1.2-0.5-3.1-1.2-3.1-3.8c0-0.9,0.3-1.7,0.7-2.1c1.3-1.9,3.6-2,4.9-2c1.6,0,2.6,0.3,3.7,0.6
			l0.1,0.1l-0.2,2.7l-0.2,0.1c-0.6-0.3-1.5-1-3-1s-1.7,0.8-1.7,1c0,0.7,0.7,0.9,1.5,1.3L23.2,402.9z"/>
		<path class="st1" d="M39.6,398c0,2.3-0.1,4.5-0.1,6.9c0,3.1,0,4.1,0.1,5.8l-0.1,0.1c-1.6,0-2.1,0-3.8,0.1l-0.1-0.1v-1
			c-0.9,0.7-1.9,1.5-3.6,1.5c-1.2,0-2.3-0.3-3.1-1.3c-0.9-1-1-2.1-0.9-4.8v-1.7c0-2.4,0-3.1-0.1-5.2l0.1-0.1l4-0.2l0.1,0.2v4.9
			c0,0.6,0,1.3,0,1.9c0,1.4,0,3.3,1.7,3.3c0.7,0,1.2-0.3,1.9-0.8c0-0.9,0-1.4,0-2.1c0-0.3,0-4.3-0.1-7l0.1-0.1l4-0.2L39.6,398z"/>
		<path class="st1" d="M48.6,402c-0.3-0.2-0.6-0.3-1-0.3c-1.6,0-1.6,1.6-1.6,2.7c0,1.6,0.1,4.4,0.2,6.4l-0.1,0.1c-2,0-2.3,0-4.2,0.1
			l-0.1-0.1c0-2,0.1-4.1,0.1-6c0-3.4-0.1-4.4-0.2-6.3l0.1-0.1c1.7-0.2,2.2-0.3,4.1-0.7l0.2,0.2l-0.1,2.2c0.8-1.7,1.9-2.3,2.9-2.3
			c0.1,0,0.3,0,0.5,0l0.1,0.1l-0.7,4L48.6,402z"/>
		<path class="st1" d="M61,405.5c0,2.3,0,2.9,0.1,5.2l-0.1,0.1c-1.6,0-2.1,0-3.8,0.1l-0.1-0.1v-0.9c-0.5,0.5-1.5,1.3-3.4,1.3
			c-2.3,0-4.3-1.6-4.3-4.3c0-1,0.5-2.4,1.9-3.4c1.5-0.9,2.8-1.2,5.7-1.5c0-0.3-0.1-0.8-0.3-1c-0.3-0.3-0.7-0.5-1.6-0.5
			c-1.6,0-3.3,0.6-4.1,0.9l-0.2-0.1l0.1-2.7l0.1-0.2c1.4-0.5,2.7-0.8,4.8-0.8c3.1,0,4.1,0.9,4.5,1.7c0.6,1,0.6,2,0.6,4.2L61,405.5z
			 M57,404.5c-1.6,0.2-3.6,0.5-3.6,2.1c0,1,0.7,1.5,1.6,1.5c0.8,0,1.5-0.3,2-0.6L57,404.5L57,404.5z"/>
		<path class="st1" d="M74.7,410.8c-2,0-2.3,0-4,0.1l-0.1-0.1c0-0.8,0-1.6,0-2.6c0-0.9,0-4.3-0.1-5c-0.1-0.9-0.2-2.3-1.5-2.3
			c-0.8,0-1.4,0.5-1.9,0.7c0,4.3,0,5.3,0.2,9.1l-0.1,0.1c-2,0-2.3,0-4.1,0.1l-0.1-0.1c0-1.5,0-3.1,0-4.7c0-4-0.1-5.5-0.3-7.6
			l0.1-0.1c1.9-0.2,2.2-0.3,4.1-0.7l0.2,0.1v1.4c1.2-0.7,2.4-1.4,3.8-1.4c0.9,0,2.2,0.2,3,1.5c0.6,1,0.6,2.1,0.7,4.4v1.9
			c0,2.3,0,3,0.1,5.2L74.7,410.8z"/>
		<path class="st1" d="M86.1,407.6l-0.1,2.9l-0.1,0.1c-1,0.2-1.9,0.6-3.1,0.6c-5.5,0-7-3.8-7-6.6c0-2.4,1.2-6.9,6.9-6.9
			c1.4,0,2.3,0.3,3.4,0.6l0.1,0.1c-0.2,1.3-0.2,1.6-0.3,2.9l-0.2,0.1c-0.7-0.5-1.3-0.9-2.3-0.9c-2.3,0-3.1,2.1-3.1,3.8
			c0,1.5,0.6,3.7,3.3,3.7c1.3,0,1.9-0.3,2.6-0.8L86.1,407.6z"/>
		<path class="st1" d="M98.7,407.3l-0.1,2.8l-0.1,0.2c-1.3,0.5-2.2,0.9-4.2,0.9c-1.7,0-5.1-0.3-6.5-3.6c-0.3-0.8-0.6-2.1-0.6-3.1
			c0-4.2,2.6-6.7,6.4-6.7c0.6,0,1.2,0,1.7,0.2c0.8,0.2,2.7,0.8,3.6,3.6c0.3,1.2,0.3,2.4,0.3,3.6l-0.1,0.1l-7.9,0.1
			c0.1,0.5,0.1,0.9,0.6,1.5c0.6,0.9,1.6,1.3,3,1.3c1.7,0,2.9-0.6,3.8-1L98.7,407.3z M95.2,402.8c0-0.6,0-1.2-0.3-1.6
			c-0.2-0.5-0.7-0.8-1.5-0.8c-0.3,0-0.7,0.1-0.9,0.2c-0.9,0.6-1,1.6-1.2,2.3L95.2,402.8z"/>
		<path class="st1" d="M-51.4,404.1c0-2.8,0-4.2,0.1-6.4l-0.1-0.1c-5.8-0.1-7.7-0.1-9.7,1.2c-2.2,1.4-2.7,4-2.7,5.8
			c0,3.4,1.7,6.2,5.3,6.2c1.5,0,2.3-0.5,3-0.9l0,0v0.3l0,0c0,1.3-0.1,2.2-0.7,2.8c-0.6,0.6-1.3,0.7-1.9,0.7c-1.6,0-2.6-0.7-3-1h-0.2
			c-0.1,0.5-0.1,0.9-0.2,1.3c-0.1,0.3-0.2,0.8-0.3,1.2l0.1,0.2c0.5,0.3,1,0.6,2.3,0.9c0.8,0.1,1.7,0.2,2.6,0.2c2.1,0,4-0.7,4.8-2.2
			c0.5-0.7,0.6-1.6,0.7-2.8l0,0c0-0.2,0-1.2,0-2l0,0C-51.4,407.9-51.4,406-51.4,404.1 M-56.9,407.9c-2.6,0-2.6-3.1-2.6-3.8
			c0-1.5,0.6-3.7,3.3-3.7c0.2,0,0.5,0,0.7,0v7C-56,407.7-56.3,407.9-56.9,407.9"/>
		<g>
			<path class="st1" d="M-18.3,368.5v12l-3.5-10.7h-0.8l-3.5,10.8v-12.1h-6.3v0.3c0.7,0.7,1.2,1.6,1.2,2.3v8.7
				c0,2.4,0.1,4.4,4.4,4.4h2.6l1.9-7l2.2,7h3c1.4,0,3.8-0.7,3.8-3.3v-12.6H-18.3z"/>
			<path class="st1" d="M-51.7,381.7v-13.1h-5v14v1.9h6.3v-0.3C-51.2,383.6-51.7,382.6-51.7,381.7"/>
			<path class="st1" d="M-83.1,372.8c-0.2-0.5-0.2-1.2,0-1.5c0.1-0.1,0.6-0.8,2.3-0.8s4.7,1,4.8,1v-3c-1.5-0.5-3-0.7-4.5-0.7
				c-1.4,0-2.7,0.2-3.8,0.6c-2.3,0.8-3.4,2.1-3.7,4.4c0,0.3-0.2,2.3,1.2,3.7c1.5,1.5,3.8,1.5,4.4,1.5c1,0,2,0.1,2.9,0.6
				c0.6,0.2,1,0.9,1,1.7c0,0.8-0.6,1.4-1.5,1.5c-0.5,0.1-1,0.1-1.6,0.1c-2.8,0-5.8-1.7-5.8-1.7v3.4c0.1,0,0.2,0.1,0.5,0.1
				c2.3,0.8,5,1,7.9,0.7c1.9-0.3,3.3-1,4.2-2.4c1.2-1.5,1.3-4,0.3-5.7c-0.5-0.8-1.3-1.6-2.8-2.2c-1.6-0.6-3.6-0.5-4.4-0.7
				C-82.7,373.4-83,372.9-83.1,372.8"/>
			<path class="st1" d="M-37.7,368.3c-3.3,0-6.2,3.8-6.2,3.8v-3.5h-6v0.3c0.5,0.3,0.9,1.2,1,2.4v13h5v-5.1c0-2,0.1-3.5,0.9-4.5
				c0,0,1.6-2.3,3-2.3c1.3,0,1.5,1.3,1.5,1.6s0,10.5,0,10.5h5v-11.4C-33.5,371.2-34.5,368.3-37.7,368.3"/>
			<path class="st1" d="M11.5,372.8c-0.2-0.5-0.2-1.2,0-1.5c0.1-0.1,0.6-0.8,2.3-0.8s4.7,1,4.8,1v-3c-1.4-0.5-3-0.7-4.5-0.7
				c-1.4,0-2.7,0.2-3.8,0.6c-2.3,0.8-3.4,2.1-3.7,4.4c0,0.3-0.2,2.3,1.2,3.7c1.5,1.5,3.8,1.5,4.4,1.5c1,0,2,0.1,2.9,0.6
				c0.6,0.2,1,0.9,1,1.7c-0.1,0.8-0.6,1.4-1.5,1.5c-0.5,0.1-1,0.1-1.6,0.1c-2.8,0-5.8-1.7-5.8-1.7v3.4c0.1,0,0.2,0.1,0.5,0.1
				c2.3,0.8,5,1,7.9,0.7c1.9-0.3,3.3-1,4.2-2.4c1.2-1.5,1.3-4,0.3-5.7c-0.5-0.8-1.3-1.6-2.8-2.2c-1.6-0.6-3.6-0.5-4.4-0.7
				C11.8,373.4,11.5,372.9,11.5,372.8"/>
			<path class="st1" d="M59.4,384.4c-1.6,0-2.2-1.6-2.2-1.6S55.5,385,52,385c-0.9,0-2-0.1-2.9-0.5c-1.7-0.6-2.6-2.4-2.6-4v-9.2
				c0-0.1-0.3-1.7-1-2.4v-0.5h6.2c0,0,0,11.3,0,11.7c0,0.6,0.5,1.5,2.2,1.5c1.6,0,3.4-1.6,3.4-4.2v-9.1h5.1v15.8h-3V384.4z"/>
			<path class="st1" d="M-59.1,371c-0.1-0.3-0.7-1.6-1.9-2.4c-1.2-0.7-2.8-0.8-3.4-0.8c-1.4,0-2.7,0.7-2.8,0.7v3
				c0.6,0,3.5-1.3,3.5,3.7v1.6c0,1.3-0.1,2.3-0.3,2.9c-0.2,0.7-0.8,1.4-1.5,1.7c-0.2,0.1-0.7,0.3-1.3,0.3c-0.5,0-0.6-0.3-0.6-0.5
				c-0.2-0.5-2.6-11.6-2.6-11.6l-4.2,2.6c0,0,2.1,7.6,2.6,9.4c0.6,2.1,2.6,3,4.7,3s4.3-0.5,5.8-1.9c0.8-0.8,1.5-1.6,1.9-2.7
				c0.2-0.8,0.3-1.6,0.3-2.2c0-1.2,0-4,0-4C-58.8,373-58.8,372.1-59.1,371"/>
			<path class="st1" d="M-97.6,367.8c-7,0-8.1,3.1-8.1,3.1l2.6,1.6c0,0-1.9,0.7-1.9,3.1v8.6h5.1v-9.9c0.1-0.9,1.3-1.6,1.3-1.6
				l-1.2-0.9c0.2-0.9,1-1.5,2.3-1.5c1.6,0,2.4,1.3,2.4,2.9v11.2h5.2V372C-89.8,369.8-91.8,367.8-97.6,367.8"/>
			<path class="st1" d="M36,367.8c-6.9,0-7.9,3.1-7.9,3.1l2.4,1.6c0,0-1.9,0.7-1.9,3.1v8.6h5.1v-9.9c0.1-0.9,1.3-1.6,1.3-1.6
				l-1.2-0.9c0.3-0.9,0.9-1.5,2.3-1.5c2,0,2.6,1.5,2.6,2.9v11.2H44V372C44.1,370,42.7,367.8,36,367.8"/>
			<path class="st1" d="M-3,384.7c3.8-0.1,7.7-0.7,7.7-4.4v-17.8h-5.2v17c0,2.2-1.2,2.6-2.4,2.6s-2.3-0.7-2.3-2.3v-11h-6.3v0.2
				c0.5,0.3,1,1.2,1,2v9.5c0,4,4.4,4.3,7.4,4.4H-3V384.7z"/>
			<path class="st1" d="M91.7,382.2c-0.8,0.3-2,0.2-2.9-0.2c-1.3-1-1.4-2.9-0.9-4.1c0.6-1,1.5-1.5,2.4-1.9v-2.2
				c-0.3,0-0.7,0.1-1,0.1c-0.1,0-0.3,0-0.5,0.1c-0.6,0-0.9-0.2-1.2-0.6c-0.2-0.3-0.3-0.9-0.2-1.5c0.1-0.5,0.3-0.8,0.7-1
				c0.3-0.2,0.7-0.3,1.2-0.3c0.9,0,1.6,0.6,1.6,0.6v-2.6c-0.3-0.1-1.6-0.6-3.8-0.3c-2.9,0.2-3.8,1.6-4.2,2.4c-0.5,1-0.2,2.6,0.6,3.5
				c0.3,0.3,0.5,0.5,1.2,0.8l0.3,0.2l-0.3,0.2c0,0-0.3,0.1-0.7,0.3c-1.3,0.8-1.6,3-1.4,4.3c0.2,1.9,1.7,3.7,3.7,4.2
				c1.4,0.3,2.8,0.6,4.3,0.6c2,0,3.8-0.3,5.5-1c1.3-0.7,2.4-1.9,2.4-4.1c0-1.6,0-11,0-11h-5.1v11.4
				C93.2,380.7,92.6,381.9,91.7,382.2"/>
			<path class="st1" d="M72.3,367.8c-6.9,0-7.8,3.1-7.8,3.1l2.6,1.6c0,0-1.9,0.7-1.9,3.1v5.8c0,0.3-0.3,1.7-1,2.4v0.3h0.5h4.2h0.1
				c1.3,0,1.4-2,1.4-2v-7.1v-0.7c0-1,1.3-1.7,1.3-1.7l-1.2-0.9c0.2-0.9,0.9-1.5,2.3-1.5c2,0,2.6,1.5,2.6,2.9v11.2h5.2V372
				C80.4,370,79,367.8,72.3,367.8"/>
			<path class="st1" d="M-82,386.7v0.9c0,0,0,0,0.1,0c0.5,0,1,0.3,1,1v3.5h4.7v-3.7c0-1.2-0.8-1.6-1.7-1.6
				C-78.1,386.7-82,386.7-82,386.7"/>
			<path class="st1" d="M43.3,364.1c-0.6,0-1,0-1.6-0.1c-0.9-0.2-1.4-0.7-1.5-1.5c0-0.1,0-0.1,0-0.2h-4.4c0.1,0.7,0.3,1.4,0.8,1.9
				c0.9,1.3,2.3,2.1,4.2,2.3c2.9,0.3,5.6,0.1,7.8-0.7v-3.1C47.7,363,45.5,364.1,43.3,364.1"/>
			<path class="st1" d="M79.5,364.1c-0.6,0-1,0-1.5-0.1c-0.9-0.2-1.4-0.7-1.5-1.5c0-0.1,0-0.1,0-0.2H72c0.1,0.7,0.3,1.4,0.8,1.9
				c0.9,1.3,2.3,2.1,4.2,2.3c2.9,0.3,5.6,0.1,7.8-0.7v-3.1C83.9,363,81.7,364.1,79.5,364.1"/>
		</g>
		<g>
			<path class="st1" d="M26.7,371.6h-0.2c-1.4,0.5-2.6,0.7-3.3,0.7c-1,0-1.6-0.7-1.7-0.7l-0.2-0.2l-0.3,0.1v2.6v0.1l0,0
				c0.1,0.1,0.8,0.9,2.1,0.9c0.8,0,2-0.2,3.4-0.7v-2.8H26.7z"/>
			<path class="st1" d="M26.7,378.1h-0.2c-1.4,0.5-2.6,0.7-3.3,0.7c-1,0-1.6-0.7-1.7-0.7l-0.2-0.2l-0.3,0.1v2.6v0.1l0,0
				c0.1,0.1,0.8,0.9,2.1,0.9c0.8,0,2-0.2,3.4-0.7v-2.8H26.7z"/>
		</g>
	</g>
</g>
</svg>
