<?xml version="1.0" encoding="utf-8"?>
<!-- Generator: Adobe Illustrator 19.0.0, SVG Export Plug-In . SVG Version: 6.00 Build 0)  -->
<svg version="1.1" id="Layer_1" xmlns="http://www.w3.org/2000/svg" xmlns:xlink="http://www.w3.org/1999/xlink" x="0px" y="0px"
	 viewBox="-179 195 720.8 245" style="enable-background:new -179 195 720.8 245;" xml:space="preserve">
<style type="text/css">
	.st0{fill:none;}
	.st1{fill:#005288;}
</style>
<g>
	<rect x="-179" y="195" class="st0" width="720.8" height="245"/>
	<g>
		<path class="st1" d="M-18.9,316.4c0,35-28.5,63.2-63.2,63.2s-63.2-28.5-63.2-63.2c0-35,28.5-63.2,63.2-63.2
			C-47.1,253.1-18.9,281.3-18.9,316.4 M-36.3,352c-0.9-0.3-2-0.3-2.8-0.3c-3.7,0-7.4,0.9-11.1,2.8c-2.3,1.1-5.1,2.8-8.3,4.8
			c-8.3,5.1-17.7,10.8-27.1,10.8c-11.1,0-17.7-3.4-27.3-8.5l-3.7-2c-2.3-1.1-4.6-2-6.6-2.6c10.5,11.1,25.6,17.4,41,17.4
			C-64.2,374.5-47.1,366.2-36.3,352 M-30,342c-3.4-1.4-6.8-2.3-10.3-2.3c-9.4,0-17.1,5.4-24.8,10.8c-2,1.4-4.3,2.8-6.3,4.3
			c-5.7,3.4-11.7,5.4-18.2,5.4c-7.7,0-14-2.6-16.2-3.7c-1.1-0.6-2.6-1.4-3.7-2c-4.6-2.6-9.1-5.1-14.5-5.1c-1.4,0-3.1,0.3-4.8,0.6
			c0.6,0.9,1.4,2,2,2.8c3.7,0.3,7.7,1.4,12,3.4l3.7,2c9.4,4.8,15.4,8,25.9,8c8.3,0,17.1-5.4,25.1-10.3c3.1-2,6-3.7,8.5-5.1
			c4.3-2,8.5-3.1,12.5-3.1c1.7,0,3.4,0.3,5.1,0.6C-32.6,346.6-31.1,344.3-30,342 M-24,316.4c0-31.9-25.9-58.1-58.1-58.1
			c-31.9,0-58.1,26.2-58.1,58.1c0,11.1,3.1,21.7,8.8,31.1c2.3-0.9,4.6-1.1,6.8-1.1c6.3,0,11.4,2.8,16,5.4c1.4,0.9,2.6,1.4,4,2
			c2,1.1,7.7,3.4,14.8,3.4c6,0,11.4-1.7,16.2-4.8c1.7-1.1,3.1-2.3,4.8-3.4l1.1-0.9c6-4.3,12-8.5,19.1-10.5c2.6-0.9,5.1-1.1,7.7-1.1
			c4,0,7.7,0.9,11.7,2.6C-25.4,331.7-24,324.3-24,316.4 M-33.4,311.5c0,0-0.3,0.9-0.9,1.7l0,0c-0.3,0.3-0.3,0.6-0.6,0.9
			c-0.9,1.1-2,2.3-3.7,3.1c-0.3,0-0.3,0.3-0.6,0.3c-0.3,0.3-0.9,0.3-1.1,0.3c-1.7,0.6-4,1.1-6.8,1.1h-1.7c-1.7,0-3.1,0-4.8,0.3
			c-5.4,0-10.5,0.9-14.8,4c-3.4,2.3-6.3,5.7-9.4,8c-7.1,5.7-17.7,7.1-26.5,4c-5.1-2-10.5-6-13.4-11.1c-2-3.7-3.4-8-4.3-12.2
			c-1.1-3.4-4.8-6.6-8.5-7.1c0.3-0.6,0.6-1.1,1.1-1.4c3.1-3.7,8-5.7,12.8-4.3c4,1.1,5.7,5.4,7.4,8.5c0.9,1.4,2.3,2.8,4.3,2.8
			c1.1,0,2.6-0.9,2.8-2c0.6-1.7-0.6-3.1-1.7-4.6c-2.8-3.4-7.1-7.1-4.6-12c2-3.4,5.7-5.7,9.7-6.6c0,0,3.1-0.6,4.8-0.6h39.9
			c3.1-0.3,6-1.1,8.8-2.6l0,0c0,3.1-2.3,6-5.1,7.4c-1.4,0.6-4.3,1.4-5.7,1.4c-1.1,0-34.2,0-34.2,0c-0.9,0-1.7,0.3-2,1.1
			c-0.3,0.3-0.3,1.1,0,1.4c0.6,0.9,1.1,0.9,2.3,0.9h34.8c2.8,0,5.1-1.1,7.4-2.3c0.3,0.9-0.6,2.3-1.1,3.4c-2.6,3.4-6.3,4.8-10.3,4.8
			h-24.5c-1.1,0-1.7,0.6-2,1.4c0,0.6,0,1.1,0.3,1.4c0.6,0.6,1.4,0.6,2.3,0.6h23.4c3.1,0,6.3-0.9,9.1-2c0,1.7-1.4,2.8-2.6,4
			c-3.4,3.1-7.7,4-12.5,4h-12.5c-0.9,0-1.4,0.3-2,0.9c-0.3,0.3-0.6,1.1-0.3,1.7c0.6,0.6,1.4,0.9,2.3,0.9h35.9
			C-41.1,313.5-38,313.2-33.4,311.5 M-118.3,303.3c0-0.9-0.9-1.7-1.7-1.7c-0.9,0-1.7,0.9-1.7,1.7c0,0.9,0.9,1.7,1.7,1.7
			C-119.2,305-118.3,304.1-118.3,303.3"/>
		<path class="st1" d="M2.2,368.8l-0.3-0.3c0-8.5,0.3-16.8,0.3-25.4c0-8.3,0-10.5-0.3-16.2l0.3-0.3h8.3c2,0,5.7,0,7.7,0
			c5.7,0,9.7,0.9,12.3,3.4c2,2.3,2.3,4.8,2.3,6.6c0,1.4-0.3,2.8-0.9,4.3c-1.4,3.1-4,4.3-6,5.1c1.1,0.3,2.6,0.6,3.7,1.1
			c3.4,1.7,5.1,5.1,5.1,9.1c0,3.4-1.1,7.1-5.1,10c-4.6,3.1-11.4,2.8-16.8,2.8H2.2V368.8z M12.2,343.4c2.3,0,5.4,0,7.1-0.6
			c0.9-0.3,3.1-1.7,3.1-4.8c0-4-2.8-5.1-6.3-5.1c-1.1,0-2.6,0-4,0V343.4z M12.2,361.9c2.6,0,5.7,0,7.7-0.6c2.3-0.9,3.7-2.6,3.7-5.1
			c0-2-0.6-3.7-2.3-4.8c-1.7-1.1-4.3-1.1-8.8-0.9v11.4H12.2z"/>
		<path class="st1" d="M65.4,355.4c0,5.7,0,7.1,0.3,12.8l-0.3,0.6c-4,0-5.1,0-9.4,0.3l-0.3-0.3v-2.3c-1.1,1.1-3.7,3.1-8.3,3.1
			c-5.7,0-10.5-4-10.5-10.5c0-2.6,1.1-6,4.6-8.3c3.7-2.3,6.8-2.8,14-3.7c0-0.9-0.3-2-0.9-2.6c-0.9-0.9-1.7-1.1-4-1.1
			c-4,0-8,1.4-10,2.3l-0.3-0.3l0.3-6.6l0.3-0.6c3.4-1.1,6.6-2,11.7-2c7.7,0,10,2.3,11.1,4.3c1.4,2.6,1.4,4.8,1.4,10.3L65.4,355.4z
			 M55.5,353.1c-4,0.6-8.8,1.1-8.8,5.1c0,2.6,1.7,3.7,4,3.7c2,0,3.7-0.9,4.8-1.4V353.1z"/>
		<path class="st1" d="M99.6,368.5c-4.8,0-5.7,0-9.7,0.3l-0.3-0.3c0-2,0-4,0-6.3c0-2.3,0-10.5-0.3-12.3c-0.3-2.3-0.6-5.7-3.7-5.7
			c-2,0-3.4,1.1-4.6,1.7c0,10.5,0,13.1,0.6,22.2l-0.3,0.3c-4.8,0-5.7,0-10,0.3l-0.3-0.3c0-3.7,0-7.7,0-11.4c0-9.7-0.3-13.4-0.9-18.5
			l0.3-0.3c4.6-0.6,5.4-0.9,10-1.7l0.6,0.3v3.4c2.8-1.7,6-3.4,9.4-3.4c2.3,0,5.4,0.6,7.4,3.7c1.4,2.6,1.4,5.1,1.7,10.8v4.6
			c0,5.7,0,7.4,0.3,12.8L99.6,368.5z"/>
		<path class="st1" d="M168.6,368.5l-10.8,0.3l-0.6-0.3c-3.1-6.3-3.7-7.7-8.8-17.1v6.8l0.3,10v0.6c-4.6,0-5.7,0-9.7,0.3l-0.3-0.3
			c0-9.7,0-19.4,0-29.1c0-7.7-0.3-10.5-0.9-16.2l0.3-0.3l10.3-1.4l0.6,0.3c-0.3,9.1-0.3,11.4-0.3,22.5v6.6c2.8-4,3.4-5.1,8-13.1
			l0.6-0.3h9.7l0.3,0.6c-4.3,5.4-4.6,6-8.8,11.7c4.6,8.3,5.1,9.1,10.8,18.8L168.6,368.5z"/>
		<path class="st1" d="M183.9,369.3c-8.5,0-11.4-3.1-13.1-5.4c-2.3-3.1-2.8-7.1-2.8-10.8c0-10.8,6-16.5,16.2-16.5
			c1.4,0,4.6,0,7.4,1.1c8.3,3.4,8.3,12.8,8.3,15.1C199.9,361.7,196.5,369.3,183.9,369.3 M187.9,344.6c-0.9-0.9-2.3-2-3.7-2
			c-2,0-3.4,1.1-4.3,2.6c-1.1,2-1.1,6-1.1,7.7c0,5.7,1.1,7.7,2.3,8.8c0.9,0.6,1.7,1.4,3.4,1.4c4.8,0,5.7-5.4,5.7-10.3
			C189.6,349.7,189.4,346.3,187.9,344.6"/>
		<path class="st1" d="M234.1,368.5l-10.8,0.3l-0.6-0.3c-3.1-6.3-3.7-7.7-8.8-17.1v6.8l0.3,10v0.6c-4.6,0-5.7,0-9.7,0.3l-0.3-0.3
			c0-9.7,0-19.4,0-29.1c0-7.7-0.3-10.5-0.9-16.2l0.3-0.3l10.3-1.4l0.6,0.3c-0.3,9.1-0.3,11.4-0.3,22.5v6.6c2.8-4,3.4-5.1,8-13.1
			l0.6-0.3h9.7l0.3,0.6c-4.3,5.4-4.6,6-8.8,11.7c4.6,8.3,5.1,9.1,10.8,18.8L234.1,368.5z"/>
		<path class="st1" d="M260.3,326.9c-0.3,8.3-0.3,16.5-0.3,24.8c0,8.5,0,11.4,0.3,16.8l-0.3,0.3c-4.8,0-6.3,0-10.5,0.3l-0.3-0.3
			c0.3-6.3,0.3-10,0.3-16.8c0-15.1-0.3-18.2-0.6-24.8l0.3-0.3c4.3,0,5.7,0,10.8-0.3L260.3,326.9z"/>
		<path class="st1" d="M295.6,368.5c-4.8,0-5.7,0-9.7,0.3l-0.3-0.3c0-2,0-4,0-6.3c0-2.3,0-10.5-0.3-12.3c-0.3-2.3-0.6-5.7-3.7-5.7
			c-2,0-3.4,1.1-4.6,1.7c0,10.5,0,13.1,0.6,22.2l-0.3,0.3c-4.8,0-5.7,0-10,0.3l-0.3-0.3c0-3.7,0-7.7,0-11.4c0-9.7-0.3-13.4-0.9-18.5
			l0.3-0.3c4.6-0.6,5.4-0.9,10-1.7l0.6,0.3v3.4c2.8-1.7,6-3.4,9.4-3.4c2.3,0,5.4,0.6,7.4,3.7c1.4,2.6,1.4,5.1,1.7,10.8v4.6
			c0,5.7,0,7.4,0.6,12.8L295.6,368.5z"/>
		<path class="st1" d="M316.4,349.1c3.1,1.1,8,2.8,8,9.4c0,0.3,0,0.9,0,1.4c-1.1,8.5-10,9.4-14.5,9.4c-4.3,0-6.8-0.9-9.7-2l-0.3-0.6
			c0.3-2.8,0.3-3.7,0.3-6.8l0.6-0.3c0.9,0.9,1.4,1.1,2.3,1.7c2.3,1.1,4.6,1.7,6.3,1.7c3.4,0,4.8-1.7,4.8-3.1c0-2.3-2.6-3.1-4.3-3.7
			l-2.3-0.9c-2.8-1.1-7.7-2.8-7.7-9.4c0-2.3,0.9-4.3,1.7-5.1c3.1-4.6,8.8-4.8,12-4.8c4,0,6.3,0.9,9.1,1.4l0.3,0.3l-0.6,6.6l-0.6,0.3
			c-1.4-0.9-3.7-2.6-7.4-2.6c-3.7,0-4.3,2-4.3,2.6c0,1.7,1.7,2.3,3.7,3.1L316.4,349.1z"/>
		<path class="st1" d="M356.6,337.2c0,5.7-0.3,11.1-0.3,16.8c0,7.7,0,10,0.3,14.2l-0.3,0.3c-4,0-5.1,0-9.4,0.3l-0.3-0.3v-2.6
			c-2.3,1.7-4.6,3.7-8.8,3.7c-2.8,0-5.7-0.9-7.7-3.1c-2.3-2.6-2.6-5.1-2.3-11.7v-4.3c0-6,0-7.7-0.3-12.8l0.3-0.3l9.7-0.6l0.3,0.6v12
			c0,1.4,0,3.1,0,4.6c0,3.4,0,8,4.3,8c1.7,0,2.8-0.9,4.6-2c0-2.3,0-3.4,0-5.1c0-0.9,0-10.5-0.3-17.1l0.3-0.3l9.7-0.6L356.6,337.2z"
			/>
		<path class="st1" d="M378.5,346.8c-0.9-0.6-1.4-0.9-2.6-0.9c-4,0-4,4-4,6.6c0,4,0.3,10.8,0.6,15.7l-0.3,0.3c-4.8,0-5.7,0-10.3,0.3
			l-0.3-0.3c0-4.8,0.3-10,0.3-14.8c0-8.3-0.3-10.8-0.6-15.4l0.3-0.3c4.3-0.6,5.4-0.9,10-1.7l0.6,0.6l-0.3,5.4c2-4.3,4.6-5.7,7.1-5.7
			c0.3,0,0.9,0,1.1,0l0.3,0.3l-1.7,9.7L378.5,346.8z"/>
		<path class="st1" d="M409,355.4c0,5.7,0,7.1,0.3,12.8l-0.3,0.3c-4,0-5.1,0-9.4,0.3l-0.3-0.3v-2.3c-1.1,1.1-3.7,3.1-8.3,3.1
			c-5.7,0-10.5-4-10.5-10.5c0-2.6,1.1-6,4.6-8.3c3.7-2.3,6.8-2.8,14-3.7c0-0.9-0.3-2-0.9-2.6c-0.9-0.9-1.7-1.1-4-1.1
			c-4,0-8,1.4-10,2.3l-0.6-0.3l0.3-6.6l0.3-0.6c3.4-1.1,6.6-2,11.7-2c7.7,0,10,2.3,11.1,4.3c1.4,2.6,1.4,4.8,1.4,10.3L409,355.4z
			 M399.3,353.1c-4,0.6-8.8,1.1-8.8,5.1c0,2.6,1.7,3.7,4,3.7c2,0,3.7-0.9,4.8-1.4L399.3,353.1L399.3,353.1z"/>
		<path class="st1" d="M442.6,368.5c-4.8,0-5.7,0-9.7,0.3l-0.3-0.3c0-2,0-4,0-6.3c0-2.3,0-10.5-0.3-12.3c-0.3-2.3-0.6-5.7-3.7-5.7
			c-2,0-3.4,1.1-4.6,1.7c0,10.5,0,13.1,0.6,22.2l-0.3,0.3c-4.8,0-5.7,0-10,0.3l-0.3-0.3c0-3.7,0-7.7,0-11.4c0-9.7-0.3-13.4-0.9-18.5
			l0.3-0.3c4.6-0.6,5.4-0.9,10-1.7l0.6,0.3v3.4c2.8-1.7,6-3.4,9.4-3.4c2.3,0,5.4,0.6,7.4,3.7c1.4,2.6,1.4,5.1,1.7,10.8v4.6
			c0,5.7,0,7.4,0.3,12.8L442.6,368.5z"/>
		<path class="st1" d="M470.5,360.5l-0.3,7.1l-0.3,0.3c-2.6,0.6-4.6,1.4-7.7,1.4c-13.4,0-17.1-9.4-17.1-16.2c0-6,2.8-16.8,16.8-16.8
			c3.4,0,5.7,0.9,8.3,1.4l0.3,0.3c-0.6,3.1-0.6,4-0.9,7.1l-0.6,0.3c-1.7-1.1-3.1-2.3-5.7-2.3c-5.7,0-7.7,5.1-7.7,9.4
			c0,3.7,1.4,9.1,8,9.1c3.1,0,4.6-0.9,6.3-2L470.5,360.5z"/>
		<path class="st1" d="M501.3,359.9l-0.3,6.8l-0.3,0.6c-3.1,1.1-5.4,2.3-10.3,2.3c-4.3,0-12.5-0.9-16-8.8c-0.9-2-1.4-5.1-1.4-7.7
			c0-10.3,6.3-16.5,15.7-16.5c1.4,0,2.8,0,4.3,0.6c2,0.6,6.6,2,8.8,8.8c0.9,2.8,0.9,6,0.9,8.8l-0.3,0.3l-19.4,0.3
			c0.3,1.1,0.3,2.3,1.4,3.7c1.4,2.3,4,3.1,7.4,3.1c4.3,0,7.1-1.4,9.4-2.6L501.3,359.9z M492.8,348.8c0-1.4,0-2.8-0.9-4
			c-0.6-1.1-1.7-2-3.7-2c-0.9,0-1.7,0.3-2.3,0.6c-2.3,1.4-2.6,4-2.8,5.7L492.8,348.8z"/>
		<path class="st1" d="M133.5,352c0-6.8,0-10.3,0.3-15.7l-0.3-0.3c-14.2-0.3-18.8-0.3-23.6,2.8c-5.4,3.4-6.6,9.7-6.6,14.2
			c0,8.3,4.3,15.1,13.1,15.1c3.7,0,5.7-1.1,7.4-2.3l0,0v0.9l0,0c0,3.1-0.3,5.4-1.7,6.8c-1.4,1.4-3.1,1.7-4.6,1.7
			c-4,0-6.3-1.7-7.4-2.6h-0.6c-0.3,1.1-0.3,2.3-0.6,3.1c-0.3,0.9-0.6,2-0.9,2.8l0.3,0.6c1.1,0.9,2.6,1.4,5.7,2.3
			c2,0.3,4.3,0.6,6.3,0.6c5.1,0,9.7-1.7,11.7-5.4c1.1-1.7,1.4-4,1.7-6.8l0,0c0-0.6,0-2.8,0-4.8l0,0
			C133.5,361.4,133.5,356.8,133.5,352 M120.1,361.4c-6.3,0-6.3-7.7-6.3-9.4c0-3.7,1.4-9.1,8-9.1c0.6,0,1.1,0,1.7,0v17.1
			C122.4,360.8,121.6,361.4,120.1,361.4"/>
		<g>
			<path class="st1" d="M214.7,264.8v29.3l-8.5-26.2h-2l-8.5,26.5v-29.6h-15.4v0.9c1.7,1.7,2.8,4,2.8,5.7v21.4
				c0,6,0.3,10.8,10.8,10.8h6.3l4.6-17.1l5.4,17.1h7.4c3.4,0,9.4-1.7,9.4-8v-30.8H214.7z"/>
			<path class="st1" d="M132.9,297.3v-32.2h-12.3v34.2v4.6h15.4V303C134.1,301.8,132.9,299.3,132.9,297.3"/>
			<path class="st1" d="M56,275.3c-0.6-1.1-0.6-2.8,0-3.7c0.3-0.3,1.4-2,5.7-2s11.4,2.6,11.7,2.6v-7.4c-3.7-1.1-7.4-1.7-11.1-1.7
				c-3.4,0-6.6,0.6-9.4,1.4c-5.7,2-8.3,5.1-9.1,10.8c0,0.9-0.6,5.7,2.8,9.1c3.7,3.7,9.4,3.7,10.8,3.7c2.6,0,4.8,0.3,7.1,1.4
				c1.4,0.6,2.6,2.3,2.6,4.3c0,2-1.4,3.4-3.7,3.7c-1.1,0.3-2.6,0.3-4,0.3c-6.8,0-14.2-4.3-14.2-4.3v8.3c0.3,0,0.6,0.3,1.1,0.3
				c5.7,2,12.3,2.6,19.4,1.7c4.6-0.9,8-2.6,10.3-6c2.8-3.7,3.1-9.7,0.9-14c-1.1-2-3.1-4-6.8-5.4c-4-1.4-8.8-1.1-10.8-1.7
				C56.9,276.8,56.3,275.6,56,275.3"/>
			<path class="st1" d="M167.1,264.2c-8,0-15.1,9.4-15.1,9.4v-8.5h-14.8v0.9c1.1,0.9,2.3,2.8,2.6,6v31.9H152v-12.5
				c0-4.8,0.3-8.5,2.3-11.1c0,0,4-5.7,7.4-5.7c3.1,0,3.7,3.1,3.7,4s0,25.6,0,25.6h12.3v-27.9C177.4,271.3,175.1,264.2,167.1,264.2"
				/>
			<path class="st1" d="M287.6,275.3c-0.6-1.1-0.6-2.8,0-3.7c0.3-0.3,1.4-2,5.7-2s11.4,2.6,11.7,2.6v-7.4c-3.4-1.1-7.4-1.7-11.1-1.7
				c-3.4,0-6.6,0.6-9.4,1.4c-5.7,2-8.3,5.1-9.1,10.8c0,0.9-0.6,5.7,2.8,9.1c3.7,3.7,9.4,3.7,10.8,3.7c2.6,0,4.8,0.3,7.1,1.4
				c1.4,0.6,2.6,2.3,2.6,4.3c-0.3,2-1.4,3.4-3.7,3.7c-1.1,0.3-2.6,0.3-4,0.3c-6.8,0-14.2-4.3-14.2-4.3v8.3c0.3,0,0.6,0.3,1.1,0.3
				c5.7,2,12.3,2.6,19.4,1.7c4.6-0.9,8-2.6,10.3-6c2.8-3.7,3.1-9.7,0.9-14c-1.1-2-3.1-4-6.8-5.4c-4-1.4-8.8-1.1-10.8-1.7
				C288.5,276.8,287.6,275.6,287.6,275.3"/>
			<path class="st1" d="M405,303.8c-4,0-5.4-4-5.4-4s-4,5.4-12.5,5.4c-2.3,0-4.8-0.3-7.1-1.1c-4.3-1.4-6.3-6-6.3-9.7v-22.5
				c0-0.3-0.9-4.3-2.6-6v-1.1h15.1c0,0,0,27.6,0,28.8c0,1.4,1.1,3.7,5.4,3.7c4,0,8.3-4,8.3-10.3v-22.2h12.5v38.7H405V303.8z"/>
			<path class="st1" d="M114.7,271.1c-0.3-0.9-1.7-4-4.6-6c-2.8-1.7-6.8-2-8.3-2c-3.4,0-6.6,1.7-6.8,1.7v7.4c1.4,0,8.5-3.1,8.5,9.1
				v4c0,3.1-0.3,5.7-0.9,7.1c-0.6,1.7-2,3.4-3.7,4.3c-0.6,0.3-1.7,0.9-3.1,0.9c-1.1,0-1.4-0.9-1.4-1.1c-0.6-1.1-6.3-28.5-6.3-28.5
				L78,274.2c0,0,5.1,18.5,6.3,23.1c1.4,5.1,6.3,7.4,11.4,7.4s10.5-1.1,14.2-4.6c2-2,3.7-4,4.6-6.6c0.6-2,0.9-4,0.9-5.4
				c0-2.8,0-9.7,0-9.7C115.6,275.9,115.6,273.6,114.7,271.1"/>
			<path class="st1" d="M20.4,263.1c-17.1,0-19.9,7.7-19.9,7.7l6.3,4c0,0-4.6,1.7-4.6,7.7v21.1h12.5v-24.2c0.3-2.3,3.1-4,3.1-4
				l-2.8-2.3c0.6-2.3,2.6-3.7,5.7-3.7c4,0,6,3.1,6,7.1v27.3h12.8v-30.5C39.5,267.9,34.7,263.1,20.4,263.1"/>
			<path class="st1" d="M347.7,263.1c-16.8,0-19.4,7.7-19.4,7.7l6,4c0,0-4.6,1.7-4.6,7.7v21.1h12.5v-24.2c0.3-2.3,3.1-4,3.1-4
				l-2.8-2.3c0.9-2.3,2.3-3.7,5.7-3.7c4.8,0,6.3,3.7,6.3,7.1v27.3h12.8v-30.5C367.7,268.5,364.3,263.1,347.7,263.1"/>
			<path class="st1" d="M252.3,304.4c9.4-0.3,18.8-1.7,18.8-10.8V250h-12.8v41.6c0,5.4-2.8,6.3-6,6.3s-5.7-1.7-5.7-5.7v-27.1h-15.4
				v0.6c1.1,0.9,2.6,2.8,2.6,4.8v23.4c0,9.7,10.8,10.5,18.2,10.8h0.3V304.4z"/>
			<path class="st1" d="M484.2,298.4c-2,0.9-4.8,0.6-7.1-0.6c-3.1-2.6-3.4-7.1-2.3-10c1.4-2.6,3.7-3.7,6-4.6v-5.4
				c-0.9,0-1.7,0.3-2.6,0.3c-0.3,0-0.9,0-1.1,0.3c-1.4,0-2.3-0.6-2.8-1.4s-0.9-2.3-0.6-3.7c0.3-1.1,0.9-2,1.7-2.6
				c0.9-0.6,1.7-0.9,2.8-0.9c2.3,0,4,1.4,4,1.4v-6.3c-0.9-0.3-4-1.4-9.4-0.9c-7.1,0.6-9.4,4-10.3,6c-1.1,2.6-0.6,6.3,1.4,8.5
				c0.9,0.9,1.1,1.1,2.8,2l0.9,0.6l-0.9,0.6c0,0-0.9,0.3-1.7,0.9c-3.1,2-4,7.4-3.4,10.5c0.6,4.6,4.3,9.1,9.1,10.3
				c3.4,0.9,6.8,1.4,10.5,1.4c4.8,0,9.4-0.9,13.4-2.6c3.1-1.7,6-4.6,6-10c0-4,0-27.1,0-27.1h-12.5v27.9
				C487.9,294.7,486.5,297.6,484.2,298.4"/>
			<path class="st1" d="M436.6,263.1c-16.8,0-19.1,7.7-19.1,7.7l6.3,4c0,0-4.6,1.7-4.6,7.7v14.2c0,0.9-0.9,4.3-2.6,6v0.9h1.1h10.3
				h0.3c3.1,0,3.4-4.8,3.4-4.8v-17.4v-1.7c0-2.6,3.1-4.3,3.1-4.3l-2.8-2.3c0.6-2.3,2.3-3.7,5.7-3.7c4.8,0,6.3,3.7,6.3,7.1v27.3h12.8
				v-30.5C456.6,268.5,453.2,263.1,436.6,263.1"/>
			<path class="st1" d="M58.6,309.5v2.3c0,0,0,0,0.3,0c1.1,0,2.6,0.9,2.6,2.6v8.5h11.4v-9.1c0-2.8-2-4-4.3-4
				C68.3,309.5,58.6,309.5,58.6,309.5"/>
			<path class="st1" d="M365.7,254c-1.4,0-2.6,0-4-0.3c-2.3-0.6-3.4-1.7-3.7-3.7c0-0.3,0-0.3,0-0.6h-10.8c0.3,1.7,0.9,3.4,2,4.6
				c2.3,3.1,5.7,5.1,10.3,5.7c7.1,0.9,13.7,0.3,19.1-1.7v-7.7C376.5,251.4,371.1,254,365.7,254"/>
			<path class="st1" d="M454.3,254c-1.4,0-2.6,0-3.7-0.3c-2.3-0.6-3.4-1.7-3.7-3.7c0-0.3,0-0.3,0-0.6h-10.8c0.3,1.7,0.9,3.4,2,4.6
				c2.3,3.1,5.7,5.1,10.3,5.7c7.1,0.9,13.7,0.3,19.1-1.7v-7.7C465.1,251.4,459.7,254,454.3,254"/>
		</g>
		<g>
			<path class="st1" d="M325,272.5h-0.6c-3.4,1.1-6.3,1.7-8,1.7c-2.6,0-4-1.7-4.3-1.7l-0.6-0.6l-0.9,0.3v6.3v0.3l0,0
				c0.3,0.3,2,2.3,5.1,2.3c2,0,4.8-0.6,8.3-1.7v-6.8H325z"/>
			<path class="st1" d="M325,288.4h-0.6c-3.4,1.1-6.3,1.7-8,1.7c-2.6,0-4-1.7-4.3-1.7l-0.6-0.6l-0.9,0.3v6.3v0.3l0,0
				c0.3,0.3,2,2.3,5.1,2.3c2,0,4.8-0.6,8.3-1.7v-6.8H325z"/>
		</g>
	</g>
</g>
</svg>
