<?xml version="1.0" encoding="utf-8"?>
<!-- Generator: Adobe Illustrator 19.0.0, SVG Export Plug-In . SVG Version: 6.00 Build 0)  -->
<svg version="1.0" id="Layer_1" xmlns="http://www.w3.org/2000/svg" xmlns:xlink="http://www.w3.org/1999/xlink" x="0px" y="0px"
	 viewBox="0 0 94.3 47.1" style="enable-background:new 0 0 94.3 47.1;" xml:space="preserve">
<style type="text/css">
	.st0{fill:#1A3A68;}
	.st1{fill:#FFFFFF;}
</style>
<g id="XMLID_2_">
	<rect id="XMLID_69_" class="st0" width="94.3" height="47.1"/>
	<g id="XMLID_3_">
		<path id="XMLID_62_" class="st1" d="M9.6,21.5c0-0.1-0.1-0.2-0.2-0.2c-0.1,0-0.2,0.1-0.2,0.2c0,0.1,0.1,0.2,0.2,0.2
			C9.5,21.8,9.6,21.7,9.6,21.5 M20.9,22.7c0,0,0,0.1-0.1,0.2h0c0,0,0,0.1-0.1,0.1c-0.1,0.1-0.3,0.3-0.5,0.4c0,0,0,0-0.1,0
			c0,0-0.1,0-0.2,0.1c-0.2,0.1-0.5,0.2-0.9,0.2h-0.2c-0.2,0-0.4,0-0.6,0c-0.7,0-1.4,0.1-2,0.5c-0.5,0.3-0.8,0.7-1.3,1.1
			c-0.9,0.7-2.4,1-3.5,0.5c-0.7-0.3-1.4-0.8-1.8-1.5c-0.3-0.5-0.5-1.1-0.6-1.7C9,22.2,8.5,21.8,8,21.7c0-0.1,0.1-0.1,0.1-0.2
			C8.6,21,9.2,20.8,9.8,21c0.5,0.2,0.8,0.7,1,1.1c0.1,0.2,0.3,0.4,0.6,0.4c0.2,0,0.3-0.1,0.4-0.3c0.1-0.2-0.1-0.4-0.2-0.6
			c-0.4-0.5-0.9-1-0.6-1.6c0.3-0.5,0.8-0.7,1.3-0.9c0,0,0.4-0.1,0.7-0.1h5.3c0.4,0,0.8-0.2,1.2-0.4l0,0c0,0.4-0.3,0.8-0.7,1
			c-0.2,0.1-0.6,0.2-0.7,0.2c-0.1,0-4.5,0-4.5,0c-0.1,0-0.2,0-0.3,0.2c0,0.1,0,0.1,0,0.2c0.1,0.1,0.2,0.1,0.3,0.1l4.6,0
			c0.4,0,0.7-0.1,1-0.3c0,0.1-0.1,0.3-0.2,0.4c-0.4,0.4-0.8,0.6-1.4,0.7h-3.3c-0.1,0-0.2,0.1-0.3,0.2c0,0.1,0,0.1,0.1,0.2
			c0.1,0.1,0.2,0.1,0.3,0.1h3.1c0.4,0,0.8-0.1,1.2-0.2c0,0.2-0.2,0.4-0.3,0.5c-0.4,0.4-1,0.5-1.6,0.5H15c-0.1,0-0.2,0-0.3,0.1
			c-0.1,0-0.1,0.2,0,0.2c0.1,0.1,0.2,0.1,0.3,0.1h4.8C19.8,22.9,20.2,22.9,20.9,22.7 M22.1,23.3c0-4.2-3.5-7.7-7.7-7.7
			c-4.2,0-7.7,3.5-7.7,7.7c0,1.5,0.4,2.9,1.2,4.1c0.3-0.1,0.6-0.1,0.9-0.1c0.8,0,1.5,0.4,2.1,0.7c0.2,0.1,0.3,0.2,0.5,0.3
			c0.3,0.1,1,0.4,2,0.4c0.8,0,1.5-0.2,2.2-0.6c0.2-0.1,0.4-0.3,0.6-0.4l0.2-0.1c0.8-0.5,1.6-1.1,2.5-1.4c0.3-0.1,0.7-0.1,1-0.1
			c0.5,0,1,0.1,1.6,0.3C21.9,25.3,22.1,24.3,22.1,23.3 M21.3,26.7c-0.5-0.2-0.9-0.3-1.4-0.3c-1.2,0-2.3,0.7-3.3,1.4
			c-0.3,0.2-0.5,0.4-0.8,0.6c-0.7,0.5-1.5,0.7-2.4,0.7c-1,0-1.9-0.3-2.2-0.5c-0.2-0.1-0.3-0.2-0.5-0.3c-0.6-0.3-1.2-0.7-1.9-0.7
			c-0.2,0-0.4,0-0.6,0.1c0.1,0.1,0.2,0.3,0.3,0.4c0.5,0,1,0.2,1.6,0.5l0.5,0.3c1.2,0.7,2.1,1.1,3.4,1.1c1.1,0,2.3-0.7,3.3-1.4
			c0.4-0.2,0.8-0.5,1.1-0.7c0.6-0.3,1.1-0.4,1.7-0.4c0.2,0,0.5,0,0.7,0.1C21,27.3,21.1,27,21.3,26.7 M20.5,28c-0.1,0-0.3,0-0.4,0
			c-0.5,0-1,0.1-1.5,0.4c-0.3,0.2-0.7,0.4-1.1,0.6c-1.1,0.7-2.3,1.4-3.6,1.4c-1.5,0-2.3-0.4-3.6-1.1L9.8,29
			c-0.3-0.2-0.6-0.3-0.9-0.3c1.4,1.5,3.4,2.3,5.5,2.3C16.8,31,19,29.9,20.5,28 M22.8,23.3c0,4.6-3.8,8.4-8.4,8.4
			c-4.6,0-8.4-3.8-8.4-8.4c0-4.6,3.8-8.4,8.4-8.4C19,14.9,22.8,18.7,22.8,23.3"/>
		<g id="XMLID_24_">
			<path id="XMLID_59_" class="st1" d="M26.7,30.3h-1.1v-4.7h1.1V30.3z M27.3,30.3v-4.7h1.1v4.7H27.3z"/>
			<path id="XMLID_57_" class="st1" d="M30.6,27.9c0.2-0.3,0.7-0.5,1-0.5v0.9c-0.6-0.1-1,0.4-1,1v0.9h-1.1v-3.1c0-1,0.4-1.7,2-1.7
				c1.5,0,2,0.7,2,1.7v3.1h-1.1v-3.2c0-0.6-0.3-0.8-0.8-0.8c-0.5,0-0.9,0.3-0.9,0.8V27.9z"/>
			<path id="XMLID_55_" class="st1" d="M37.3,26.8c-0.1-0.3-0.3-0.5-0.8-0.5c-0.6,0-0.8,0.2-0.8,0.5c0,0.5,1.4,0.5,2.1,0.8
				c0.4,0.2,0.7,0.6,0.7,1.1c0,1-0.8,1.6-2,1.6c-2,0-2.1-1.2-2.1-1.3l1.1-0.2c0.1,0.4,0.5,0.6,1.1,0.6c0.4,0,0.8-0.1,0.8-0.5
				c0-0.6-1.3-0.5-2-0.9c-0.4-0.2-0.7-0.6-0.7-1.1c0-1,0.6-1.6,1.9-1.6c0.8,0,1.6,0.4,1.8,1.2L37.3,26.8z"/>
			<path id="XMLID_53_" class="st1" d="M37.2,24.6c0-1,0.2-1.5,1.7-1.4v0.5c-0.6-0.1-0.6,0.4-0.6,0.9H37.2z"/>
			<path id="XMLID_51_" class="st1" d="M40.6,27.9c0.2-0.3,0.7-0.5,1-0.5v0.9c-0.6-0.1-1,0.4-1,1v0.9h-1.1v-3.1c0-1,0.4-1.7,2-1.7
				c1.5,0,2,0.7,2,1.7v3.1h-1.1v-3.2c0-0.6-0.3-0.8-0.8-0.8c-0.5,0-0.9,0.3-0.9,0.8V27.9z"/>
			<path id="XMLID_49_" class="st1" d="M43.5,32.5h-1v-0.6c0-0.2,0-0.4-0.2-0.4c0,0-0.3,0-0.3,0l0.2-0.6h0.7c0.2,0,0.6,0,0.6,0.4
				V32.5z"/>
			<path id="XMLID_47_" class="st1" d="M46.2,30.3h-1.7v-2.4c0-0.6,0.2-0.8,0.5-1.1c0,0-0.3-0.1-0.5-0.1v-0.5
				c0.3-0.2,1.2-0.7,1.9-0.7c1.1,0,1.9,0.4,1.9,1.4v1.6c0,0.5,0.1,0.9,0.7,0.9c0.5,0,0.7-0.3,0.7-1v-2.9h1.1v4.7h-1l-0.1-0.8
				c-0.3,0.6-0.6,0.8-1.2,0.8c-0.9,0.1-1.5-0.5-1.5-1.5v-1.8c0-0.4-0.1-0.8-0.8-0.8c-0.6,0-0.7,0.4-0.7,0.9v2.5h0.5V30.3z"/>
			<path id="XMLID_45_" class="st1" d="M53.1,30.3H52v-4.7H53v0.9c0.3-0.6,0.8-1,1.3-1c1,0,1.6,0.5,1.6,1.5v3.3h-1.1v-2.9
				c0-0.5-0.1-1-0.7-1c-0.6,0-1,0.7-1,1.3V30.3z"/>
			<path id="XMLID_43_" class="st1" d="M55.9,32.5h-1v-0.6c0-0.2,0-0.4-0.2-0.4c0,0-0.3,0-0.3,0l0.2-0.6h0.8c0.2,0,0.6,0,0.6,0.4
				V32.5z"/>
			<path id="XMLID_41_" class="st1" d="M57,27.8c0-0.6,0.2-0.8,0.5-1.1c0,0-0.3-0.1-0.5-0.1v-0.5c0.3-0.2,1.3-0.7,2.2-0.7
				c1.1,0,1.9,0.4,1.9,1.4v3.4h-1.1v-3.2c0-0.4-0.2-0.8-0.9-0.8c-0.6,0-0.9,0.4-0.9,0.8v3.2H57V27.8z"/>
			<path id="XMLID_39_" class="st1" d="M64.3,25.7l-0.2,0.7c-0.5-0.3-1-0.2-1,0.3c-0.1,0.5,0.6,0.7,1,0.7V28c-0.4,0-0.8,0-0.9,0.6
				c-0.1,0.4,0.1,0.9,0.9,0.9c0.7,0,0.8-0.5,0.8-1v-3h1.1v3.2c0,1-0.6,1.7-1.9,1.7c-1.3,0-2.1-0.5-2.1-1.6c0-0.7,0.6-1,0.6-1
				c-0.5-0.2-0.7-0.7-0.6-1.2c0-0.7,0.5-1.2,1.2-1.2C63.6,25.4,64,25.5,64.3,25.7z"/>
			<path id="XMLID_37_" class="st1" d="M65,24.6v-1.4h1.1v1.4H65z"/>
			<path id="XMLID_35_" class="st1" d="M67.3,26.5L67,25.9c0.2-0.2,0.8-0.5,1.5-0.5c1.2,0,1,0.9,1,1v3.8h-1.1v-3.2
				c0-0.4,0.1-0.8-0.5-0.8C67.6,26.2,67.4,26.4,67.3,26.5z"/>
			<path id="XMLID_33_" class="st1" d="M71.5,26.1l0.9,3.3h0.2c0.4,0,0.8-0.4,0.8-1.4c0-0.8-0.1-1.6-0.8-1.6c-0.3,0-0.5,0.1-0.5,0.1
				l-0.1-0.7c0.2-0.2,0.5-0.2,0.9-0.2c1.3,0,1.8,1.2,1.8,2.5c0,1.4-0.7,2.3-1.6,2.3h-1.4l-1.1-4.2H71.5z"/>
			<path id="XMLID_31_" class="st1" d="M75.7,27.8c0-0.6,0.2-0.8,0.5-1.1c0,0-0.3-0.1-0.5-0.1v-0.5c0.3-0.2,1.3-0.7,2.2-0.7
				c1.1,0,1.9,0.4,1.9,1.4v3.4h-1.1v-3.2c0-0.4-0.2-0.8-0.9-0.8c-0.6,0-0.9,0.4-0.9,0.8v3.2h-1.1V27.8z"/>
			<path id="XMLID_29_" class="st1" d="M78.6,23c0.3,0.1,0.4,0.6,0.1,0.9c0,0,0.4-0.1,0.7-0.2c0.5-0.2,1-0.5,1.2-0.6V24
				c-0.3,0.2-0.8,0.4-1.3,0.5c-0.4,0.1-1.1,0.1-1.6,0.1v-0.3c0.1-0.1,0.2-0.2,0.2-0.4c0-0.1-0.2-0.3-0.4-0.3l0.2-0.7
				C77.8,22.9,78.4,22.9,78.6,23z"/>
			<path id="XMLID_27_" class="st1" d="M80.9,26.5l-0.3-0.6c0.2-0.2,0.8-0.5,1.5-0.5c1.2,0,1.1,0.9,1.1,1v3.8H82v-3.2
				c0-0.4,0.1-0.8-0.5-0.8C81.2,26.2,81,26.4,80.9,26.5z"/>
			<path id="XMLID_25_" class="st1" d="M86.2,29.6c1.1,0,1.2-1,1.2-1.7c0-0.7-0.2-1.5-1.2-1.5c-0.5,0-1,0.4-1,1l-1-0.1
				c0.1-1,1.1-1.7,2.1-1.7c1.6,0,2.4,1.2,2.4,2.5c0,1.4-0.8,2.4-2.3,2.4c-1.1,0-1.8-0.7-2.1-1.7l1-0.1C85.3,29,85.7,29.5,86.2,29.6z
				"/>
		</g>
		<g id="XMLID_4_">
			<g id="XMLID_8_">
				<path id="XMLID_23_" class="st1" d="M52.5,16.3l0,3.7l-1.1-3.3h-0.2L50.1,20v-3.7h-1.9v0.1c0.2,0.2,0.4,0.5,0.4,0.7v2.7
					c0,0.8,0,1.4,1.4,1.4h0.8l0.6-2.2l0.7,2.2h0.9c0.5,0,1.2-0.2,1.2-1v-3.9H52.5z"/>
				<path id="XMLID_22_" class="st1" d="M42.2,20.3l0-4.1h-1.5l0,4.3v0.6h1.9v-0.1C42.3,20.9,42.2,20.6,42.2,20.3"/>
				<path id="XMLID_21_" class="st1" d="M32.4,17.6c-0.1-0.2-0.1-0.4,0-0.5c0,0,0.2-0.3,0.7-0.3c0.5,0,1.4,0.3,1.5,0.3v-0.9
					c-0.5-0.1-1-0.2-1.4-0.2c-0.4,0-0.8,0.1-1.2,0.2c-0.7,0.3-1.1,0.7-1.1,1.4c0,0.1-0.1,0.7,0.4,1.2c0.5,0.5,1.2,0.5,1.4,0.5
					c0.3,0,0.6,0,0.9,0.2c0.2,0.1,0.3,0.3,0.3,0.5c0,0.2-0.2,0.4-0.5,0.5c-0.2,0-0.3,0.1-0.5,0.1c-0.9,0-1.8-0.5-1.8-0.6v1
					c0,0,0.1,0,0.1,0c0.7,0.3,1.5,0.3,2.5,0.2c0.6-0.1,1-0.3,1.3-0.7c0.3-0.5,0.4-1.2,0.1-1.8c-0.1-0.3-0.4-0.5-0.9-0.7
					c-0.5-0.2-1.1-0.1-1.4-0.2C32.5,17.8,32.5,17.6,32.4,17.6"/>
				<path id="XMLID_20_" class="st1" d="M46.5,16.2c-1,0-1.9,1.2-1.9,1.2v-1.1h-1.9v0.1c0.1,0.1,0.3,0.4,0.3,0.7v4h1.5v-1.6
					c0-0.6,0-1.1,0.3-1.4c0,0,0.5-0.7,0.9-0.7c0.4,0,0.5,0.4,0.5,0.5c0,0.1,0,3.2,0,3.2h1.5v-3.5C47.8,17.1,47.5,16.2,46.5,16.2"/>
				<path id="XMLID_19_" class="st1" d="M61.7,17.6c-0.1-0.2-0.1-0.4,0-0.5c0,0,0.2-0.3,0.7-0.3c0.5,0,1.4,0.3,1.5,0.3v-0.9
					c-0.4-0.1-1-0.2-1.4-0.2c-0.4,0-0.8,0.1-1.2,0.2c-0.7,0.3-1.1,0.7-1.1,1.4c0,0.1-0.1,0.7,0.4,1.2c0.5,0.5,1.2,0.5,1.4,0.5
					c0.3,0,0.6,0,0.9,0.2c0.2,0.1,0.3,0.3,0.3,0.5c0,0.2-0.2,0.4-0.5,0.5c-0.2,0-0.3,0.1-0.5,0.1c-0.9,0-1.8-0.5-1.8-0.6v1
					c0,0,0.1,0,0.1,0c0.7,0.3,1.5,0.3,2.5,0.2c0.6-0.1,1-0.3,1.3-0.7c0.3-0.5,0.4-1.2,0.1-1.8c-0.1-0.3-0.4-0.5-0.9-0.7
					c-0.5-0.2-1.1-0.1-1.4-0.2C61.8,17.8,61.7,17.6,61.7,17.6"/>
				<path id="XMLID_18_" class="st1" d="M76.5,21.2c-0.5,0-0.7-0.5-0.7-0.5s-0.5,0.7-1.6,0.7c-0.3,0-0.6,0-0.9-0.1
					c-0.5-0.2-0.8-0.8-0.8-1.2v-2.8c0,0-0.1-0.5-0.3-0.8v-0.1h1.9c0,0,0,3.5,0,3.6c0,0.2,0.1,0.5,0.7,0.5c0.5,0,1.1-0.5,1.1-1.3
					v-2.8h1.6v4.9H76.5z"/>
				<path id="XMLID_17_" class="st1" d="M39.8,17.1c0-0.1-0.2-0.5-0.6-0.8c-0.3-0.2-0.9-0.2-1-0.2c-0.4,0-0.8,0.2-0.9,0.2v0.9
					c0.2,0,1.1-0.4,1.1,1.2v0.5c0,0.4,0,0.7-0.1,0.9c-0.1,0.2-0.3,0.4-0.5,0.6c-0.1,0-0.2,0.1-0.4,0.1c-0.1,0-0.2-0.1-0.2-0.2
					c-0.1-0.1-0.8-3.6-0.8-3.6l-1.3,0.8c0,0,0.6,2.4,0.8,2.9c0.2,0.6,0.8,0.9,1.5,0.9c0.7,0,1.3-0.2,1.8-0.6
					c0.3-0.2,0.5-0.5,0.6-0.8c0.1-0.2,0.1-0.5,0.1-0.7c0-0.4,0-1.2,0-1.2C40,17.7,40,17.4,39.8,17.1"/>
				<path id="XMLID_16_" class="st1" d="M28,16c-2.2,0-2.5,1-2.5,1l0.8,0.5c0,0-0.6,0.2-0.6,1v2.7h1.6v-3.1c0-0.3,0.4-0.5,0.4-0.5
					l-0.3-0.3c0.1-0.3,0.3-0.5,0.7-0.5c0.5,0,0.7,0.4,0.7,0.9v3.4h1.6v-3.8C30.3,16.7,29.7,16,28,16"/>
				<path id="XMLID_15_" class="st1" d="M69.3,16c-2.1,0-2.4,1-2.4,1l0.8,0.5c0,0-0.6,0.2-0.6,1v2.7h1.6v-3c0-0.3,0.4-0.5,0.4-0.5
					l-0.3-0.3c0.1-0.3,0.3-0.5,0.7-0.5c0.6,0,0.8,0.5,0.8,0.9v3.4h1.6v-3.8C71.8,16.7,71.4,16,69.3,16"/>
				<path id="XMLID_14_" class="st1" d="M57.2,21.3c1.2,0,2.4-0.2,2.4-1.4v-5.5H58v5.3c0,0.7-0.4,0.8-0.8,0.8
					c-0.4,0-0.7-0.2-0.7-0.7v-3.4h-1.9v0.1c0.1,0.1,0.3,0.4,0.3,0.6v2.9C54.9,21.1,56.3,21.2,57.2,21.3L57.2,21.3z"/>
				<path id="XMLID_13_" class="st1" d="M86.5,20.5c-0.2,0.1-0.6,0.1-0.9-0.1c-0.4-0.3-0.4-0.9-0.3-1.3c0.2-0.3,0.5-0.5,0.8-0.6
					v-0.7c-0.1,0-0.2,0-0.3,0c0,0-0.1,0-0.1,0c-0.2,0-0.3-0.1-0.4-0.2c-0.1-0.1-0.1-0.3-0.1-0.5c0-0.1,0.1-0.3,0.2-0.3
					c0.1-0.1,0.2-0.1,0.4-0.1c0.3,0,0.5,0.2,0.5,0.2v-0.8c-0.1,0-0.5-0.2-1.2-0.1c-0.9,0.1-1.2,0.5-1.3,0.8
					c-0.2,0.3-0.1,0.8,0.2,1.1c0.1,0.1,0.1,0.1,0.3,0.3l0.1,0.1l-0.1,0.1c0,0-0.1,0.1-0.2,0.1c-0.4,0.2-0.5,0.9-0.4,1.3
					c0.1,0.6,0.6,1.1,1.1,1.3c0.4,0.1,0.9,0.2,1.3,0.2c0.6,0,1.2-0.1,1.7-0.3c0.4-0.2,0.8-0.6,0.8-1.3c0-0.5,0-3.4,0-3.4H87v3.5
					C87,20.1,86.8,20.4,86.5,20.5"/>
				<path id="XMLID_12_" class="st1" d="M80.5,16c-2.1,0-2.4,1-2.4,1l0.8,0.5c0,0-0.6,0.2-0.6,1v1.8c0,0.1-0.1,0.5-0.3,0.7v0.1h0.1
					h1.3h0c0.4,0,0.4-0.6,0.4-0.6v-2.2l0-0.2c0-0.3,0.4-0.5,0.4-0.5l-0.3-0.3c0.1-0.3,0.3-0.5,0.7-0.5c0.6,0,0.8,0.5,0.8,0.9v3.4
					h1.6v-3.8C83.1,16.7,82.6,16,80.5,16"/>
				<path id="XMLID_11_" class="st1" d="M32.8,21.9v0.3c0,0,0,0,0,0c0.2,0,0.3,0.1,0.3,0.3v1.1h1.4v-1.2c0-0.4-0.2-0.5-0.5-0.5
					C34,21.9,32.8,21.9,32.8,21.9"/>
				<path id="XMLID_10_" class="st1" d="M71.6,14.9c-0.2,0-0.3,0-0.5-0.1c-0.3-0.1-0.4-0.2-0.5-0.5c0,0,0,0,0-0.1h-1.4
					c0,0.2,0.1,0.4,0.2,0.6c0.3,0.4,0.7,0.6,1.3,0.7c0.9,0.1,1.7,0,2.4-0.2v-1C72.9,14.6,72.3,14.9,71.6,14.9"/>
				<path id="XMLID_9_" class="st1" d="M82.8,14.9c-0.2,0-0.3,0-0.5-0.1c-0.3-0.1-0.4-0.2-0.5-0.5c0,0,0,0,0-0.1h-1.4
					c0,0.2,0.1,0.4,0.2,0.6c0.3,0.4,0.7,0.6,1.3,0.7c0.9,0.1,1.7,0,2.4-0.2v-1C84.1,14.6,83.5,14.9,82.8,14.9"/>
			</g>
			<g id="XMLID_5_">
				<path id="XMLID_7_" class="st1" d="M66.4,17.2L66.4,17.2c-0.5,0.2-0.8,0.2-1.1,0.2c-0.3,0-0.5-0.2-0.5-0.2l-0.1-0.1l-0.1,0v0.8
					l0,0l0,0c0,0,0.3,0.3,0.7,0.3c0.2,0,0.6-0.1,1.1-0.2V17.2z"/>
				<path id="XMLID_6_" class="st1" d="M66.4,19.3L66.4,19.3c-0.5,0.2-0.8,0.2-1.1,0.2c-0.3,0-0.5-0.2-0.5-0.2l-0.1-0.1l-0.1,0V20
					l0,0l0,0c0,0,0.3,0.3,0.7,0.3c0.2,0,0.6-0.1,1.1-0.2V19.3z"/>
			</g>
		</g>
	</g>
</g>
<g id="XMLID_95_">
</g>
<g id="XMLID_96_">
</g>
<g id="XMLID_97_">
</g>
<g id="XMLID_98_">
</g>
<g id="XMLID_99_">
</g>
<g id="XMLID_100_">
</g>
</svg>
