<?xml version="1.0" encoding="utf-8"?>
<!-- Generator: Adobe Illustrator 19.0.0, SVG Export Plug-In . SVG Version: 6.00 Build 0)  -->
<svg version="1.1" id="Layer_1" xmlns="http://www.w3.org/2000/svg" xmlns:xlink="http://www.w3.org/1999/xlink" x="0px" y="0px"
	 viewBox="0 0 253 86" style="enable-background:new 0 0 253 86;" xml:space="preserve">
<style type="text/css">
	.st0{fill:none;}
	.st1{fill:#005288;}
</style>
<g>
	<rect class="st0" width="253" height="86"/>
	<g>
		<path class="st1" d="M56.2,42.6c0,12.3-10,22.2-22.2,22.2c-12.2,0-22.2-10-22.2-22.2c0-12.3,10-22.2,22.2-22.2
			C46.3,20.4,56.2,30.3,56.2,42.6 M50.1,55.1c-0.3-0.1-0.7-0.1-1-0.1c-1.3,0-2.6,0.3-3.9,1c-0.8,0.4-1.8,1-2.9,1.7
			c-2.9,1.8-6.2,3.8-9.5,3.8c-3.9,0-6.2-1.2-9.6-3l-1.3-0.7c-0.8-0.4-1.6-0.7-2.3-0.9C23.3,60.8,28.6,63,34,63
			C40.3,63,46.3,60.1,50.1,55.1 M52.3,51.6c-1.2-0.5-2.4-0.8-3.6-0.8c-3.3,0-6,1.9-8.7,3.8c-0.7,0.5-1.5,1-2.2,1.5
			c-2,1.2-4.1,1.9-6.4,1.9c-2.7,0-4.9-0.9-5.7-1.3c-0.4-0.2-0.9-0.5-1.3-0.7c-1.6-0.9-3.2-1.8-5.1-1.8c-0.5,0-1.1,0.1-1.7,0.2
			c0.2,0.3,0.5,0.7,0.7,1c1.3,0.1,2.7,0.5,4.2,1.2l1.3,0.7c3.3,1.7,5.4,2.8,9.1,2.8c2.9,0,6-1.9,8.8-3.6c1.1-0.7,2.1-1.3,3-1.8
			c1.5-0.7,3-1.1,4.4-1.1c0.6,0,1.2,0.1,1.8,0.2C51.4,53.2,51.9,52.4,52.3,51.6 M54.4,42.6c0-11.2-9.1-20.4-20.4-20.4
			c-11.2,0-20.4,9.2-20.4,20.4c0,3.9,1.1,7.6,3.1,10.9c0.8-0.3,1.6-0.4,2.4-0.4c2.2,0,4,1,5.6,1.9c0.5,0.3,0.9,0.5,1.4,0.7
			c0.7,0.4,2.7,1.2,5.2,1.2c2.1,0,4-0.6,5.7-1.7c0.6-0.4,1.1-0.8,1.7-1.2l0.4-0.3c2.1-1.5,4.2-3,6.7-3.7c0.9-0.3,1.8-0.4,2.7-0.4
			c1.4,0,2.7,0.3,4.1,0.9C53.9,48,54.4,45.4,54.4,42.6 M51.1,40.9c0,0-0.1,0.3-0.3,0.6h0c-0.1,0.1-0.1,0.2-0.2,0.3
			c-0.3,0.4-0.7,0.8-1.3,1.1c-0.1,0-0.1,0.1-0.2,0.1c-0.1,0.1-0.3,0.1-0.4,0.1c-0.6,0.2-1.4,0.4-2.4,0.4h-0.6c-0.6,0-1.1,0-1.7,0.1
			c-1.9,0-3.7,0.3-5.2,1.4c-1.2,0.8-2.2,2-3.3,2.8c-2.5,2-6.2,2.5-9.3,1.4c-1.8-0.7-3.7-2.1-4.7-3.9C20.8,44,20.3,42.5,20,41
			c-0.4-1.2-1.7-2.3-3-2.5c0.1-0.2,0.2-0.4,0.4-0.5c1.1-1.3,2.8-2,4.5-1.5c1.4,0.4,2,1.9,2.6,3c0.3,0.5,0.8,1,1.5,1
			c0.4,0,0.9-0.3,1-0.7c0.2-0.6-0.2-1.1-0.6-1.6c-1-1.2-2.5-2.5-1.6-4.2c0.7-1.2,2-2,3.4-2.3c0,0,1.1-0.2,1.7-0.2h14
			c1.1-0.1,2.1-0.4,3.1-0.9l0,0c0,1.1-0.8,2.1-1.8,2.6c-0.5,0.2-1.5,0.5-2,0.5c-0.4,0-12,0-12,0c-0.3,0-0.6,0.1-0.7,0.4
			c-0.1,0.1-0.1,0.4,0,0.5c0.2,0.3,0.4,0.3,0.8,0.3l12.2,0c1,0,1.8-0.4,2.6-0.8c0.1,0.3-0.2,0.8-0.4,1.2c-0.9,1.2-2.2,1.7-3.6,1.7
			h-8.6c-0.4,0-0.6,0.2-0.7,0.5c0,0.2,0,0.4,0.1,0.5c0.2,0.2,0.5,0.2,0.8,0.2h8.2c1.1,0,2.2-0.3,3.2-0.7c0,0.6-0.5,1-0.9,1.4
			c-1.2,1.1-2.7,1.4-4.4,1.4h-4.4c-0.3,0-0.5,0.1-0.7,0.3c-0.1,0.1-0.2,0.4-0.1,0.6c0.2,0.2,0.5,0.3,0.8,0.3h12.6
			C48.4,41.6,49.5,41.5,51.1,40.9 M21.3,38c0-0.3-0.3-0.6-0.6-0.6c-0.3,0-0.6,0.3-0.6,0.6c0,0.3,0.3,0.6,0.6,0.6
			C21,38.6,21.3,38.3,21.3,38"/>
		<path class="st1" d="M63.6,61l-0.1-0.1c0-3,0.1-5.9,0.1-8.9c0-2.9,0-3.7-0.1-5.7l0.1-0.1l2.9,0c0.7,0,2,0,2.7,0
			c2,0,3.4,0.3,4.3,1.2c0.7,0.8,0.8,1.7,0.8,2.3c0,0.5-0.1,1-0.3,1.5c-0.5,1.1-1.4,1.5-2.1,1.8c0.4,0.1,0.9,0.2,1.3,0.4
			c1.2,0.6,1.8,1.8,1.8,3.2c0,1.2-0.4,2.5-1.8,3.5c-1.6,1.1-4,1-5.9,1H63.6z M67.1,52.1c0.8,0,1.9,0,2.5-0.2
			c0.3-0.1,1.1-0.6,1.1-1.7c0-1.4-1-1.8-2.2-1.8c-0.4,0-0.9,0-1.4,0V52.1z M67.1,58.6c0.9,0,2,0,2.7-0.2c0.8-0.3,1.3-0.9,1.3-1.8
			c0-0.7-0.2-1.3-0.8-1.7c-0.6-0.4-1.5-0.4-3.1-0.3V58.6z"/>
		<path class="st1" d="M85.8,56.3c0,2,0,2.5,0.1,4.5L85.8,61c-1.4,0-1.8,0-3.3,0.1l-0.1-0.1v-0.8c-0.4,0.4-1.3,1.1-2.9,1.1
			c-2,0-3.7-1.4-3.7-3.7c0-0.9,0.4-2.1,1.6-2.9c1.3-0.8,2.4-1,4.9-1.3c0-0.3-0.1-0.7-0.3-0.9c-0.3-0.3-0.6-0.4-1.4-0.4
			c-1.4,0-2.8,0.5-3.5,0.8L77,52.8l0.1-2.3l0.1-0.2c1.2-0.4,2.3-0.7,4.1-0.7c2.7,0,3.5,0.8,3.9,1.5c0.5,0.9,0.5,1.7,0.5,3.6
			L85.8,56.3z M82.3,55.5c-1.4,0.2-3.1,0.4-3.1,1.8c0,0.9,0.6,1.3,1.4,1.3c0.7,0,1.3-0.3,1.7-0.5V55.5z"/>
		<path class="st1" d="M97.8,60.9c-1.7,0-2,0-3.4,0.1l-0.1-0.1c0-0.7,0-1.4,0-2.2c0-0.8,0-3.7-0.1-4.3c-0.1-0.8-0.2-2-1.3-2
			c-0.7,0-1.2,0.4-1.6,0.6c0,3.7,0,4.6,0.2,7.8l-0.1,0.1c-1.7,0-2,0-3.5,0.1l-0.1-0.1c0-1.3,0-2.7,0-4c0-3.4-0.1-4.7-0.3-6.5
			l0.1-0.1c1.6-0.2,1.9-0.3,3.5-0.6l0.2,0.1l0,1.2c1-0.6,2.1-1.2,3.3-1.2c0.8,0,1.9,0.2,2.6,1.3c0.5,0.9,0.5,1.8,0.6,3.8v1.6
			c0,2,0,2.6,0.1,4.5L97.8,60.9z"/>
		<path class="st1" d="M122,60.9l-3.8,0.1l-0.2-0.1c-1.1-2.2-1.3-2.7-3.1-6l0,2.4l0.1,3.5L115,61c-1.6,0-2,0-3.4,0.1l-0.1-0.1
			c0-3.4,0-6.8,0-10.2c0-2.7-0.1-3.7-0.3-5.7l0.1-0.1l3.6-0.5l0.2,0.1c-0.1,3.2-0.1,4-0.1,7.9v2.3c1-1.4,1.2-1.8,2.8-4.6l0.2-0.1
			l3.4,0l0.1,0.2c-1.5,1.9-1.6,2.1-3.1,4.1c1.6,2.9,1.8,3.2,3.8,6.6L122,60.9z"/>
		<path class="st1" d="M127.4,61.2c-3,0-4-1.1-4.6-1.9c-0.8-1.1-1-2.5-1-3.8c0-3.8,2.1-5.8,5.7-5.8c0.5,0,1.6,0,2.6,0.4
			c2.9,1.2,2.9,4.5,2.9,5.3C133,58.5,131.8,61.2,127.4,61.2 M128.8,52.5c-0.3-0.3-0.8-0.7-1.3-0.7c-0.7,0-1.2,0.4-1.5,0.9
			c-0.4,0.7-0.4,2.1-0.4,2.7c0,2,0.4,2.7,0.8,3.1c0.3,0.2,0.6,0.5,1.2,0.5c1.7,0,2-1.9,2-3.6C129.4,54.3,129.3,53.1,128.8,52.5"/>
		<path class="st1" d="M145,60.9l-3.8,0.1l-0.2-0.1c-1.1-2.2-1.3-2.7-3.1-6l0,2.4l0.1,3.5L138,61c-1.6,0-2,0-3.4,0.1l-0.1-0.1
			c0-3.4,0-6.8,0-10.2c0-2.7-0.1-3.7-0.3-5.7l0.1-0.1l3.6-0.5l0.2,0.1c-0.1,3.2-0.1,4-0.1,7.9v2.3c1-1.4,1.2-1.8,2.8-4.6l0.2-0.1
			l3.4,0l0.1,0.2c-1.5,1.9-1.6,2.1-3.1,4.1c1.6,2.9,1.8,3.2,3.8,6.6L145,60.9z"/>
		<path class="st1" d="M154.2,46.3c-0.1,2.9-0.1,5.8-0.1,8.7c0,3,0,4,0.1,5.9l-0.1,0.1c-1.7,0-2.2,0-3.7,0.1l-0.1-0.1
			c0.1-2.2,0.1-3.5,0.1-5.9c0-5.3-0.1-6.4-0.2-8.7l0.1-0.1c1.5,0,2,0,3.8-0.1L154.2,46.3z"/>
		<path class="st1" d="M166.6,60.9c-1.7,0-2,0-3.4,0.1l-0.1-0.1c0-0.7,0-1.4,0-2.2c0-0.8,0-3.7-0.1-4.3c-0.1-0.8-0.2-2-1.3-2
			c-0.7,0-1.2,0.4-1.6,0.6c0,3.7,0,4.6,0.2,7.8l-0.1,0.1c-1.7,0-2,0-3.5,0.1l-0.1-0.1c0-1.3,0-2.7,0-4c0-3.4-0.1-4.7-0.3-6.5
			l0.1-0.1c1.6-0.2,1.9-0.3,3.5-0.6l0.2,0.1l0,1.2c1-0.6,2.1-1.2,3.3-1.2c0.8,0,1.9,0.2,2.6,1.3c0.5,0.9,0.5,1.8,0.6,3.8v1.6
			c0,2,0,2.6,0.2,4.5L166.6,60.9z"/>
		<path class="st1" d="M173.9,54.1c1.1,0.4,2.8,1,2.8,3.3c0,0.1,0,0.3,0,0.5c-0.4,3-3.5,3.3-5.1,3.3c-1.5,0-2.4-0.3-3.4-0.7
			l-0.1-0.2c0.1-1,0.1-1.3,0.1-2.4l0.2-0.1c0.3,0.3,0.5,0.4,0.8,0.6c0.8,0.4,1.6,0.6,2.2,0.6c1.2,0,1.7-0.6,1.7-1.1
			c0-0.8-0.9-1.1-1.5-1.3l-0.8-0.3c-1-0.4-2.7-1-2.7-3.3c0-0.8,0.3-1.5,0.6-1.8c1.1-1.6,3.1-1.7,4.2-1.7c1.4,0,2.2,0.3,3.2,0.5
			l0.1,0.1l-0.2,2.3l-0.2,0.1c-0.5-0.3-1.3-0.9-2.6-0.9c-1.3,0-1.5,0.7-1.5,0.9c0,0.6,0.6,0.8,1.3,1.1L173.9,54.1z"/>
		<path class="st1" d="M188,49.9c0,2-0.1,3.9-0.1,5.9c0,2.7,0,3.5,0.1,5l-0.1,0.1c-1.4,0-1.8,0-3.3,0.1l-0.1-0.1l0-0.9
			c-0.8,0.6-1.6,1.3-3.1,1.3c-1,0-2-0.3-2.7-1.1c-0.8-0.9-0.9-1.8-0.8-4.1v-1.5c0-2.1,0-2.7-0.1-4.5l0.1-0.1l3.4-0.2l0.1,0.2l0,4.2
			c0,0.5,0,1.1,0,1.6c0,1.2,0,2.8,1.5,2.8c0.6,0,1-0.3,1.6-0.7c0-0.8,0-1.2,0-1.8c0-0.3,0-3.7-0.1-6l0.1-0.1l3.4-0.2L188,49.9z"/>
		<path class="st1" d="M195.7,53.3c-0.3-0.2-0.5-0.3-0.9-0.3c-1.4,0-1.4,1.4-1.4,2.3c0,1.4,0.1,3.8,0.2,5.5l-0.1,0.1
			c-1.7,0-2,0-3.6,0.1l-0.1-0.1c0-1.7,0.1-3.5,0.1-5.2c0-2.9-0.1-3.8-0.2-5.4l0.1-0.1c1.5-0.2,1.9-0.3,3.5-0.6l0.2,0.2l-0.1,1.9
			c0.7-1.5,1.6-2,2.5-2c0.1,0,0.3,0,0.4,0l0.1,0.1l-0.6,3.4L195.7,53.3z"/>
		<path class="st1" d="M206.4,56.3c0,2,0,2.5,0.1,4.5l-0.1,0.1c-1.4,0-1.8,0-3.3,0.1l-0.1-0.1v-0.8c-0.4,0.4-1.3,1.1-2.9,1.1
			c-2,0-3.7-1.4-3.7-3.7c0-0.9,0.4-2.1,1.6-2.9c1.3-0.8,2.4-1,4.9-1.3c0-0.3-0.1-0.7-0.3-0.9c-0.3-0.3-0.6-0.4-1.4-0.4
			c-1.4,0-2.8,0.5-3.5,0.8l-0.2-0.1l0.1-2.3l0.1-0.2c1.2-0.4,2.3-0.7,4.1-0.7c2.7,0,3.5,0.8,3.9,1.5c0.5,0.9,0.5,1.7,0.5,3.6
			L206.4,56.3z M203,55.5c-1.4,0.2-3.1,0.4-3.1,1.8c0,0.9,0.6,1.3,1.4,1.3c0.7,0,1.3-0.3,1.7-0.5V55.5z"/>
		<path class="st1" d="M218.2,60.9c-1.7,0-2,0-3.4,0.1l-0.1-0.1c0-0.7,0-1.4,0-2.2c0-0.8,0-3.7-0.1-4.3c-0.1-0.8-0.2-2-1.3-2
			c-0.7,0-1.2,0.4-1.6,0.6c0,3.7,0,4.6,0.2,7.8l-0.1,0.1c-1.7,0-2,0-3.5,0.1l-0.1-0.1c0-1.3,0-2.7,0-4c0-3.4-0.1-4.7-0.3-6.5
			l0.1-0.1c1.6-0.2,1.9-0.3,3.5-0.6l0.2,0.1l0,1.2c1-0.6,2.1-1.2,3.3-1.2c0.8,0,1.9,0.2,2.6,1.3c0.5,0.9,0.5,1.8,0.6,3.8v1.6
			c0,2,0,2.6,0.1,4.5L218.2,60.9z"/>
		<path class="st1" d="M228,58.1l-0.1,2.5l-0.1,0.1c-0.9,0.2-1.6,0.5-2.7,0.5c-4.7,0-6-3.3-6-5.7c0-2.1,1-5.9,5.9-5.9
			c1.2,0,2,0.3,2.9,0.5l0.1,0.1c-0.2,1.1-0.2,1.4-0.3,2.5l-0.2,0.1c-0.6-0.4-1.1-0.8-2-0.8c-2,0-2.7,1.8-2.7,3.3
			c0,1.3,0.5,3.2,2.8,3.2c1.1,0,1.6-0.3,2.2-0.7L228,58.1z"/>
		<path class="st1" d="M238.8,57.9l-0.1,2.4l-0.1,0.2c-1.1,0.4-1.9,0.8-3.6,0.8c-1.5,0-4.4-0.3-5.6-3.1c-0.3-0.7-0.5-1.8-0.5-2.7
			c0-3.6,2.2-5.8,5.5-5.8c0.5,0,1,0,1.5,0.2c0.7,0.2,2.3,0.7,3.1,3.1c0.3,1,0.3,2.1,0.3,3.1l-0.1,0.1l-6.8,0.1
			c0.1,0.4,0.1,0.8,0.5,1.3c0.5,0.8,1.4,1.1,2.6,1.1c1.5,0,2.5-0.5,3.3-0.9L238.8,57.9z M235.8,54c0-0.5,0-1-0.3-1.4
			c-0.2-0.4-0.6-0.7-1.3-0.7c-0.3,0-0.6,0.1-0.8,0.2c-0.8,0.5-0.9,1.4-1,2L235.8,54z"/>
		<path class="st1" d="M109.7,55.1c0-2.4,0-3.6,0.1-5.5l-0.1-0.1c-5-0.1-6.6-0.1-8.3,1c-1.9,1.2-2.3,3.4-2.3,5
			c0,2.9,1.5,5.3,4.6,5.3c1.3,0,2-0.4,2.6-0.8h0l0,0.3h0c0,1.1-0.1,1.9-0.6,2.4c-0.5,0.5-1.1,0.6-1.6,0.6c-1.4,0-2.2-0.6-2.6-0.9
			l-0.2,0c-0.1,0.4-0.1,0.8-0.2,1.1c-0.1,0.3-0.2,0.7-0.3,1l0.1,0.2c0.4,0.3,0.9,0.5,2,0.8c0.7,0.1,1.5,0.2,2.2,0.2
			c1.8,0,3.4-0.6,4.1-1.9c0.4-0.6,0.5-1.4,0.6-2.4l0,0c0-0.2,0-1,0-1.7h0C109.7,58.4,109.7,56.8,109.7,55.1 M105,58.4
			c-2.2,0-2.2-2.7-2.2-3.3c0-1.3,0.5-3.2,2.8-3.2c0.2,0,0.4,0,0.6,0l0,6C105.8,58.2,105.5,58.4,105,58.4"/>
		<g>
			<path class="st1" d="M138.2,24.5l0,10.3l-3-9.2h-0.7l-3,9.3V24.5h-5.4v0.3c0.6,0.6,1,1.4,1,2v7.5c0,2.1,0.1,3.8,3.8,3.8h2.2
				l1.6-6l1.9,6h2.6c1.2,0,3.3-0.6,3.3-2.8V24.5H138.2z"/>
			<path class="st1" d="M109.5,35.9l0-11.3h-4.3l0,12v1.6h5.4v-0.3C109.9,37.5,109.5,36.6,109.5,35.9"/>
			<path class="st1" d="M82.5,28.2c-0.2-0.4-0.2-1,0-1.3c0.1-0.1,0.5-0.7,2-0.7c1.5,0,4,0.9,4.1,0.9v-2.6c-1.3-0.4-2.6-0.6-3.9-0.6
				c-1.2,0-2.3,0.2-3.3,0.5c-2,0.7-2.9,1.8-3.2,3.8c0,0.3-0.2,2,1,3.2c1.3,1.3,3.3,1.3,3.8,1.3c0.9,0,1.7,0.1,2.5,0.5
				c0.5,0.2,0.9,0.8,0.9,1.5c0,0.7-0.5,1.2-1.3,1.3c-0.4,0.1-0.9,0.1-1.4,0.1c-2.4,0-5-1.5-5-1.5v2.9c0.1,0,0.2,0.1,0.4,0.1
				c2,0.7,4.3,0.9,6.8,0.6c1.6-0.3,2.8-0.9,3.6-2.1c1-1.3,1.1-3.4,0.3-4.9c-0.4-0.7-1.1-1.4-2.4-1.9c-1.4-0.5-3.1-0.4-3.8-0.6
				C82.8,28.7,82.6,28.3,82.5,28.2"/>
			<path class="st1" d="M121.5,24.3c-2.8,0-5.3,3.3-5.3,3.3v-3h-5.2v0.3c0.4,0.3,0.8,1,0.9,2.1v11.2h4.3v-4.4c0-1.7,0.1-3,0.8-3.9
				c0,0,1.4-2,2.6-2c1.1,0,1.3,1.1,1.3,1.4c0,0.3,0,9,0,9h4.3v-9.8C125.1,26.8,124.3,24.3,121.5,24.3"/>
			<path class="st1" d="M163.8,28.2c-0.2-0.4-0.2-1,0-1.3c0.1-0.1,0.5-0.7,2-0.7c1.5,0,4,0.9,4.1,0.9v-2.6c-1.2-0.4-2.6-0.6-3.9-0.6
				c-1.2,0-2.3,0.2-3.3,0.5c-2,0.7-2.9,1.8-3.2,3.8c0,0.3-0.2,2,1,3.2c1.3,1.3,3.3,1.3,3.8,1.3c0.9,0,1.7,0.1,2.5,0.5
				c0.5,0.2,0.9,0.8,0.9,1.5c-0.1,0.7-0.5,1.2-1.3,1.3c-0.4,0.1-0.9,0.1-1.4,0.1c-2.4,0-5-1.5-5-1.5v2.9c0.1,0,0.2,0.1,0.4,0.1
				c2,0.7,4.3,0.9,6.8,0.6c1.6-0.3,2.8-0.9,3.6-2.1c1-1.3,1.1-3.4,0.3-4.9c-0.4-0.7-1.1-1.4-2.4-1.9c-1.4-0.5-3.1-0.4-3.8-0.6
				C164.1,28.7,163.8,28.3,163.8,28.2"/>
			<path class="st1" d="M205,38.2c-1.4,0-1.9-1.4-1.9-1.4s-1.4,1.9-4.4,1.9c-0.8,0-1.7-0.1-2.5-0.4c-1.5-0.5-2.2-2.1-2.2-3.4V27
				c0-0.1-0.3-1.5-0.9-2.1v-0.4h5.3c0,0,0,9.7,0,10.1c0,0.5,0.4,1.3,1.9,1.3c1.4,0,2.9-1.4,2.9-3.6v-7.8h4.4v13.6H205z"/>
			<path class="st1" d="M103.1,26.7c-0.1-0.3-0.6-1.4-1.6-2.1c-1-0.6-2.4-0.7-2.9-0.7c-1.2,0-2.3,0.6-2.4,0.6v2.6c0.5,0,3-1.1,3,3.2
				v1.4c0,1.1-0.1,2-0.3,2.5c-0.2,0.6-0.7,1.2-1.3,1.5c-0.2,0.1-0.6,0.3-1.1,0.3c-0.4,0-0.5-0.3-0.5-0.4c-0.2-0.4-2.2-10-2.2-10
				l-3.6,2.2c0,0,1.8,6.5,2.2,8.1c0.5,1.8,2.2,2.6,4,2.6c1.8,0,3.7-0.4,5-1.6c0.7-0.7,1.3-1.4,1.6-2.3c0.2-0.7,0.3-1.4,0.3-1.9
				c0-1,0-3.4,0-3.4C103.4,28.4,103.4,27.6,103.1,26.7"/>
			<path class="st1" d="M70,23.9c-6,0-7,2.7-7,2.7l2.2,1.4c0,0-1.6,0.6-1.6,2.7v7.4H68v-8.5c0.1-0.8,1.1-1.4,1.1-1.4l-1-0.8
				c0.2-0.8,0.9-1.3,2-1.3c1.4,0,2.1,1.1,2.1,2.5v9.6h4.5V27.5C76.7,25.6,75,23.9,70,23.9"/>
			<path class="st1" d="M184.9,23.9c-5.9,0-6.8,2.7-6.8,2.7l2.1,1.4c0,0-1.6,0.6-1.6,2.7v7.4h4.4v-8.5c0.1-0.8,1.1-1.4,1.1-1.4
				l-1-0.8c0.3-0.8,0.8-1.3,2-1.3c1.7,0,2.2,1.3,2.2,2.5v9.6h4.5V27.5C191.9,25.8,190.7,23.9,184.9,23.9"/>
			<path class="st1" d="M151.4,38.4c3.3-0.1,6.6-0.6,6.6-3.8V19.3h-4.5v14.6c0,1.9-1,2.2-2.1,2.2c-1.1,0-2-0.6-2-2v-9.5H144v0.2
				c0.4,0.3,0.9,1,0.9,1.7v8.2c0,3.4,3.8,3.7,6.4,3.8H151.4z"/>
			<path class="st1" d="M232.8,36.3c-0.7,0.3-1.7,0.2-2.5-0.2c-1.1-0.9-1.2-2.5-0.8-3.5c0.5-0.9,1.3-1.3,2.1-1.6v-1.9
				c-0.3,0-0.6,0.1-0.9,0.1c-0.1,0-0.3,0-0.4,0.1c-0.5,0-0.8-0.2-1-0.5c-0.2-0.3-0.3-0.8-0.2-1.3c0.1-0.4,0.3-0.7,0.6-0.9
				c0.3-0.2,0.6-0.3,1-0.3c0.8,0,1.4,0.5,1.4,0.5v-2.2c-0.3-0.1-1.4-0.5-3.3-0.3c-2.5,0.2-3.3,1.4-3.6,2.1c-0.4,0.9-0.2,2.2,0.5,3
				c0.3,0.3,0.4,0.4,1,0.7l0.3,0.2l-0.3,0.2c0,0-0.3,0.1-0.6,0.3c-1.1,0.7-1.4,2.6-1.2,3.7c0.2,1.6,1.5,3.2,3.2,3.6
				c1.2,0.3,2.4,0.5,3.7,0.5c1.7,0,3.3-0.3,4.7-0.9c1.1-0.6,2.1-1.6,2.1-3.5c0-1.4,0-9.5,0-9.5h-4.4v9.8
				C234.1,35,233.6,36,232.8,36.3"/>
			<path class="st1" d="M216.1,23.9c-5.9,0-6.7,2.7-6.7,2.7l2.2,1.4c0,0-1.6,0.6-1.6,2.7v5c0,0.3-0.3,1.5-0.9,2.1v0.3h0.4h3.6h0.1
				c1.1,0,1.2-1.7,1.2-1.7v-6.1l0-0.6c0-0.9,1.1-1.5,1.1-1.5l-1-0.8c0.2-0.8,0.8-1.3,2-1.3c1.7,0,2.2,1.3,2.2,2.5v9.6h4.5V27.5
				C223.1,25.8,221.9,23.9,216.1,23.9"/>
			<path class="st1" d="M83.4,40.2V41c0,0,0,0,0.1,0c0.4,0,0.9,0.3,0.9,0.9v3h4v-3.2c0-1-0.7-1.4-1.5-1.4
				C86.8,40.2,83.4,40.2,83.4,40.2"/>
			<path class="st1" d="M191.2,20.7c-0.5,0-0.9,0-1.4-0.1c-0.8-0.2-1.2-0.6-1.3-1.3c0-0.1,0-0.1,0-0.2h-3.8c0.1,0.6,0.3,1.2,0.7,1.6
				c0.8,1.1,2,1.8,3.6,2c2.5,0.3,4.8,0.1,6.7-0.6v-2.7C195,19.8,193.1,20.7,191.2,20.7"/>
			<path class="st1" d="M222.3,20.7c-0.5,0-0.9,0-1.3-0.1c-0.8-0.2-1.2-0.6-1.3-1.3c0-0.1,0-0.1,0-0.2h-3.8c0.1,0.6,0.3,1.2,0.7,1.6
				c0.8,1.1,2,1.8,3.6,2c2.5,0.3,4.8,0.1,6.7-0.6v-2.7C226.1,19.8,224.2,20.7,222.3,20.7"/>
		</g>
		<g>
			<path class="st1" d="M176.9,27.2l-0.2,0c-1.2,0.4-2.2,0.6-2.8,0.6c-0.9,0-1.4-0.6-1.5-0.6l-0.2-0.2l-0.3,0.1v2.2l0,0.1l0,0
				c0.1,0.1,0.7,0.8,1.8,0.8c0.7,0,1.7-0.2,2.9-0.6V27.2z"/>
			<path class="st1" d="M176.9,32.8l-0.2,0c-1.2,0.4-2.2,0.6-2.8,0.6c-0.9,0-1.4-0.6-1.5-0.6l-0.2-0.2l-0.3,0.1v2.2l0,0.1l0,0
				c0.1,0.1,0.7,0.8,1.8,0.8c0.7,0,1.7-0.2,2.9-0.6V32.8z"/>
		</g>
	</g>
</g>
</svg>
