<?xml version="1.0" encoding="utf-8"?>
<!-- Generator: Adobe Illustrator 19.0.0, SVG Export Plug-In . SVG Version: 6.00 Build 0)  -->
<svg version="1.1" id="Layer_1" xmlns="http://www.w3.org/2000/svg" xmlns:xlink="http://www.w3.org/1999/xlink" x="0px" y="0px"
	 viewBox="-179 287 450 153" style="enable-background:new -179 287 450 153;" xml:space="preserve">
<style type="text/css">
	.st0{fill:none;}
	.st1{fill:#005288;}
</style>
<g>
	<rect x="-179" y="287" class="st0" width="450" height="153"/>
	<g>
		<path class="st1" d="M-79,362.8c0,21.9-17.8,39.5-39.5,39.5s-39.5-17.8-39.5-39.5c0-21.9,17.8-39.5,39.5-39.5
			C-96.6,323.3-79,340.9-79,362.8 M-89.9,385c-0.5-0.2-1.2-0.2-1.8-0.2c-2.3,0-4.6,0.5-6.9,1.8c-1.4,0.7-3.2,1.8-5.2,3
			c-5.2,3.2-11,6.8-16.9,6.8c-6.9,0-11-2.1-17.1-5.3l-2.3-1.2c-1.4-0.7-2.8-1.2-4.1-1.6c6.6,6.9,16,10.8,25.6,10.8
			C-107.3,399.1-96.6,393.9-89.9,385 M-86,378.8c-2.1-0.9-4.3-1.4-6.4-1.4c-5.9,0-10.7,3.4-15.5,6.8c-1.2,0.9-2.7,1.8-3.9,2.7
			c-3.6,2.1-7.3,3.4-11.4,3.4c-4.8,0-8.7-1.6-10.1-2.3c-0.7-0.4-1.6-0.9-2.3-1.2c-2.8-1.6-5.7-3.2-9.1-3.2c-0.9,0-2,0.2-3,0.4
			c0.4,0.5,0.9,1.2,1.2,1.8c2.3,0.2,4.8,0.9,7.5,2.1l2.3,1.2c5.9,3,9.6,5,16.2,5c5.2,0,10.7-3.4,15.7-6.4c2-1.2,3.7-2.3,5.3-3.2
			c2.7-1.2,5.3-2,7.8-2c1.1,0,2.1,0.2,3.2,0.4C-87.6,381.7-86.7,380.2-86,378.8 M-82.2,362.8c0-19.9-16.2-36.3-36.3-36.3
			c-19.9,0-36.3,16.4-36.3,36.3c0,6.9,2,13.5,5.5,19.4c1.4-0.5,2.8-0.7,4.3-0.7c3.9,0,7.1,1.8,10,3.4c0.9,0.5,1.6,0.9,2.5,1.2
			c1.2,0.7,4.8,2.1,9.2,2.1c3.7,0,7.1-1.1,10.1-3c1.1-0.7,2-1.4,3-2.1l0.7-0.5c3.7-2.7,7.5-5.3,11.9-6.6c1.6-0.5,3.2-0.7,4.8-0.7
			c2.5,0,4.8,0.5,7.3,1.6C-83.1,372.4-82.2,367.8-82.2,362.8 M-88.1,359.8c0,0-0.2,0.5-0.5,1.1l0,0c-0.2,0.2-0.2,0.4-0.4,0.5
			c-0.5,0.7-1.2,1.4-2.3,2c-0.2,0-0.2,0.2-0.4,0.2c-0.2,0.2-0.5,0.2-0.7,0.2c-1.1,0.4-2.5,0.7-4.3,0.7h-1.1c-1.1,0-2,0-3,0.2
			c-3.4,0-6.6,0.5-9.2,2.5c-2.1,1.4-3.9,3.6-5.9,5c-4.4,3.6-11,4.4-16.5,2.5c-3.2-1.2-6.6-3.7-8.4-6.9c-1.2-2.3-2.1-5-2.7-7.6
			c-0.7-2.1-3-4.1-5.3-4.4c0.2-0.4,0.4-0.7,0.7-0.9c2-2.3,5-3.6,8-2.7c2.5,0.7,3.6,3.4,4.6,5.3c0.5,0.9,1.4,1.8,2.7,1.8
			c0.7,0,1.6-0.5,1.8-1.2c0.4-1.1-0.4-2-1.1-2.8c-1.8-2.1-4.4-4.4-2.8-7.5c1.2-2.1,3.6-3.6,6-4.1c0,0,2-0.4,3-0.4h24.9
			c2-0.2,3.7-0.7,5.5-1.6l0,0c0,2-1.4,3.7-3.2,4.6c-0.9,0.4-2.7,0.9-3.6,0.9c-0.7,0-21.3,0-21.3,0c-0.5,0-1.1,0.2-1.2,0.7
			c-0.2,0.2-0.2,0.7,0,0.9c0.4,0.5,0.7,0.5,1.4,0.5h21.7c1.8,0,3.2-0.7,4.6-1.4c0.2,0.5-0.4,1.4-0.7,2.1c-1.6,2.1-3.9,3-6.4,3h-15.3
			c-0.7,0-1.1,0.4-1.2,0.9c0,0.4,0,0.7,0.2,0.9c0.4,0.4,0.9,0.4,1.4,0.4h14.6c2,0,3.9-0.5,5.7-1.2c0,1.1-0.9,1.8-1.6,2.5
			c-2.1,2-4.8,2.5-7.8,2.5h-7.8c-0.5,0-0.9,0.2-1.2,0.5c-0.2,0.2-0.4,0.7-0.2,1.1c0.4,0.4,0.9,0.5,1.4,0.5h22.4
			C-92.9,361-91,360.8-88.1,359.8 M-141.1,354.6c0-0.5-0.5-1.1-1.1-1.1c-0.5,0-1.1,0.5-1.1,1.1s0.5,1.1,1.1,1.1
			S-141.1,355.2-141.1,354.6"/>
		<path class="st1" d="M-65.9,395.5l-0.2-0.2c0-5.3,0.2-10.5,0.2-15.8c0-5.2,0-6.6-0.2-10.1l0.2-0.2h5.2c1.2,0,3.6,0,4.8,0
			c3.6,0,6,0.5,7.6,2.1c1.2,1.4,1.4,3,1.4,4.1c0,0.9-0.2,1.8-0.5,2.7c-0.9,2-2.5,2.7-3.7,3.2c0.7,0.2,1.6,0.4,2.3,0.7
			c2.1,1.1,3.2,3.2,3.2,5.7c0,2.1-0.7,4.4-3.2,6.2c-2.8,2-7.1,1.8-10.5,1.8h-6.6V395.5z M-59.7,379.7c1.4,0,3.4,0,4.4-0.4
			c0.5-0.2,2-1.1,2-3c0-2.5-1.8-3.2-3.9-3.2c-0.7,0-1.6,0-2.5,0V379.7z M-59.7,391.3c1.6,0,3.6,0,4.8-0.4c1.4-0.5,2.3-1.6,2.3-3.2
			c0-1.2-0.4-2.3-1.4-3c-1.1-0.7-2.7-0.7-5.5-0.5v7.1H-59.7z"/>
		<path class="st1" d="M-26.4,387.2c0,3.6,0,4.4,0.2,8l-0.2,0.4c-2.5,0-3.2,0-5.9,0.2l-0.2-0.2v-1.4c-0.7,0.7-2.3,2-5.2,2
			c-3.6,0-6.6-2.5-6.6-6.6c0-1.6,0.7-3.7,2.8-5.2c2.3-1.4,4.3-1.8,8.7-2.3c0-0.5-0.2-1.2-0.5-1.6c-0.5-0.5-1.1-0.7-2.5-0.7
			c-2.5,0-5,0.9-6.2,1.4l-0.2-0.2l0.2-4.1l0.2-0.4c2.1-0.7,4.1-1.2,7.3-1.2c4.8,0,6.2,1.4,6.9,2.7c0.9,1.6,0.9,3,0.9,6.4
			L-26.4,387.2z M-32.6,385.8c-2.5,0.4-5.5,0.7-5.5,3.2c0,1.6,1.1,2.3,2.5,2.3c1.2,0,2.3-0.5,3-0.9V385.8z"/>
		<path class="st1" d="M-5,395.4c-3,0-3.6,0-6,0.2l-0.2-0.2c0-1.2,0-2.5,0-3.9c0-1.4,0-6.6-0.2-7.6c-0.2-1.4-0.4-3.6-2.3-3.6
			c-1.2,0-2.1,0.7-2.8,1.1c0,6.6,0,8.2,0.4,13.9l-0.2,0.2c-3,0-3.6,0-6.2,0.2l-0.2-0.2c0-2.3,0-4.8,0-7.1c0-6-0.2-8.4-0.5-11.6
			l0.2-0.2c2.8-0.4,3.4-0.5,6.2-1.1l0.4,0.2v2.1c1.8-1.1,3.7-2.1,5.9-2.1c1.4,0,3.4,0.4,4.6,2.3c0.9,1.6,0.9,3.2,1.1,6.8v2.8
			c0,3.6,0,4.6,0.2,8L-5,395.4z"/>
		<path class="st1" d="M38,395.4l-6.8,0.2l-0.4-0.2c-2-3.9-2.3-4.8-5.5-10.7v4.3l0.2,6.2v0.4c-2.8,0-3.6,0-6,0.2l-0.2-0.2
			c0-6,0-12.1,0-18.1c0-4.8-0.2-6.6-0.5-10.1l0.2-0.2l6.4-0.9l0.4,0.2c-0.2,5.7-0.2,7.1-0.2,14.1v4.1c1.8-2.5,2.1-3.2,5-8.2l0.4-0.2
			h6l0.2,0.4c-2.7,3.4-2.8,3.7-5.5,7.3c2.8,5.2,3.2,5.7,6.8,11.7L38,395.4z"/>
		<path class="st1" d="M47.6,395.9c-5.3,0-7.1-2-8.2-3.4c-1.4-2-1.8-4.4-1.8-6.8c0-6.8,3.7-10.3,10.1-10.3c0.9,0,2.8,0,4.6,0.7
			c5.2,2.1,5.2,8,5.2,9.4C57.6,391.1,55.4,395.9,47.6,395.9 M50.1,380.4c-0.5-0.5-1.4-1.2-2.3-1.2c-1.2,0-2.1,0.7-2.7,1.6
			c-0.7,1.2-0.7,3.7-0.7,4.8c0,3.6,0.7,4.8,1.4,5.5c0.5,0.4,1.1,0.9,2.1,0.9c3,0,3.6-3.4,3.6-6.4C51.2,383.6,51,381.5,50.1,380.4"/>
		<path class="st1" d="M78.9,395.4l-6.8,0.2l-0.4-0.2c-2-3.9-2.3-4.8-5.5-10.7v4.3l0.2,6.2v0.4c-2.8,0-3.6,0-6,0.2l-0.2-0.2
			c0-6,0-12.1,0-18.1c0-4.8-0.2-6.6-0.5-10.1l0.2-0.2l6.4-0.9l0.4,0.2c-0.2,5.7-0.2,7.1-0.2,14.1v4.1c1.8-2.5,2.1-3.2,5-8.2l0.4-0.2
			h6l0.2,0.4c-2.7,3.4-2.8,3.7-5.5,7.3c2.8,5.2,3.2,5.7,6.8,11.7L78.9,395.4z"/>
		<path class="st1" d="M95.3,369.4c-0.2,5.2-0.2,10.3-0.2,15.5c0,5.3,0,7.1,0.2,10.5l-0.2,0.2c-3,0-3.9,0-6.6,0.2l-0.2-0.2
			c0.2-3.9,0.2-6.2,0.2-10.5c0-9.4-0.2-11.4-0.4-15.5l0.2-0.2c2.7,0,3.6,0,6.8-0.2L95.3,369.4z"/>
		<path class="st1" d="M117.3,395.4c-3,0-3.6,0-6,0.2l-0.2-0.2c0-1.2,0-2.5,0-3.9c0-1.4,0-6.6-0.2-7.6c-0.2-1.4-0.4-3.6-2.3-3.6
			c-1.2,0-2.1,0.7-2.8,1.1c0,6.6,0,8.2,0.4,13.9l-0.2,0.2c-3,0-3.6,0-6.2,0.2l-0.2-0.2c0-2.3,0-4.8,0-7.1c0-6-0.2-8.4-0.5-11.6
			l0.2-0.2c2.8-0.4,3.4-0.5,6.2-1.1l0.4,0.2v2.1c1.8-1.1,3.7-2.1,5.9-2.1c1.4,0,3.4,0.4,4.6,2.3c0.9,1.6,0.9,3.2,1.1,6.8v2.8
			c0,3.6,0,4.6,0.4,8L117.3,395.4z"/>
		<path class="st1" d="M130.3,383.3c2,0.7,5,1.8,5,5.9c0,0.2,0,0.5,0,0.9c-0.7,5.3-6.2,5.9-9.1,5.9c-2.7,0-4.3-0.5-6-1.2l-0.2-0.4
			c0.2-1.8,0.2-2.3,0.2-4.3l0.4-0.2c0.5,0.5,0.9,0.7,1.4,1.1c1.4,0.7,2.8,1.1,3.9,1.1c2.1,0,3-1.1,3-2c0-1.4-1.6-2-2.7-2.3l-1.4-0.5
			c-1.8-0.7-4.8-1.8-4.8-5.9c0-1.4,0.5-2.7,1.1-3.2c2-2.8,5.5-3,7.5-3c2.5,0,3.9,0.5,5.7,0.9l0.2,0.2l-0.4,4.1l-0.4,0.2
			c-0.9-0.5-2.3-1.6-4.6-1.6s-2.7,1.2-2.7,1.6c0,1.1,1.1,1.4,2.3,2L130.3,383.3z"/>
		<path class="st1" d="M155.4,375.8c0,3.6-0.2,6.9-0.2,10.5c0,4.8,0,6.2,0.2,8.9l-0.2,0.2c-2.5,0-3.2,0-5.9,0.2l-0.2-0.2v-1.6
			c-1.4,1.1-2.8,2.3-5.5,2.3c-1.8,0-3.6-0.5-4.8-2c-1.4-1.6-1.6-3.2-1.4-7.3v-2.7c0-3.7,0-4.8-0.2-8l0.2-0.2l6-0.4l0.2,0.4v7.5
			c0,0.9,0,2,0,2.8c0,2.1,0,5,2.7,5c1.1,0,1.8-0.5,2.8-1.2c0-1.4,0-2.1,0-3.2c0-0.5,0-6.6-0.2-10.7l0.2-0.2l6-0.4L155.4,375.8z"/>
		<path class="st1" d="M169.1,381.8c-0.5-0.4-0.9-0.5-1.6-0.5c-2.5,0-2.5,2.5-2.5,4.1c0,2.5,0.2,6.8,0.4,9.8l-0.2,0.2
			c-3,0-3.6,0-6.4,0.2l-0.2-0.2c0-3,0.2-6.2,0.2-9.2c0-5.2-0.2-6.8-0.4-9.6l0.2-0.2c2.7-0.4,3.4-0.5,6.2-1.1l0.4,0.4L165,379
			c1.2-2.7,2.8-3.6,4.4-3.6c0.2,0,0.5,0,0.7,0l0.2,0.2l-1.1,6L169.1,381.8z"/>
		<path class="st1" d="M188.1,387.2c0,3.6,0,4.4,0.2,8l-0.2,0.2c-2.5,0-3.2,0-5.9,0.2l-0.2-0.2v-1.4c-0.7,0.7-2.3,2-5.2,2
			c-3.6,0-6.6-2.5-6.6-6.6c0-1.6,0.7-3.7,2.8-5.2c2.3-1.4,4.3-1.8,8.7-2.3c0-0.5-0.2-1.2-0.5-1.6c-0.5-0.5-1.1-0.7-2.5-0.7
			c-2.5,0-5,0.9-6.2,1.4l-0.4-0.2l0.2-4.1l0.2-0.4c2.1-0.7,4.1-1.2,7.3-1.2c4.8,0,6.2,1.4,6.9,2.7c0.9,1.6,0.9,3,0.9,6.4
			L188.1,387.2z M182.1,385.8c-2.5,0.4-5.5,0.7-5.5,3.2c0,1.6,1.1,2.3,2.5,2.3c1.2,0,2.3-0.5,3-0.9L182.1,385.8L182.1,385.8z"/>
		<path class="st1" d="M209.1,395.4c-3,0-3.6,0-6,0.2l-0.2-0.2c0-1.2,0-2.5,0-3.9c0-1.4,0-6.6-0.2-7.6c-0.2-1.4-0.4-3.6-2.3-3.6
			c-1.2,0-2.1,0.7-2.8,1.1c0,6.6,0,8.2,0.4,13.9l-0.2,0.2c-3,0-3.6,0-6.2,0.2l-0.2-0.2c0-2.3,0-4.8,0-7.1c0-6-0.2-8.4-0.5-11.6
			l0.2-0.2c2.8-0.4,3.4-0.5,6.2-1.1l0.4,0.2v2.1c1.8-1.1,3.7-2.1,5.9-2.1c1.4,0,3.4,0.4,4.6,2.3c0.9,1.6,0.9,3.2,1.1,6.8v2.8
			c0,3.6,0,4.6,0.2,8L209.1,395.4z"/>
		<path class="st1" d="M226.5,390.4l-0.2,4.4l-0.2,0.2c-1.6,0.4-2.8,0.9-4.8,0.9c-8.4,0-10.7-5.9-10.7-10.1
			c0-3.7,1.8-10.5,10.5-10.5c2.1,0,3.6,0.5,5.2,0.9l0.2,0.2c-0.4,2-0.4,2.5-0.5,4.4l-0.4,0.2c-1.1-0.7-2-1.4-3.6-1.4
			c-3.6,0-4.8,3.2-4.8,5.9c0,2.3,0.9,5.7,5,5.7c2,0,2.8-0.5,3.9-1.2L226.5,390.4z"/>
		<path class="st1" d="M245.7,390l-0.2,4.3l-0.2,0.4c-2,0.7-3.4,1.4-6.4,1.4c-2.7,0-7.8-0.5-10-5.5c-0.5-1.2-0.9-3.2-0.9-4.8
			c0-6.4,3.9-10.3,9.8-10.3c0.9,0,1.8,0,2.7,0.4c1.2,0.4,4.1,1.2,5.5,5.5c0.5,1.8,0.5,3.7,0.5,5.5l-0.2,0.2l-12.1,0.2
			c0.2,0.7,0.2,1.4,0.9,2.3c0.9,1.4,2.5,2,4.6,2c2.7,0,4.4-0.9,5.9-1.6L245.7,390z M240.4,383.1c0-0.9,0-1.8-0.5-2.5
			c-0.4-0.7-1.1-1.2-2.3-1.2c-0.5,0-1.1,0.2-1.4,0.4c-1.4,0.9-1.6,2.5-1.8,3.6L240.4,383.1z"/>
		<path class="st1" d="M16.1,385c0-4.3,0-6.4,0.2-9.8l-0.2-0.2c-8.9-0.2-11.7-0.2-14.8,1.8c-3.4,2.1-4.1,6-4.1,8.9
			c0,5.2,2.7,9.4,8.2,9.4c2.3,0,3.6-0.7,4.6-1.4l0,0v0.5l0,0c0,2-0.2,3.4-1.1,4.3c-0.9,0.9-2,1.1-2.8,1.1c-2.5,0-3.9-1.1-4.6-1.6
			H1.2c-0.2,0.7-0.2,1.4-0.4,2c-0.2,0.5-0.4,1.2-0.5,1.8l0.2,0.4c0.7,0.5,1.6,0.9,3.6,1.4c1.2,0.2,2.7,0.4,3.9,0.4
			c3.2,0,6-1.1,7.3-3.4c0.7-1.1,0.9-2.5,1.1-4.3l0,0c0-0.4,0-1.8,0-3l0,0C16.1,390.9,16.1,388.1,16.1,385 M7.8,390.9
			c-3.9,0-3.9-4.8-3.9-5.9c0-2.3,0.9-5.7,5-5.7c0.4,0,0.7,0,1.1,0V390C9.2,390.6,8.6,390.9,7.8,390.9"/>
		<g>
			<path class="st1" d="M66.8,330.6v18.3l-5.3-16.4h-1.2l-5.3,16.5v-18.5h-9.6v0.5c1.1,1.1,1.8,2.5,1.8,3.6V348
				c0,3.7,0.2,6.8,6.8,6.8h3.9l2.8-10.7l3.4,10.7h4.6c2.1,0,5.9-1.1,5.9-5v-19.2H66.8z"/>
			<path class="st1" d="M15.8,350.9v-20.1H8.1v21.3v2.8h9.6v-0.5C16.5,353.7,15.8,352.1,15.8,350.9"/>
			<path class="st1" d="M-32.3,337.2c-0.4-0.7-0.4-1.8,0-2.3c0.2-0.2,0.9-1.2,3.6-1.2s7.1,1.6,7.3,1.6v-4.6
				c-2.3-0.7-4.6-1.1-6.9-1.1c-2.1,0-4.1,0.4-5.9,0.9c-3.6,1.2-5.2,3.2-5.7,6.8c0,0.5-0.4,3.6,1.8,5.7c2.3,2.3,5.9,2.3,6.8,2.3
				c1.6,0,3,0.2,4.4,0.9c0.9,0.4,1.6,1.4,1.6,2.7s-0.9,2.1-2.3,2.3c-0.7,0.2-1.6,0.2-2.5,0.2c-4.3,0-8.9-2.7-8.9-2.7v5.2
				c0.2,0,0.4,0.2,0.7,0.2c3.6,1.2,7.6,1.6,12.1,1.1c2.8-0.5,5-1.6,6.4-3.7c1.8-2.3,2-6,0.5-8.7c-0.7-1.2-2-2.5-4.3-3.4
				c-2.5-0.9-5.5-0.7-6.8-1.1C-31.7,338.1-32.1,337.4-32.3,337.2"/>
			<path class="st1" d="M37.1,330.3c-5,0-9.4,5.9-9.4,5.9v-5.3h-9.2v0.5c0.7,0.5,1.4,1.8,1.6,3.7V355h7.6v-7.8c0-3,0.2-5.3,1.4-6.9
				c0,0,2.5-3.6,4.6-3.6c2,0,2.3,2,2.3,2.5s0,16,0,16h7.6v-17.4C43.5,334.7,42.1,330.3,37.1,330.3"/>
			<path class="st1" d="M112.3,337.2c-0.4-0.7-0.4-1.8,0-2.3c0.2-0.2,0.9-1.2,3.6-1.2s7.1,1.6,7.3,1.6v-4.6
				c-2.1-0.7-4.6-1.1-6.9-1.1c-2.1,0-4.1,0.4-5.9,0.9c-3.6,1.2-5.2,3.2-5.7,6.8c0,0.5-0.4,3.6,1.8,5.7c2.3,2.3,5.9,2.3,6.8,2.3
				c1.6,0,3,0.2,4.4,0.9c0.9,0.4,1.6,1.4,1.6,2.7c-0.2,1.2-0.9,2.1-2.3,2.3c-0.7,0.2-1.6,0.2-2.5,0.2c-4.3,0-8.9-2.7-8.9-2.7v5.2
				c0.2,0,0.4,0.2,0.7,0.2c3.6,1.2,7.6,1.6,12.1,1.1c2.8-0.5,5-1.6,6.4-3.7c1.8-2.3,2-6,0.5-8.7c-0.7-1.2-2-2.5-4.3-3.4
				c-2.5-0.9-5.5-0.7-6.8-1.1C112.9,338.1,112.3,337.4,112.3,337.2"/>
			<path class="st1" d="M185.6,355c-2.5,0-3.4-2.5-3.4-2.5s-2.5,3.4-7.8,3.4c-1.4,0-3-0.2-4.4-0.7c-2.7-0.9-3.9-3.7-3.9-6v-14.1
				c0-0.2-0.5-2.7-1.6-3.7v-0.7h9.4c0,0,0,17.3,0,18c0,0.9,0.7,2.3,3.4,2.3c2.5,0,5.2-2.5,5.2-6.4v-13.9h7.8v24.2h-4.6V355z"/>
			<path class="st1" d="M4.4,334.5c-0.2-0.5-1.1-2.5-2.8-3.7c-1.8-1.1-4.3-1.2-5.2-1.2c-2.1,0-4.1,1.1-4.3,1.1v4.6
				c0.9,0,5.3-2,5.3,5.7v2.5c0,2-0.2,3.6-0.5,4.4c-0.4,1.1-1.2,2.1-2.3,2.7c-0.4,0.2-1.1,0.5-2,0.5c-0.7,0-0.9-0.5-0.9-0.7
				c-0.4-0.7-3.9-17.8-3.9-17.8l-6.4,3.9c0,0,3.2,11.6,3.9,14.4c0.9,3.2,3.9,4.6,7.1,4.6s6.6-0.7,8.9-2.8c1.2-1.2,2.3-2.5,2.8-4.1
				c0.4-1.2,0.5-2.5,0.5-3.4c0-1.8,0-6,0-6C4.9,337.5,4.9,336.1,4.4,334.5"/>
			<path class="st1" d="M-54.5,329.5c-10.7,0-12.5,4.8-12.5,4.8l3.9,2.5c0,0-2.8,1.1-2.8,4.8v13.2h7.8v-15.1c0.2-1.4,2-2.5,2-2.5
				l-1.8-1.4c0.4-1.4,1.6-2.3,3.6-2.3c2.5,0,3.7,2,3.7,4.4V355h8v-19C-42.6,332.6-45.6,329.5-54.5,329.5"/>
			<path class="st1" d="M149.9,329.5c-10.5,0-12.1,4.8-12.1,4.8l3.7,2.5c0,0-2.8,1.1-2.8,4.8v13.2h7.8v-15.1c0.2-1.4,2-2.5,2-2.5
				l-1.8-1.4c0.5-1.4,1.4-2.3,3.6-2.3c3,0,3.9,2.3,3.9,4.4V355h8v-19C162.3,332.9,160.2,329.5,149.9,329.5"/>
			<path class="st1" d="M90.3,355.3c5.9-0.2,11.7-1.1,11.7-6.8v-27.2h-8v26c0,3.4-1.8,3.9-3.7,3.9c-2,0-3.6-1.1-3.6-3.6v-16.9h-9.6
				v0.4c0.7,0.5,1.6,1.8,1.6,3v14.6c0,6,6.8,6.6,11.4,6.8h0.2V355.3z"/>
			<path class="st1" d="M235.1,351.6c-1.2,0.5-3,0.4-4.4-0.4c-2-1.6-2.1-4.4-1.4-6.2c0.9-1.6,2.3-2.3,3.7-2.8v-3.4
				c-0.5,0-1.1,0.2-1.6,0.2c-0.2,0-0.5,0-0.7,0.2c-0.9,0-1.4-0.4-1.8-0.9c-0.4-0.5-0.5-1.4-0.4-2.3c0.2-0.7,0.5-1.2,1.1-1.6
				c0.5-0.4,1.1-0.5,1.8-0.5c1.4,0,2.5,0.9,2.5,0.9v-3.9c-0.5-0.2-2.5-0.9-5.9-0.5c-4.4,0.4-5.9,2.5-6.4,3.7
				c-0.7,1.6-0.4,3.9,0.9,5.3c0.5,0.5,0.7,0.7,1.8,1.2l0.5,0.4l-0.5,0.4c0,0-0.5,0.2-1.1,0.5c-2,1.2-2.5,4.6-2.1,6.6
				c0.4,2.8,2.7,5.7,5.7,6.4c2.1,0.5,4.3,0.9,6.6,0.9c3,0,5.9-0.5,8.4-1.6c2-1.1,3.7-2.8,3.7-6.2c0-2.5,0-16.9,0-16.9h-7.8v17.4
				C237.4,349.3,236.5,351.1,235.1,351.6"/>
			<path class="st1" d="M205.4,329.5c-10.5,0-11.9,4.8-11.9,4.8l3.9,2.5c0,0-2.8,1.1-2.8,4.8v8.9c0,0.5-0.5,2.7-1.6,3.7v0.5h0.7h6.4
				h0.2c2,0,2.1-3,2.1-3v-10.8v-1.1c0-1.6,2-2.7,2-2.7l-1.8-1.4c0.4-1.4,1.4-2.3,3.6-2.3c3,0,3.9,2.3,3.9,4.4V355h8v-19
				C217.8,332.9,215.7,329.5,205.4,329.5"/>
			<path class="st1" d="M-30.7,358.5v1.4c0,0,0,0,0.2,0c0.7,0,1.6,0.5,1.6,1.6v5.3h7.1v-5.7c0-1.8-1.2-2.5-2.7-2.5
				C-24.6,358.5-30.7,358.5-30.7,358.5"/>
			<path class="st1" d="M161.1,323.9c-0.9,0-1.6,0-2.5-0.2c-1.4-0.4-2.1-1.1-2.3-2.3c0-0.2,0-0.2,0-0.4h-6.8
				c0.2,1.1,0.5,2.1,1.2,2.8c1.4,2,3.6,3.2,6.4,3.6c4.4,0.5,8.5,0.2,11.9-1.1v-4.8C167.8,322.3,164.5,323.9,161.1,323.9"/>
			<path class="st1" d="M216.4,323.9c-0.9,0-1.6,0-2.3-0.2c-1.4-0.4-2.1-1.1-2.3-2.3c0-0.2,0-0.2,0-0.4H205c0.2,1.1,0.5,2.1,1.2,2.8
				c1.4,2,3.6,3.2,6.4,3.6c4.4,0.5,8.5,0.2,11.9-1.1v-4.8C223.2,322.3,219.8,323.9,216.4,323.9"/>
		</g>
		<g>
			<path class="st1" d="M135.6,335.4h-0.4c-2.1,0.7-3.9,1.1-5,1.1c-1.6,0-2.5-1.1-2.7-1.1l-0.4-0.4l-0.5,0.2v3.9v0.2l0,0
				c0.2,0.2,1.2,1.4,3.2,1.4c1.2,0,3-0.4,5.2-1.1v-4.3H135.6z"/>
			<path class="st1" d="M135.6,345.4h-0.4c-2.1,0.7-3.9,1.1-5,1.1c-1.6,0-2.5-1.1-2.7-1.1l-0.4-0.4l-0.5,0.2v3.9v0.2l0,0
				c0.2,0.2,1.2,1.4,3.2,1.4c1.2,0,3-0.4,5.2-1.1v-4.3H135.6z"/>
		</g>
	</g>
</g>
</svg>
