<?xml version="1.0" encoding="utf-8"?>
<!-- Generator: Adobe Illustrator 19.0.0, SVG Export Plug-In . SVG Version: 6.00 Build 0)  -->
<svg version="1.1" id="Layer_1" xmlns="http://www.w3.org/2000/svg" xmlns:xlink="http://www.w3.org/1999/xlink" x="0px" y="0px"
	 viewBox="-144 316.1 321.6 161.9" style="enable-background:new -144 316.1 321.6 161.9;" xml:space="preserve">
<style type="text/css">
	.st0{fill:#EF7B00;}
	.st1{fill:#3C3C3B;}
</style>
<g>
	<g>
		<g>
			<polygon class="st0" points="-65.6,402.6 -53.6,379.5 -41.6,402.6 -53.6,397 			"/>
		</g>
	</g>
	<path class="st1" d="M7.7,417.1l-3.6-5.5c-3.6,4-8.5,6.5-15.5,6.5c-9.6,0-17.6-5.5-17.6-15.7v-0.1c0-11.2,8.5-16.4,20.7-16.4
		c5.1,0,8.9,0.9,12.6,2.1v-1c0-6-3.7-9.4-11-9.4c-5.5,0-9.5,1-14.1,2.8l-3.6-11.2c5.6-2.4,11.2-4.1,19.9-4.1
		c15.9,0,22.8,8.2,22.8,22.1V417H7.7V417.1z M4.4,396.5c-2.4-1.2-5.8-1.9-9.2-1.9c-6.2,0-10,2.4-10,7.1v0.1c0,4,3.2,6.2,8,6.2
		c6.8,0,11.4-3.7,11.4-9v-2.4H4.4z"/>
	<path class="st1" d="M60.1,418c-7.7,0-12.6-3.6-16-7.7l-4.9,6.7h-9.6v-69.8H44v25.9c3.6-4.7,8.5-8.3,16-8.3
		c11.9,0,23.4,9.4,23.4,26.6v0.1C83.4,408.7,72.3,418,60.1,418z M68.9,391.3c0-8.5-5.8-14.1-12.6-14.1s-12.4,5.6-12.4,14.1v0.1
		c0,8.5,5.6,14.1,12.4,14.1s12.6-5.5,12.6-14.1V391.3z"/>
	<path class="st1" d="M93.7,417.1v-70h14.5v70H93.7z"/>
	<path class="st1" d="M155.2,402.5c-3.5,2.8-6.8,4.1-11,4.1c-6.5,0-11.2-3.5-12.6-10h35.7c0.1-1.3,0.3-2.2,0.3-3.6v-0.1
		c0-14.5-7.8-27.9-25-27.9c-14.9,0-25.4,12.1-25.4,26.7v0.1c0,15.7,11.4,26.6,26.8,26.6c7.6,0,13.6-2.4,18.2-6.5L155.2,402.5z
		 M142.5,376.4c6.2,0,10,4.4,10.8,10.9h-21.9C132.5,380.8,136.4,376.4,142.5,376.4z"/>
	<path class="st1" d="M-79.8,413.8c-3.2-2.8-8.3-4.4-15.1-4.5l-14.2-0.3c-1.2,0-4.4-0.1-5.1-1c-0.3-0.3-0.3-0.9-0.1-1.7
		c0.1-0.5,1.3-1.9,1.8-2.4c2.4,0.6,5.1,0.9,8.1,0.9c3.5,0,6.7-0.5,9.5-1.4c3-0.9,5.5-2.3,7.7-4.1s4-4.1,5.1-6.5
		c1.2-2.6,1.8-5.5,1.8-8.6c0-1.8-0.3-3.5-0.6-5c-0.1-0.4-0.3-0.6-0.4-1c-0.1-0.4-0.3-0.6-0.4-1c-0.1-0.5-0.4-0.9-0.6-1.3l7.7-0.9
		v-10.3l-19.1,0.5c-0.4-0.1-0.8-0.4-1.3-0.5c-2.8-1-6-1.4-9.4-1.4c-3.9,0-7.2,0.5-10.3,1.5c-3.1,1-5.6,2.6-7.7,4.4
		c-2.1,1.9-3.7,4.1-4.9,6.7c-1.2,2.6-1.7,5.3-1.7,8.2c0,3.6,0.8,6.8,2.4,9.6c1.2,1.9,2.4,3.7,4.1,5.1c-1.3,1.2-2.3,2.4-3.2,3.9
		c-2.6,4.1-2.7,9-0.3,12.4c0.5,0.6,1,1.4,1.7,1.9c-1.7,1.2-3.1,2.7-4.2,4.4c-1.8,2.6-2.7,5.6-2.7,8.9c0,5.6,2.3,9.8,6.8,12.3
		c4.1,2.4,10.1,3.6,17.8,3.6c4.4,0,8.5-0.5,12.2-1.4c3.9-0.9,7.2-2.3,10-4c2.8-1.8,5.1-4,6.8-6.4c1.7-2.6,2.6-5.5,2.6-8.9
		C-74.8,420.7-76.5,416.7-79.8,413.8z M-109.9,421.7l12.6,0.3c4.1,0.1,5.6,0.8,6.2,1.3c0.9,0.8,1.3,1.7,1.3,3.1c0,1.9-1.3,3.6-3.7,5
		c-2.8,1.7-7.1,2.4-12.3,2.4c-1.8,0-3.5-0.1-5-0.4c-1.4-0.3-2.6-0.5-3.6-1c-0.9-0.4-1.4-1-1.9-1.7c-0.4-0.6-0.6-1.4-0.6-2.6
		c0-1.8,0.6-3.5,1.8-4.7C-114.1,422.4-112.3,421.7-109.9,421.7z M-104.6,375c3.7,0,6.5,0.8,8.2,2.4c1.8,1.7,2.6,4,2.6,6.7
		c0,2.7-0.9,4.9-2.6,6.5c-1.7,1.7-4.5,2.4-8.2,2.4s-6.5-0.8-8.2-2.4c-1.7-1.7-2.6-3.9-2.6-6.5c0-2.7,0.9-5,2.6-6.7
		S-108.3,375-104.6,375z"/>
</g>
</svg>
