<?xml version="1.0" encoding="utf-8"?>
<!-- Generator: Adobe Illustrator 19.0.0, SVG Export Plug-In . SVG Version: 6.00 Build 0)  -->
<svg version="1.1" id="Layer_1" xmlns="http://www.w3.org/2000/svg" xmlns:xlink="http://www.w3.org/1999/xlink" x="0px" y="0px"
	 viewBox="0 0 321.6 161.9" style="enable-background:new 0 0 321.6 161.9;" xml:space="preserve">
<style type="text/css">
	.st0{fill:#EF7B00;}
	.st1{fill:#3C3C3B;}
</style>
<g>
	<g>
		<g>
			<polygon class="st0" points="96.9,85.2 106.2,67.2 115.6,85.2 106.2,80.8 			"/>
		</g>
	</g>
	<path class="st1" d="M154,96.5l-2.8-4.3c-2.8,3.1-6.6,5.1-12.1,5.1c-7.5,0-13.7-4.3-13.7-12.2v-0.1c0-8.7,6.6-12.8,16.1-12.8
		c4,0,6.9,0.7,9.8,1.6V73c0-4.7-2.9-7.3-8.6-7.3c-4.3,0-7.4,0.8-11,2.2l-2.8-8.7c4.4-1.9,8.7-3.2,15.5-3.2
		c12.4,0,17.8,6.4,17.8,17.2v23.2H154z M151.4,80.4c-1.9-0.9-4.5-1.5-7.2-1.5c-4.8,0-7.8,1.9-7.8,5.5v0.1c0,3.1,2.5,4.8,6.2,4.8
		c5.3,0,8.9-2.9,8.9-7V80.4z"/>
	<path class="st1" d="M194.8,97.2c-6,0-9.8-2.8-12.5-6l-3.8,5.2H171V42h11.3v20.2c2.8-3.7,6.6-6.5,12.5-6.5
		c9.3,0,18.2,7.3,18.2,20.7v0.1C213,89.9,204.3,97.2,194.8,97.2z M201.7,76.4c0-6.6-4.5-11-9.8-11c-5.3,0-9.7,4.4-9.7,11v0.1
		c0,6.6,4.4,11,9.7,11c5.3,0,9.8-4.3,9.8-11V76.4z"/>
	<path class="st1" d="M221,96.5V42h11.3v54.5H221z"/>
	<path class="st1" d="M268.9,85.1c-2.7,2.2-5.3,3.2-8.6,3.2c-5.1,0-8.7-2.7-9.8-7.8h27.8c0.1-1,0.2-1.7,0.2-2.8v-0.1
		c0-11.3-6.1-21.7-19.5-21.7c-11.6,0-19.8,9.4-19.8,20.8v0.1c0,12.2,8.9,20.7,20.9,20.7c5.9,0,10.6-1.9,14.2-5.1L268.9,85.1z
		 M259,64.8c4.8,0,7.8,3.4,8.4,8.5h-17.1C251.2,68.2,254.3,64.8,259,64.8z"/>
	<path class="st1" d="M85.8,93.9c-2.5-2.2-6.5-3.4-11.8-3.5l-11.1-0.2c-0.9,0-3.4-0.1-4-0.8c-0.2-0.2-0.2-0.7-0.1-1.3
		c0.1-0.4,1-1.5,1.4-1.9c1.9,0.5,4,0.7,6.3,0.7c2.7,0,5.2-0.4,7.4-1.1c2.3-0.7,4.3-1.8,6-3.2c1.7-1.4,3.1-3.2,4-5.1
		c0.9-2,1.4-4.3,1.4-6.7c0-1.4-0.2-2.7-0.5-3.9c-0.1-0.3-0.2-0.5-0.3-0.8c-0.1-0.3-0.2-0.5-0.3-0.8c-0.1-0.4-0.3-0.7-0.5-1l6-0.7
		l0-8L74.8,56c-0.3-0.1-0.6-0.3-1-0.4c-2.2-0.8-4.7-1.1-7.3-1.1c-3,0-5.6,0.4-8,1.2c-2.4,0.8-4.4,2-6,3.4c-1.6,1.5-2.9,3.2-3.8,5.2
		c-0.9,2-1.3,4.1-1.3,6.4c0,2.8,0.6,5.3,1.9,7.5c0.9,1.5,1.9,2.9,3.2,4c-1,0.9-1.8,1.9-2.5,3c-2,3.2-2.1,7-0.2,9.7
		c0.4,0.5,0.8,1.1,1.3,1.5c-1.3,0.9-2.4,2.1-3.3,3.4c-1.4,2-2.1,4.4-2.1,6.9c0,4.4,1.8,7.6,5.3,9.6c3.2,1.9,7.9,2.8,13.9,2.8
		c3.4,0,6.6-0.4,9.5-1.1c3-0.7,5.6-1.8,7.8-3.1c2.2-1.4,4-3.1,5.3-5c1.3-2,2-4.3,2-6.9C89.7,99.3,88.4,96.2,85.8,93.9z M62.4,100.1
		l9.8,0.2c3.2,0.1,4.4,0.6,4.8,1c0.7,0.6,1,1.3,1,2.4c0,1.5-1,2.8-2.9,3.9c-2.2,1.3-5.5,1.9-9.6,1.9c-1.4,0-2.7-0.1-3.9-0.3
		c-1.1-0.2-2-0.4-2.8-0.8c-0.7-0.3-1.1-0.8-1.5-1.3c-0.3-0.5-0.5-1.1-0.5-2c0-1.4,0.5-2.7,1.4-3.7C59.1,100.6,60.5,100.1,62.4,100.1
		z M66.5,63.7c2.9,0,5.1,0.6,6.4,1.9c1.4,1.3,2,3.1,2,5.2c0,2.1-0.7,3.8-2,5.1c-1.3,1.3-3.5,1.9-6.4,1.9c-2.9,0-5.1-0.6-6.4-1.9
		c-1.3-1.3-2-3-2-5.1c0-2.1,0.7-3.9,2-5.2C61.4,64.3,63.6,63.7,66.5,63.7z"/>
</g>
</svg>
