<?xml version="1.0" encoding="UTF-8" standalone="no"?><!DOCTYPE svg PUBLIC "-//W3C//DTD SVG 1.1//EN" "http://www.w3.org/Graphics/SVG/1.1/DTD/svg11.dtd"><svg width="100%" height="100%" viewBox="0 0 50 27" version="1.1" xmlns="http://www.w3.org/2000/svg" xmlns:xlink="http://www.w3.org/1999/xlink" xml:space="preserve" style="fill-rule:evenodd;clip-rule:evenodd;stroke-linejoin:round;stroke-miterlimit:1.41421;"><g id="XMLID_457_"><g id="XMLID_460_"><path id="XMLID_468_" d="M37.3,0.592c1.013,1.747 0.788,3.831 -0.338,4.957c-0.62,0.62 -2.422,1.352 -3.887,1.634c-0.845,0.169 -2.197,0.056 -1.915,-1.127c0.113,-0.563 0.845,-0.676 1.295,-0.845c0.676,-0.225 1.859,-0.563 2.76,-1.295c1.352,-1.07 2.085,-3.324 2.085,-3.324Z" style="fill:#b7964d;"/><path id="XMLID_467_" d="M38.651,4.873c0,1.634 -0.112,3.38 -1.746,4.225c-0.788,0.394 -2.76,1.014 -4.168,0.957c-0.845,-0.056 -1.802,-0.056 -1.69,-1.239c0.057,-0.957 1.071,-1.014 1.577,-0.957c0.564,0.056 1.972,-0.226 3.042,-0.564c1.746,-0.619 2.985,-2.422 2.985,-2.422Z" style="fill:#b7964d;"/><path id="XMLID_466_" d="M38.313,9.041c-0.394,1.69 -0.901,2.873 -2.647,3.493c-0.789,0.281 -2.816,0.563 -4.224,0.394c-0.733,-0.113 -1.747,-0.169 -1.578,-1.408c0.057,-0.451 0.845,-0.958 1.634,-0.789c0.845,0.169 1.971,0.169 3.098,-0.056c1.69,-0.338 2.478,-0.563 3.717,-1.634Z" style="fill:#b7964d;"/><path id="XMLID_461_" d="M20.852,9.436c0.62,-0.057 1.183,0.394 1.239,1.014c0.057,0.563 -0.45,1.07 -1.07,1.126c-0.845,0.056 -0.957,-0.901 -1.746,-1.014c-0.169,0 -0.507,0.169 -0.732,0.394c0,-0.394 0.338,-0.788 0.62,-0.788c0.225,0 0.394,0.169 0.619,0.113c0.507,-0.113 0.507,-0.789 1.07,-0.845ZM22.091,6.676c0,0.056 0,0.056 0,0.112c0,0.282 -0.168,0.507 -0.45,0.507c-0.282,0 -0.507,-0.169 -0.507,-0.45c0,-0.057 0,-0.113 0,-0.169l0.957,0ZM20.289,6.676l0.507,0c0,0.112 -0.056,0.169 0,0.281c0.056,0.451 0.451,0.789 0.901,0.789c0.451,-0.056 0.789,-0.451 0.789,-0.901c0,-0.057 0,-0.113 0,-0.113l0.45,0l0.057,0.113c0.056,0.732 -0.451,1.351 -1.183,1.464c-0.732,0.056 -1.352,-0.45 -1.465,-1.183c-0.056,-0.225 -0.056,-0.394 -0.056,-0.45ZM24.908,1.719c0.676,0 1.859,-0.056 2.816,-0.169c1.352,-0.169 2.873,-0.507 4.056,-1.07c0,0 1.013,-0.62 0.901,-0.451c-0.113,0.226 -1.859,1.634 -5.239,1.915c-1.746,0.169 -2.76,0.169 -3.041,0.169c-0.676,0 -1.408,-0.056 -2.253,-0.169c-3.436,-0.507 -8.731,-0.732 -10.083,1.69c-0.844,1.239 1.634,0.845 2.479,0.789c1.239,-0.113 3.098,0.169 2.422,1.464c0,0 0,0.507 0.394,0.62c0.056,0 0.113,0 0.169,0c0.958,-0.057 1.465,0.112 2.366,0.056c0.056,0.169 0,0.282 0.056,0.451c0.056,0.957 0.901,1.633 1.859,1.52c0.957,-0.056 1.633,-0.901 1.521,-1.858c0,-0.057 -0.057,-0.057 -0.057,-0.113c0.845,0 2.084,0 2.873,0c0.732,0.056 1.521,0.169 1.633,0.901c0.057,0.676 -1.351,0.732 -1.295,1.408c0,0.282 0.225,0.451 0.225,0.789c0.113,1.183 -1.014,2.535 -1.971,3.154c-0.732,0.451 -1.352,0.394 -2.197,0.169c-0.957,-0.507 -2.309,-0.619 -2.816,0.057c-0.62,0.901 -0.282,2.759 -1.352,2.703c-0.507,0 -0.394,-0.676 -0.62,-1.126c-0.225,-0.395 -0.732,-0.282 -0.788,-0.733c0,-0.281 0.112,-0.563 0.225,-0.844c-0.056,0 -0.113,-0.057 -0.225,-0.057c-0.62,0.057 -0.789,0.732 -0.732,1.352c-0.226,-0.113 -0.564,-0.451 -0.564,-0.732c-0.056,-0.451 0.676,-0.676 0.845,-1.07c0.113,-0.282 0.057,-0.169 0.113,-0.395c0.056,-0.225 0,-0.394 0,-0.676c0.338,0.226 0.563,0.451 0.788,0.789l0.338,-0.056c0,-0.451 0.451,-1.071 0.451,-1.071c0.169,0.226 0.282,0.338 0.507,0.507c0.563,0.395 1.352,0.62 2.197,0.395c1.07,-0.226 2.027,-0.733 2.027,-1.915c0.057,-1.24 -1.408,-1.803 -2.591,-1.69c-1.239,0.112 -2.253,0.788 -2.591,2.028l0.507,0.225c-0.394,0.112 -0.45,0.112 -0.732,0c-0.338,-0.113 -0.451,-0.451 -0.676,-0.62c-0.112,-0.169 -0.619,0.169 -0.676,-0.732c-0.056,-0.394 -0.338,-0.676 -0.732,-0.62c-0.451,0.057 -0.789,0.451 -1.07,0.789c-0.057,-0.225 0.169,-0.451 0.169,-0.62c-0.057,-0.338 -0.338,-0.619 -0.732,-0.619c-0.338,0.056 -0.564,0.338 -0.507,0.676c0,0.225 0.394,0.507 0.394,0.732c-0.282,-0.282 -0.845,-0.62 -0.845,-1.014c-0.056,-0.563 0.676,-0.62 0.901,-1.126c0.113,-0.282 -0.281,-0.564 -0.169,-0.902c0.113,-0.45 0.676,-0.619 1.127,-0.845c-0.226,0.282 -0.338,0.451 -0.338,0.733c0,0.281 0.507,0.676 0.788,0.676l0.113,0l-0.169,-0.845c0.394,-0.733 0.282,-1.07 -0.394,-1.07c-1.183,-0.057 -4.563,0.506 -3.492,-1.465c1.633,-3.042 7.266,-2.76 10.476,-2.309c0.676,0.112 1.408,0.169 2.028,0.169c0.056,0 0.451,0.056 1.183,0.056Z" style="fill:#b7964d;fill-rule:nonzero;"/></g><path id="XMLID_458_" d="M29.301,12.984c0.676,0.394 1.183,0.62 2.197,0.732c1.971,0.169 3.154,0 5.126,-0.901c-0.902,1.634 -1.972,2.704 -3.774,2.929c-0.845,0.113 -3.042,0.056 -4.337,-0.507c-0.282,-0.112 -0.507,-0.169 -0.676,-0.281l-0.057,0.056c-0.112,0.113 -0.225,0.282 -0.338,0.451c0.564,0.281 0.958,0.619 1.859,0.788c1.465,0.225 2.253,0.282 3.267,0.056c-1.352,1.409 -2.422,1.634 -3.999,1.578c-0.676,-0.057 -2.028,-0.451 -2.704,-0.733c-3.661,2.929 -8.336,2.084 -8.054,1.465c0.225,-0.563 1.352,-0.169 3.098,-2.479c0.507,-0.675 0.788,-1.577 1.014,-2.027c-0.113,0 -0.057,0 0,0l0,-0.057c0.168,0.057 0.337,0.057 0.563,0.113c0.225,0 0.507,0 0.845,0.056c2.309,0.113 3.548,-1.633 3.83,-2.084c0.676,-1.07 0.507,-2.196 0.507,-2.816c0.056,-0.62 1.352,-0.507 1.352,-1.915c0,-1.69 -3.324,-1.465 -3.324,-1.465l0.169,-0.056l-1.239,0l-5.013,0c-0.056,0.056 -0.788,0.225 -0.901,0.282c0,-0.057 0.225,-0.733 0.282,-0.789c0.675,-1.521 1.858,-1.633 3.379,-1.69c0.845,-0.056 1.972,0 3.211,0.113c1.746,-0.113 3.267,-0.056 5.069,-0.563c2.14,-0.62 3.774,-1.352 5.689,-2.985c-0.169,1.295 -0.789,2.196 -1.859,3.154c-1.07,1.014 -1.971,1.239 -3.436,1.633c-0.394,0.226 -0.619,0.563 -0.676,1.014c-0.056,0.563 0.169,1.07 0.62,1.352c-0.563,0.338 -0.789,0.732 -0.845,1.352c-0.056,0.507 0.056,0.788 0.338,1.183c-0.563,0.169 -1.07,0.338 -1.352,0.788c-0.225,0.676 -0.394,1.296 0.169,2.253Z" style="fill:#b7964d;fill-rule:nonzero;"/></g><g id="XMLID_448_"><g id="XMLID_450_"><path id="XMLID_456_" d="M11.333,20.701c-0.056,-0.056 -0.169,-0.056 -0.225,-0.056c-0.394,0 -0.732,0.169 -0.732,0.394c0.112,0 0.45,0.112 0.732,0.225c0.394,0.113 0.788,0.338 0.788,0.62l0,3.886c0,0.338 0.282,0.732 0.282,0.732l-1.295,0l0,-4.506c0,-0.394 -1.352,-0.619 -1.352,-0.619l-0.057,0l0,-0.057c0,-0.563 0.564,-0.957 1.296,-0.957c0.338,0 0.62,0.056 0.845,0.113c0.112,0.056 0.225,0.056 0.338,0.112c0.112,0 0.225,0.057 0.281,0.057c0.226,0 0.676,-0.113 0.733,-0.169l0.112,-0.057l0,0.113c0,0 -0.112,0.676 -0.957,0.676c-0.113,0 -0.226,0 -0.282,-0.057c-0.113,-0.056 -0.169,-0.112 -0.281,-0.169c-0.057,-0.168 -0.169,-0.225 -0.226,-0.281Z" style="fill:#00509f;"/><path id="XMLID_455_" d="M13.136,26.221c-0.395,-0.225 -0.845,-0.563 -0.845,-1.352c0,-0.789 0.394,-0.901 0.394,-0.901l2.084,0l0,0.169c-0.788,0 -1.521,0.394 -1.521,0.788c0,0.789 0.395,0.902 0.395,0.902c0.056,0.056 0.45,0.281 0.901,0.225c0.619,-0.113 1.239,-0.563 1.239,-1.746c0,-1.014 -0.451,-1.746 -1.408,-1.803c-0.62,0 -0.901,0.226 -1.239,0.451c-0.169,0.113 -0.169,0.113 -0.282,0.225c-0.113,0.057 -0.338,0.338 -0.338,0.338l0.169,-0.957c0.394,-0.282 0.901,-0.507 1.915,-0.507c1.465,0 2.253,1.014 2.253,2.253c0,1.352 -0.901,2.196 -2.309,2.196c-0.563,0 -1.07,-0.056 -1.408,-0.281Z" style="fill:#00509f;"/><path id="XMLID_454_" d="M21.134,23.236c0,0 0,2.422 0,2.647c0,0.281 0.225,0.563 0.225,0.563l-1.408,0c0,0 0.225,-0.282 0.225,-0.563c0,-0.282 0,-2.028 0,-2.028c-0.225,0.113 -0.45,0.169 -0.676,0.282c-0.225,0.056 -0.506,0.169 -0.732,0.281c-0.45,0.169 -0.788,0.395 -0.788,0.845c0,0.507 0.169,0.789 0.788,0.845c0.169,0 0.676,-0.169 0.676,-0.169c0,0 -0.112,0.62 -0.845,0.62c-0.901,0 -1.577,-0.451 -1.577,-1.183c0,-0.676 0.451,-1.127 1.239,-1.352c0.338,-0.113 0.789,-0.169 1.183,-0.282c0.394,-0.112 0.676,-0.281 0.676,-0.563c0,-0.338 -0.225,-0.676 -1.014,-0.676c-0.676,0 -1.352,0.338 -1.521,0.733l-0.338,0.394l0.169,-1.014l0.057,0l0.056,-0.056c0.056,-0.057 0.169,-0.113 0.282,-0.169c0.281,-0.113 0.732,-0.226 1.521,-0.226c0.112,0 0.225,0 0.337,0.057c0.113,0 0.226,0.056 0.282,0.056c0.113,0 0.225,0.056 0.282,0.056l0.112,0.057l0.057,0c0.112,0 0.338,-0.113 0.338,-0.395l0,-0.056l1.014,0l0,0.056c0,0.338 -0.62,0.564 -0.958,0.564c0.169,0.056 0.338,0.338 0.338,0.676Z" style="fill:#00509f;"/><path id="XMLID_453_" d="M24.964,25.827c0,-0.226 0,-2.76 0,-2.76c0,-0.395 -0.394,-0.676 -1.07,-0.676c-0.676,0 -1.014,0.281 -1.014,0.676c0,0 0,2.309 0,2.591c0,0.338 0.676,0.619 1.07,0.619c0,0.056 0,0.113 0,0.113c0,0 -0.957,0 -1.521,0c-0.563,0 -0.506,-0.338 -0.506,-0.338l0,-2.366c0,-0.056 0.056,-0.113 0.112,-0.169c0.056,-0.056 0.113,-0.056 0.169,-0.112l0.113,-0.057c0,0 0.056,0 0.056,-0.056l0.056,0c0,0 0,-0.056 -0.056,-0.056c-0.056,0 -0.113,0 -0.169,0c-0.113,0 -0.225,0 -0.225,0l-0.056,0l0,-0.057c0,-0.732 1.07,-1.183 2.084,-1.183c1.013,0 2.027,0.338 2.027,1.183c0,0 0,2.366 0,2.591c0,0.226 0.226,0.563 0.226,0.563l-1.465,0c-0.056,0.113 0.169,-0.281 0.169,-0.506Z" style="fill:#00509f;"/><path id="XMLID_452_" d="M34.765,25.939c0,-0.225 0,-2.816 0,-2.816c0,-0.394 -0.394,-0.676 -1.07,-0.676c-0.676,0 -1.014,0.282 -1.014,0.676l0,2.985c0,0 0,0.338 -0.395,0.338c-0.45,0 -1.408,0 -1.408,0l0,-0.113c0.507,0 0.845,-0.337 0.845,-0.619c0,-0.338 0,-1.972 0,-1.972c0,-0.056 0.057,-0.112 0.113,-0.169c0.056,-0.056 0.113,-0.056 0.169,-0.112l0.113,-0.056c0,0 0.056,0 0.056,-0.057l0.056,0c0,0 0,-0.056 -0.056,-0.056c-0.056,0 -0.113,0 -0.169,0c-0.113,0 -0.225,0 -0.225,0l-0.057,0l0,-0.056c0,-0.733 1.07,-1.183 2.028,-1.183c1.014,0 2.028,0.338 2.028,1.183c0,0 0,2.478 0,2.703c0,0.225 0.225,0.507 0.225,0.507l-1.408,0c-0.056,0 0.169,-0.282 0.169,-0.507Z" style="fill:#00509f;"/><path id="XMLID_451_" d="M38.426,25.939c0,-0.225 0,-2.703 0,-2.703c0,-0.564 -0.394,-0.845 -1.07,-0.845c-0.676,0 -0.958,0.45 -1.127,0.788l-0.225,0.451l0,-1.07c0.225,-0.226 0.845,-0.507 1.633,-0.507c1.183,0 1.747,0.507 1.747,1.239c0,0 0,2.422 0,2.647c0,0.225 0.225,0.507 0.225,0.507l-1.408,0c0,0 0.225,-0.282 0.225,-0.507Z" style="fill:#00509f;"/></g><path id="XMLID_449_" d="M30.597,23.236c0,0 0,2.422 0,2.647c0,0.281 0.225,0.563 0.225,0.563l-1.408,0c0,0 0.225,-0.282 0.225,-0.563c0,-0.282 0,-2.028 0,-2.028c-0.225,0.113 -0.45,0.169 -0.676,0.282c-0.225,0.056 -0.507,0.169 -0.732,0.281c-0.451,0.169 -0.789,0.395 -0.789,0.845c0,0.507 0.169,0.789 0.789,0.845c0.169,0 0.676,-0.169 0.676,-0.169c0,0 -0.113,0.62 -0.845,0.62c-0.901,0 -1.577,-0.451 -1.577,-1.183c0,-0.676 0.451,-1.127 1.239,-1.352c0.338,-0.113 0.789,-0.169 1.183,-0.282c0.394,-0.112 0.676,-0.281 0.676,-0.563c0,-0.338 -0.225,-0.676 -1.014,-0.676c-0.676,0 -1.296,0.338 -1.521,0.733l-0.338,0.394l0.169,-1.014l0.057,0l0.056,-0.056c0.056,-0.057 0.169,-0.113 0.281,-0.169c0.282,-0.113 0.733,-0.226 1.521,-0.226c0.113,0 0.226,0 0.338,0.057c0.113,0 0.226,0.056 0.282,0.056c0.113,0 0.225,0.056 0.281,0.056l0.057,0.057l0.056,0c0.113,0 0.338,-0.113 0.338,-0.395l0,-0.056l1.014,0l0,0.056c0,0.338 -0.62,0.564 -0.958,0.564c0.226,0.056 0.395,0.338 0.395,0.676Z" style="fill:#00509f;"/></g></svg>