<?xml version="1.0" encoding="UTF-8" standalone="no"?><!DOCTYPE svg PUBLIC "-//W3C//DTD SVG 1.1//EN" "http://www.w3.org/Graphics/SVG/1.1/DTD/svg11.dtd"><svg width="100%" height="100%" viewBox="0 0 792 357" version="1.1" xmlns="http://www.w3.org/2000/svg" xmlns:xlink="http://www.w3.org/1999/xlink" xml:space="preserve" style="fill-rule:evenodd;clip-rule:evenodd;stroke-linejoin:round;stroke-miterlimit:1.41421;"><rect id="Artboard1" x="0" y="0" width="791.009" height="357" style="fill:none;"/><g><path d="M103.454,191l-14.8,0l-29.8,-144.7l28.9,0l15.5,84l0.4,0l38.3,-84l31.2,0l-69.7,144.7Z" style="fill:#ed1c24;fill-rule:nonzero;"/><path d="M201.054,189.1l-30.4,0l20.1,-142.9l30.4,0l-20.1,142.9Z" style="fill:#ed1c24;fill-rule:nonzero;"/><path d="M326.954,80.8c-9.2,-6.7 -24.5,-12.6 -35.4,-12.6c-11.1,0 -20.1,6.3 -20.1,15.7c0,20.5 52.6,23.3 52.6,63.3c0,23 -16.3,43.8 -48.4,43.8c-20.7,0 -35.8,-5.2 -48.6,-13.6l4.6,-24.9c11.5,8.4 28.5,14.7 40.4,14.7c12.4,0 20.5,-6.3 20.5,-15.7c0,-23.7 -52.6,-26.4 -52.6,-63.9c0,-24.7 21.4,-43.2 50.3,-43.2c13.8,0 28.5,4 40.8,11.3l-4.1,25.1Z" style="fill:#ed1c24;fill-rule:nonzero;"/><path d="M373.454,189.1l-30.4,0l20.1,-142.9l30.4,0l-20.1,142.9Z" style="fill:#ed1c24;fill-rule:nonzero;"/><path d="M481.554,191c-41.5,0 -72.1,-27.2 -72.1,-66.4c0,-46.3 35.6,-80.2 84,-80.2c41.7,0 70.4,26.8 70.4,65.1c0.1,49.3 -34.9,81.5 -82.3,81.5ZM491.454,70.8c-27.6,0 -50.5,23.7 -50.5,52.4c0,24.5 16.8,41.5 40.8,41.5c28.3,0 50.7,-23.5 50.7,-53c0,-23.7 -17.1,-40.9 -41,-40.9Z" style="fill:#ed1c24;fill-rule:nonzero;"/><path d="M712.254,189.1l-28.9,0l-58.7,-96.8l-0.4,0l-13.4,96.8l-30.4,0l20.1,-142.8l30.4,0l57.6,93.2l0.4,0l12.8,-93.2l30.4,0l-19.9,142.8Z" style="fill:#ed1c24;fill-rule:nonzero;"/></g><g><path d="M264.754,227.6c-2.4,-1.7 -6.3,-3.2 -9.1,-3.2c-2.8,0 -5.2,1.6 -5.2,4c0,5.3 13.5,6 13.5,16.2c0,5.9 -4.2,11.2 -12.4,11.2c-5.3,0 -9.2,-1.3 -12.5,-3.5l1.2,-6.4c3,2.1 7.3,3.8 10.4,3.8c3.2,0 5.3,-1.6 5.3,-4c0,-6.1 -13.5,-6.8 -13.5,-16.4c0,-6.3 5.5,-11.1 12.9,-11.1c3.5,0 7.3,1 10.5,2.9l-1.1,6.5Z" style="fill:#034694;fill-rule:nonzero;"/><path d="M295.854,224.8l-15.1,0l-1.2,8.6l13.3,0l-0.9,6.1l-13.3,0l-1.3,9.6l19,0l-0.9,6.1l-26.8,0l5.2,-36.6l22.9,0l-0.9,6.2Z" style="fill:#034694;fill-rule:nonzero;"/><path d="M333.454,226.3c-2.8,-0.9 -5.6,-1.3 -8.9,-1.3c-11.8,0 -15.6,8.5 -15.6,14.2c0,6 4,9.8 10.5,9.8c4.2,0 8.1,-1.3 13.3,-4.3l-1.1,8.2c-4.5,2 -8.5,2.9 -12.9,2.9c-10.6,0 -17.8,-6.8 -17.8,-16.7c0,-12.3 9.8,-20.8 23.9,-20.8c3.2,0 6.3,0.4 9.9,1.3l-1.3,6.7Z" style="fill:#034694;fill-rule:nonzero;"/><path d="M371.454,241.5c-1.7,11.9 -9.9,14.3 -16.9,14.3c-12.6,0 -17.3,-7 -16,-16.3l3,-20.8l7.8,0l-3,20.7c-1.2,8.3 4.9,9.6 8.2,9.6c4.1,0 8.3,-2 9.2,-8.2l3.1,-22.2l7.8,0l-3.2,22.9Z" style="fill:#034694;fill-rule:nonzero;"/><path d="M394.954,218.7c9.3,0 12.4,6.5 12.4,11c0,4.5 -2.6,8.5 -8.2,9.6l0,0.1c2,0.9 2.8,2.3 3.9,4.3l5.6,11.7l-8.6,0l-3.5,-7.4c-3.1,-6.6 -4,-7.4 -7.8,-7.4l-1.7,0l-2,14.8l-7.8,0l5.1,-36.6l12.6,0l0,-0.1ZM387.954,234.8l3.9,0c5.3,0 7.5,-2.6 7.5,-5.3c0,-2.9 -2.3,-4.7 -6.1,-4.7l-3.8,0l-1.5,10Z" style="fill:#034694;fill-rule:nonzero;"/><path d="M419.854,255.3l-7.8,0l5.2,-36.6l7.8,0l-5.2,36.6Z" style="fill:#034694;fill-rule:nonzero;"/><path d="M460.754,224.8l-11.9,0l-4.3,30.5l-7.8,0l4.3,-30.5l-11.6,0l0.9,-6.1l31.3,0l-0.9,6.1Z" style="fill:#034694;fill-rule:nonzero;"/><path d="M478.454,240l-2.2,15.4l-7.7,0l2.1,-15.4l-7.7,-21.3l7.8,0l4.7,14.1l8.5,-14.1l8.3,0l-13.8,21.3Z" style="fill:#034694;fill-rule:nonzero;"/><path d="M530.554,227.6c-2.4,-1.7 -6.3,-3.2 -9.1,-3.2c-2.8,0 -5.2,1.6 -5.2,4c0,5.3 13.5,6 13.5,16.2c0,5.9 -4.2,11.2 -12.4,11.2c-5.3,0 -9.2,-1.3 -12.5,-3.5l1.2,-6.4c3,2.1 7.3,3.8 10.4,3.8c3.2,0 5.3,-1.6 5.3,-4c0,-6.1 -13.5,-6.8 -13.5,-16.4c0,-6.3 5.5,-11.1 12.9,-11.1c3.6,0 7.3,1 10.5,2.9l-1.1,6.5Z" style="fill:#034694;fill-rule:nonzero;"/><path d="M551.654,240l-2.2,15.4l-7.8,0l2.2,-15.4l-7.7,-21.3l7.8,0l4.7,14.1l8.5,-14.1l8.3,0l-13.8,21.3Z" style="fill:#034694;fill-rule:nonzero;"/><path d="M588.754,227.6c-2.4,-1.7 -6.3,-3.2 -9.1,-3.2c-2.9,0 -5.2,1.6 -5.2,4c0,5.3 13.5,6 13.5,16.2c0,5.9 -4.2,11.2 -12.4,11.2c-5.3,0 -9.2,-1.3 -12.5,-3.5l1.2,-6.4c3,2.1 7.3,3.8 10.4,3.8c3.2,0 5.3,-1.6 5.3,-4c0,-6.1 -13.5,-6.8 -13.5,-16.4c0,-6.3 5.5,-11.1 12.9,-11.1c3.5,0 7.3,1 10.5,2.9l-1.1,6.5Z" style="fill:#034694;fill-rule:nonzero;"/><path d="M625.354,224.8l-11.9,0l-4.3,30.5l-7.8,0l4.3,-30.5l-11.6,0l0.9,-6.1l31.3,0l-0.9,6.1Z" style="fill:#034694;fill-rule:nonzero;"/><path d="M653.154,224.8l-15.1,0l-1.2,8.6l13.3,0l-0.9,6.1l-13.3,0l-1.3,9.6l19,0l-0.9,6.1l-26.8,0l5.2,-36.6l22.9,0l-0.9,6.2Z" style="fill:#034694;fill-rule:nonzero;"/><path d="M702.954,255.3l-7.5,0l-1.1,-24.8l-0.1,0l-13.6,24.8l-3.7,0l-6.4,-25.5l-0.1,0l-8.3,25.5l-7.8,0l11.9,-36.6l8.5,0l5.9,23l12.3,-23l8.3,0l1.7,36.6Z" style="fill:#034694;fill-rule:nonzero;"/><path d="M138.454,255.5l-8,0l-1.1,-8l-11.5,0l-3.6,8l-8.6,0l18,-37.2l8.3,0l6.5,37.2ZM120.154,242.2l8.5,0l-1.9,-16.2l-0.2,0l-6.4,16.2Z" style="fill:#034694;fill-rule:nonzero;"/><path d="M177.054,255.5l-7.4,0l-15.1,-24.9l-0.1,0l-3.4,24.9l-7.8,0l5.2,-36.8l7.8,0l14.8,24l0.1,0l3.3,-24l7.8,0l-5.2,36.8Z" style="fill:#034694;fill-rule:nonzero;"/><path d="M202.454,218.8c14.7,0 19,9.9 19,17.9c0,10.9 -7.5,18.9 -17.4,18.9l-19,0l5.1,-36.8l12.3,0ZM193.854,249.4l7.3,0c8.7,0 12.2,-6.5 12.2,-12.8c0,-6.5 -4.3,-11.6 -12.4,-11.6l-3.8,0l-3.3,24.4Z" style="fill:#034694;fill-rule:nonzero;"/></g><g><g><path d="M275.454,301.4c0,5.6 -3.8,11.3 -12.4,11.3c-4.7,0 -8.6,-1.1 -12.1,-3.4l-0.3,-0.2l1.4,-7.4l0.8,0.6c2.7,2 6.7,3.4 9.4,3.4c2.6,0 4.4,-1.3 4.4,-3.2c0,-2.2 -2.3,-3.6 -5,-5.3c-3.6,-2.3 -7.8,-4.8 -7.8,-10.2c0,-6.3 5.5,-11.1 12.8,-11.1c3.5,0 7.2,1 10.3,2.8l0.4,0.2l-1.3,7.5l-0.8,-0.6c-2.3,-1.6 -5.9,-2.9 -8.2,-2.9c-2.5,0 -4.2,1.3 -4.2,3.2c0,1.7 2.1,3 4.5,4.4c3.6,2.1 8.1,4.8 8.1,10.9Z" style="fill:#034694;fill-rule:nonzero;"/><path d="M338.054,276.2c0,0 -9.8,18.3 -11.1,20.7c-0.7,-2.7 -5.3,-20.7 -5.3,-20.7l-9,0c0,0 -2.9,8.9 -5.7,17.4c-0.7,-3.8 -3.1,-17.9 -3.1,-17.9l-0.5,0l-8.2,0c0,0 -10,20.6 -10.3,21.3c-0.7,0 -5.9,0 -5.9,0l-2.9,6.1c0,0 4.5,0 5.8,0c-0.7,1.5 -4.3,8.9 -4.3,8.9l9.5,0c0,0 3.5,-8.2 3.9,-8.9c0.7,0 5.9,0 5.9,0l2.5,-5.3c0.9,6.4 1.9,13.7 2,14.3l8.3,0c0,0 6.3,-19.5 7.4,-22.7c0.8,3.3 5.7,22.7 5.7,22.7l4.4,0c0,0 10.4,-19 12.1,-22c0.2,3.4 1,22 1,22l8.4,0l-1.7,-35.9l-8.9,0l0,0ZM293.554,297.1c0.5,-1.3 3.1,-7.3 4.3,-9.9c0.2,1.5 0.7,5 1.4,9.9c-0.3,0 -4.3,0 -5.7,0Z" style="fill:#034694;fill-rule:nonzero;"/><path d="M408.254,296.6c4.3,-1.3 6.9,-4.8 6.9,-9.3c0,-5.3 -3.9,-11.1 -12.3,-11.1l-11.9,0l-0.5,0l-5,35.9l8.6,0c0,0 1.8,-13 1.9,-14c0.5,0 1,0 1,0c3.2,0 3.9,0.4 6.8,6.7l3.5,7.4l9.5,0l-5.8,-11.9c-0.7,-1.6 -1.4,-2.8 -2.7,-3.7ZM399.754,291.5c0,0 -2,0 -2.9,0c0.2,-1.1 1,-7.3 1.2,-8.2c0.8,0 3.1,0 3.1,0c3.3,0 5.2,1.4 5.2,3.8c-0.1,2.1 -1.8,4.4 -6.6,4.4Z" style="fill:#034694;fill-rule:nonzero;"/><path d="M447.254,276.2l-1,7.1c0,0 -10.3,0 -11.3,0c-0.1,1 -4.1,28.9 -4.1,28.9l-8.6,0c0,0 3.9,-27.5 4.1,-28.9c-1.2,0 -11,0 -11,0l1,-7.1l30.9,0Z" style="fill:#034694;fill-rule:nonzero;"/><path d="M376.554,275.8l-8.2,0c0,0 -10,20.6 -10.3,21.3c-0.7,0 -5.9,0 -5.9,0l-2.9,6.1c0,0 4.5,0 5.8,0c-0.7,1.5 -4.3,8.9 -4.3,8.9l9.5,0c0,0 3.5,-8.2 3.8,-8.9c0.7,0 5.9,0 5.9,0l2.5,-5.3c1,6.8 2,14.3 2,14.3l8.9,0l-6.3,-36.4l-0.5,0l0,0ZM366.754,297.1c0.5,-1.3 3.1,-7.3 4.3,-9.9c0.2,1.5 0.7,5 1.4,9.9c-0.2,0 -4.3,0 -5.7,0Z" style="fill:#034694;fill-rule:nonzero;"/></g><path d="M228.354,283.3l0.1,0l1.9,15.9l-8.3,0l6.3,-15.9ZM233.554,275.8l-8.1,0l-17.6,36.3l8.4,0l3.5,-7.8l11.1,0l1.1,7.8l7.8,0l-6.2,-36.3Z" style="fill:#034694;fill-rule:nonzero;"/><path d="M485.354,283.7c-2.7,-0.8 -5.5,-1.3 -8.7,-1.3c-11.5,0 -15.3,8.4 -15.3,13.9c0,5.9 3.9,9.6 10.3,9.6c4.1,0 7.9,-1.3 13,-4.2l-1.1,8c-4.4,1.9 -8.4,2.8 -12.6,2.8c-10.4,0 -17.5,-6.6 -17.5,-16.4c0,-12.1 9.6,-20.4 23.4,-20.4c3.2,0 6.2,0.4 9.7,1.3l-1.2,6.7Z" style="fill:#034694;fill-rule:nonzero;"/><path d="M518.054,292.7c0,7.4 -5.6,13.3 -12.7,13.3c-6,0 -10.2,-4.3 -10.2,-10.4c0,-7.2 5.7,-13.1 12.7,-13.1c5.8,-0.1 10.2,4.2 10.2,10.2ZM525.854,292.1c0,-9.6 -7.2,-16.3 -17.7,-16.3c-12.1,0 -21.1,8.5 -21.1,20.1c0,9.8 7.7,16.7 18.1,16.7c12,0 20.7,-8.1 20.7,-20.5Z" style="fill:#034694;fill-rule:nonzero;"/><path d="M572.154,311.7l-7.4,0l-1.1,-24.2l-0.1,0l-13.3,24.2l-3.6,0l-6.3,-24.9l-0.1,0l-8.1,24.9l-7.7,0l11.7,-35.9l8.3,0l5.8,22.6l12.1,-22.6l8.1,0l1.7,35.9Z" style="fill:#034694;fill-rule:nonzero;"/><path d="M586.654,281.5l1.8,0c4.9,0 7,2.3 7,5.3c0,3.1 -2.1,5.7 -7.2,5.7l-3.2,0l1.6,-11ZM579.754,275.8l-5,35.9l7.6,0l1.9,-13.5l6,0c6.2,0 13,-2.7 13,-11.7c0,-7.1 -5.4,-10.7 -11.8,-10.7l-11.7,0Z" style="fill:#034694;fill-rule:nonzero;"/><path d="M617.754,283.3l0.1,0l1.9,15.9l-8.3,0l6.3,-15.9ZM623.054,275.8l-8.1,0l-17.6,36.3l8.4,0l3.5,-7.8l11.1,0l1.1,7.8l7.8,0l-6.2,-36.3Z" style="fill:#034694;fill-rule:nonzero;"/><path d="M664.354,311.7l-7.3,0l-14.7,-24.3l-0.1,0l-3.4,24.3l-7.6,0l5,-35.9l7.6,0l14.5,23.4l0.1,0l3.2,-23.4l7.6,0l-4.9,35.9Z" style="fill:#034694;fill-rule:nonzero;"/><path d="M686.454,296.6l-2.1,15l-7.6,0l2.1,-15l-7.6,-20.8l7.6,0l4.6,13.8l8.3,-13.8l8.1,0l-13.4,20.8Z" style="fill:#034694;fill-rule:nonzero;"/></g></svg>